<svg width="612" height="1255" viewBox="0 0 612 1255" fill="none" xmlns="http://www.w3.org/2000/svg">
<rect width="612" height="792" fill="black"/>
<path d="M72.7815 725.12C72.5095 724.96 72.3735 724.744 72.3735 724.472C72.3735 724.28 72.4375 724.072 72.5655 723.848L80.2455 709.688H70.9815C70.6935 709.688 70.4615 709.632 70.2855 709.52C70.1255 709.392 70.0455 709.208 70.0455 708.968C70.0455 708.456 70.3575 708.2 70.9815 708.2H81.2055C81.5095 708.2 81.7415 708.28 81.9015 708.44C82.0775 708.6 82.1655 708.816 82.1655 709.088C82.1655 709.408 82.0775 709.728 81.9015 710.048L74.0295 724.76C73.8535 725.08 73.5975 725.24 73.2615 725.24C73.0695 725.24 72.9095 725.2 72.7815 725.12ZM96.5645 725.24C95.2845 725.24 94.1085 725 93.0365 724.52C91.9645 724.04 91.0605 723.352 90.3245 722.456C90.1645 722.248 90.0845 722.048 90.0845 721.856C90.0845 721.6 90.2045 721.392 90.4445 721.232C90.5885 721.136 90.7565 721.088 90.9485 721.088C91.2685 721.088 91.5085 721.208 91.6685 721.448C92.2125 722.2 92.9085 722.768 93.7565 723.152C94.6205 723.52 95.5485 723.704 96.5405 723.704C98.0765 723.704 99.2685 723.296 100.117 722.48C100.981 721.664 101.413 720.504 101.413 719C101.413 717.64 100.997 716.592 100.165 715.856C99.3325 715.104 98.2285 714.728 96.8525 714.728C96.0525 714.728 95.3005 714.872 94.5965 715.16C93.9085 715.448 93.3485 715.84 92.9165 716.336C92.5165 716.784 92.1405 717.008 91.7885 717.008C91.4685 717.008 91.2125 716.92 91.0205 716.744C90.8285 716.552 90.7565 716.312 90.8045 716.024L91.7405 709.76C91.8205 709.28 92.0285 708.904 92.3645 708.632C92.7165 708.344 93.1805 708.2 93.7565 708.2H101.509C102.133 708.2 102.445 708.456 102.445 708.968C102.445 709.208 102.357 709.392 102.181 709.52C102.021 709.632 101.797 709.688 101.509 709.688H94.2125C93.9245 709.688 93.7165 709.752 93.5885 709.88C93.4605 710.008 93.3725 710.216 93.3245 710.504L92.7005 714.704C93.3085 714.208 93.9885 713.832 94.7405 713.576C95.5085 713.304 96.3005 713.168 97.1165 713.168C98.2845 713.168 99.3325 713.4 100.261 713.864C101.189 714.328 101.909 715 102.421 715.88C102.949 716.744 103.213 717.776 103.213 718.976C103.213 720.224 102.949 721.32 102.421 722.264C101.893 723.208 101.125 723.944 100.117 724.472C99.1245 724.984 97.9405 725.24 96.5645 725.24ZM118.343 725.24C116.919 725.24 115.687 724.896 114.647 724.208C113.607 723.52 112.807 722.528 112.247 721.232C111.703 719.936 111.431 718.392 111.431 716.6C111.431 714.808 111.703 713.264 112.247 711.968C112.807 710.672 113.607 709.68 114.647 708.992C115.687 708.304 116.919 707.96 118.343 707.96C119.767 707.96 120.999 708.304 122.039 708.992C123.079 709.68 123.871 710.672 124.415 711.968C124.975 713.264 125.255 714.808 125.255 716.6C125.255 718.392 124.975 719.936 124.415 721.232C123.871 722.528 123.079 723.52 122.039 724.208C120.999 724.896 119.767 725.24 118.343 725.24ZM118.343 723.704C119.975 723.704 121.231 723.088 122.111 721.856C123.007 720.608 123.455 718.856 123.455 716.6C123.455 714.328 123.007 712.576 122.111 711.344C121.231 710.112 119.975 709.496 118.343 709.496C116.711 709.496 115.447 710.112 114.551 711.344C113.671 712.576 113.231 714.328 113.231 716.6C113.231 718.856 113.671 720.608 114.551 721.856C115.447 723.088 116.711 723.704 118.343 723.704ZM134.753 725.24C134.481 725.24 134.265 725.16 134.105 725C133.961 724.824 133.889 724.584 133.889 724.28V713.96C133.889 713.656 133.961 713.424 134.105 713.264C134.265 713.088 134.481 713 134.753 713C135.041 713 135.257 713.088 135.401 713.264C135.561 713.44 135.641 713.672 135.641 713.96V715.328C136.073 714.608 136.625 714.04 137.297 713.624C137.985 713.208 138.705 713 139.457 713C140.209 713 140.873 713.208 141.449 713.624C142.025 714.024 142.449 714.592 142.721 715.328C143.281 714.576 143.897 714 144.569 713.6C145.257 713.2 145.969 713 146.705 713C147.969 713 148.921 713.392 149.561 714.176C150.201 714.944 150.521 716.088 150.521 717.608V724.28C150.521 724.584 150.441 724.824 150.281 725C150.121 725.16 149.905 725.24 149.633 725.24C149.057 725.24 148.769 724.92 148.769 724.28V717.56C148.769 716.536 148.593 715.776 148.241 715.28C147.905 714.768 147.321 714.512 146.489 714.512C145.785 714.512 145.153 714.728 144.593 715.16C144.033 715.576 143.585 716.184 143.249 716.984V724.28C143.249 724.584 143.169 724.824 143.009 725C142.849 725.16 142.633 725.24 142.361 725.24C142.089 725.24 141.873 725.16 141.713 725C141.569 724.824 141.497 724.584 141.497 724.28V717.92C141.497 716.816 141.297 715.976 140.897 715.4C140.513 714.808 139.961 714.512 139.241 714.512C138.553 714.512 137.937 714.704 137.393 715.088C136.849 715.456 136.417 715.968 136.097 716.624C135.793 717.28 135.641 718.024 135.641 718.856V724.28C135.641 724.568 135.561 724.8 135.401 724.976C135.257 725.152 135.041 725.24 134.753 725.24ZM160.845 725.24C160.573 725.24 160.357 725.16 160.197 725C160.053 724.824 159.981 724.584 159.981 724.28V707.744C159.981 707.44 160.053 707.208 160.197 707.048C160.357 706.872 160.573 706.784 160.845 706.784C161.117 706.784 161.333 706.872 161.493 707.048C161.653 707.208 161.733 707.44 161.733 707.744V724.28C161.733 724.568 161.653 724.8 161.493 724.976C161.349 725.152 161.133 725.24 160.845 725.24Z" fill="white"/>
<path d="M438.512 725.24C438.24 725.24 438.024 725.16 437.864 725C437.704 724.824 437.624 724.584 437.624 724.28V710.024L434.624 711.176C434.48 711.24 434.32 711.272 434.144 711.272C433.76 711.272 433.496 711.112 433.352 710.792C433.304 710.664 433.28 710.544 433.28 710.432C433.28 710.048 433.488 709.784 433.904 709.64L438.2 708.032C438.344 707.984 438.48 707.96 438.608 707.96C438.848 707.96 439.048 708.048 439.208 708.224C439.368 708.4 439.448 708.624 439.448 708.896V724.28C439.448 724.584 439.36 724.824 439.184 725C439.024 725.16 438.8 725.24 438.512 725.24ZM454.762 725.24C453.482 725.24 452.29 725 451.186 724.52C450.082 724.04 449.162 723.352 448.426 722.456C448.266 722.248 448.186 722.048 448.186 721.856C448.186 721.6 448.306 721.392 448.546 721.232C448.706 721.12 448.874 721.064 449.05 721.064C449.338 721.064 449.578 721.2 449.77 721.472C450.298 722.176 451.002 722.728 451.882 723.128C452.778 723.512 453.738 723.704 454.762 723.704C456.234 723.704 457.386 723.416 458.218 722.84C459.066 722.248 459.49 721.432 459.49 720.392C459.49 719.272 459.194 718.424 458.602 717.848C458.026 717.256 457.17 716.96 456.034 716.96H453.346C452.706 716.96 452.386 716.712 452.386 716.216C452.386 715.704 452.706 715.448 453.346 715.448H456.034C456.93 715.448 457.658 715.192 458.218 714.68C458.794 714.152 459.082 713.472 459.082 712.64C459.082 711.632 458.714 710.856 457.978 710.312C457.258 709.768 456.218 709.496 454.858 709.496C453.914 709.496 453.042 709.664 452.242 710C451.458 710.336 450.786 710.824 450.226 711.464C450.018 711.704 449.786 711.824 449.53 711.824C449.37 711.824 449.186 711.76 448.978 711.632C448.754 711.488 448.642 711.288 448.642 711.032C448.642 710.808 448.73 710.608 448.906 710.432C449.658 709.632 450.538 709.024 451.546 708.608C452.57 708.176 453.674 707.96 454.858 707.96C456.746 707.96 458.218 708.384 459.274 709.232C460.346 710.08 460.882 711.216 460.882 712.64C460.882 713.36 460.666 714.024 460.234 714.632C459.818 715.224 459.21 715.72 458.41 716.12V716.168C459.386 716.552 460.106 717.096 460.57 717.8C461.05 718.488 461.29 719.352 461.29 720.392C461.29 721.368 461.018 722.224 460.474 722.96C459.93 723.696 459.162 724.264 458.17 724.664C457.194 725.048 456.058 725.24 454.762 725.24ZM471.047 725.12C470.951 725.056 470.871 724.968 470.807 724.856C470.743 724.744 470.711 724.624 470.711 724.496C470.711 724.352 470.775 724.176 470.903 723.968L481.679 708.296C481.855 708.04 482.079 707.912 482.351 707.912C482.511 707.912 482.679 707.96 482.855 708.056C483.127 708.216 483.263 708.424 483.263 708.68C483.263 708.856 483.207 709.024 483.095 709.184L472.295 724.904C472.119 725.16 471.879 725.288 471.575 725.288C471.383 725.288 471.207 725.232 471.047 725.12ZM473.087 715.184C472.415 715.184 471.791 715.024 471.215 714.704C470.655 714.368 470.207 713.92 469.871 713.36C469.535 712.8 469.367 712.192 469.367 711.536C469.367 710.88 469.535 710.272 469.871 709.712C470.207 709.152 470.655 708.712 471.215 708.392C471.791 708.072 472.415 707.912 473.087 707.912C473.775 707.912 474.399 708.072 474.959 708.392C475.535 708.712 475.983 709.152 476.303 709.712C476.639 710.272 476.807 710.88 476.807 711.536C476.807 712.192 476.639 712.8 476.303 713.36C475.983 713.92 475.535 714.368 474.959 714.704C474.399 715.024 473.775 715.184 473.087 715.184ZM473.087 713.672C473.679 713.672 474.175 713.472 474.575 713.072C474.975 712.656 475.175 712.144 475.175 711.536C475.175 710.928 474.975 710.416 474.575 710C474.175 709.584 473.679 709.376 473.087 709.376C472.479 709.376 471.975 709.584 471.575 710C471.175 710.416 470.975 710.928 470.975 711.536C470.975 712.144 471.175 712.656 471.575 713.072C471.975 713.472 472.479 713.672 473.087 713.672ZM481.103 725.24C480.431 725.24 479.807 725.08 479.231 724.76C478.671 724.424 478.223 723.976 477.887 723.416C477.551 722.856 477.383 722.248 477.383 721.592C477.383 720.936 477.551 720.328 477.887 719.768C478.223 719.208 478.671 718.768 479.231 718.448C479.807 718.128 480.431 717.968 481.103 717.968C481.775 717.968 482.391 718.128 482.951 718.448C483.527 718.768 483.975 719.208 484.295 719.768C484.631 720.328 484.799 720.936 484.799 721.592C484.799 722.248 484.631 722.856 484.295 723.416C483.975 723.976 483.527 724.424 482.951 724.76C482.391 725.08 481.775 725.24 481.103 725.24ZM481.103 723.728C481.679 723.728 482.167 723.528 482.567 723.128C482.983 722.712 483.191 722.2 483.191 721.592C483.191 720.984 482.991 720.472 482.591 720.056C482.191 719.64 481.695 719.432 481.103 719.432C480.495 719.432 479.983 719.64 479.567 720.056C479.167 720.472 478.967 720.984 478.967 721.592C478.967 722.2 479.167 722.712 479.567 723.128C479.983 723.528 480.495 723.728 481.103 723.728ZM511.291 725.24C510.523 725.24 509.867 725.008 509.323 724.544C508.795 724.08 508.355 723.36 508.003 722.384L505.027 714.152C504.995 714.024 504.979 713.936 504.979 713.888C504.979 713.712 505.035 713.552 505.147 713.408C505.259 713.248 505.403 713.136 505.579 713.072C505.659 713.04 505.779 713.024 505.939 713.024C506.131 713.024 506.291 713.072 506.419 713.168C506.563 713.264 506.667 713.4 506.731 713.576L509.755 721.904C510.011 722.592 510.251 723.072 510.475 723.344C510.699 723.616 510.971 723.752 511.291 723.752C511.611 723.752 511.883 723.624 512.107 723.368C512.347 723.096 512.587 722.624 512.827 721.952L515.851 713.576C515.995 713.208 516.259 713.024 516.643 713.024C516.931 713.024 517.163 713.112 517.339 713.288C517.531 713.448 517.627 713.648 517.627 713.888C517.627 713.936 517.611 714.024 517.579 714.152L514.555 722.432C514.203 723.408 513.763 724.12 513.235 724.568C512.707 725.016 512.059 725.24 511.291 725.24ZM531.237 725.24C529.845 725.24 528.653 724.96 527.661 724.4C526.669 723.84 525.917 723.096 525.405 722.168C524.909 721.224 524.661 720.208 524.661 719.12C524.661 718.032 524.909 717.024 525.405 716.096C525.917 715.152 526.669 714.4 527.661 713.84C528.653 713.28 529.845 713 531.237 713C532.629 713 533.813 713.28 534.789 713.84C535.781 714.4 536.525 715.152 537.021 716.096C537.533 717.024 537.789 718.032 537.789 719.12C537.789 720.208 537.533 721.224 537.021 722.168C536.525 723.096 535.781 723.84 534.789 724.4C533.813 724.96 532.629 725.24 531.237 725.24ZM531.237 723.728C532.677 723.728 533.829 723.32 534.693 722.504C535.573 721.688 536.013 720.56 536.013 719.12C536.013 717.68 535.573 716.552 534.693 715.736C533.829 714.92 532.677 714.512 531.237 714.512C529.781 714.512 528.613 714.92 527.733 715.736C526.869 716.552 526.437 717.68 526.437 719.12C526.437 720.56 526.869 721.688 527.733 722.504C528.613 723.32 529.781 723.728 531.237 723.728ZM547.671 725.24C547.399 725.24 547.183 725.16 547.023 725C546.879 724.824 546.807 724.584 546.807 724.28V707.744C546.807 707.44 546.879 707.208 547.023 707.048C547.183 706.872 547.399 706.784 547.671 706.784C547.943 706.784 548.159 706.872 548.319 707.048C548.479 707.208 548.559 707.44 548.559 707.744V724.28C548.559 724.568 548.479 724.8 548.319 724.976C548.175 725.152 547.959 725.24 547.671 725.24ZM559.092 724.976C558.708 724.976 558.38 724.848 558.108 724.592C557.836 724.32 557.7 724.008 557.7 723.656C557.7 723.288 557.836 722.968 558.108 722.696C558.38 722.424 558.708 722.288 559.092 722.288C559.46 722.288 559.78 722.424 560.052 722.696C560.324 722.968 560.46 723.288 560.46 723.656C560.46 724.008 560.324 724.32 560.052 724.592C559.78 724.848 559.46 724.976 559.092 724.976Z" fill="white"/>
<rect x="83.5" y="74.5" width="446" height="570" stroke="white" stroke-width="7"/>
<path d="M156.57 563.36C155.538 563.36 154.71 563.024 154.086 562.352C153.462 561.68 153.018 560.636 152.754 559.22L148.83 539.024C148.782 538.784 148.758 538.616 148.758 538.52C148.758 537.8 149.166 537.44 149.982 537.44C150.486 537.44 150.846 537.548 151.062 537.764C151.278 537.98 151.422 538.304 151.494 538.736L155.31 559.292C155.43 559.964 155.586 560.432 155.778 560.696C155.97 560.936 156.246 561.056 156.606 561.056C156.99 561.056 157.278 560.924 157.47 560.66C157.662 560.372 157.806 559.928 157.902 559.328L160.746 540.788C160.914 539.684 161.262 538.856 161.79 538.304C162.342 537.728 163.038 537.44 163.878 537.44C165.606 537.44 166.638 538.556 166.974 540.788L169.818 559.328C169.914 559.952 170.058 560.396 170.25 560.66C170.442 560.924 170.73 561.056 171.114 561.056C171.45 561.056 171.714 560.924 171.906 560.66C172.122 560.396 172.29 559.94 172.41 559.292L176.226 538.736C176.298 538.28 176.442 537.956 176.658 537.764C176.898 537.548 177.258 537.44 177.738 537.44C178.554 537.44 178.962 537.8 178.962 538.52C178.962 538.616 178.938 538.784 178.89 539.024L174.966 559.22C174.702 560.564 174.27 561.596 173.67 562.316C173.094 563.012 172.254 563.36 171.15 563.36C170.118 563.36 169.302 563.024 168.702 562.352C168.126 561.68 167.73 560.648 167.514 559.256L164.706 541.076C164.634 540.596 164.526 540.26 164.382 540.068C164.262 539.852 164.094 539.744 163.878 539.744C163.638 539.744 163.446 539.852 163.302 540.068C163.182 540.26 163.086 540.596 163.014 541.076L160.206 559.256C159.99 560.648 159.582 561.68 158.982 562.352C158.406 563.024 157.602 563.36 156.57 563.36ZM193.408 563.36C193 563.36 192.676 563.24 192.436 563C192.22 562.736 192.112 562.376 192.112 561.92V537.116C192.112 536.66 192.22 536.312 192.436 536.072C192.676 535.808 193 535.676 193.408 535.676C193.816 535.676 194.14 535.808 194.38 536.072C194.62 536.312 194.74 536.66 194.74 537.116V548.564C195.628 547.388 196.696 546.5 197.944 545.9C199.216 545.3 200.596 545 202.084 545C204.364 545 206.116 545.636 207.34 546.908C208.588 548.18 209.212 550.004 209.212 552.38V561.92C209.212 562.376 209.092 562.736 208.852 563C208.612 563.24 208.288 563.36 207.88 563.36C207.448 563.36 207.124 563.24 206.908 563C206.692 562.736 206.584 562.376 206.584 561.92V552.38C206.584 548.972 204.976 547.268 201.76 547.268C199.648 547.268 197.944 547.892 196.648 549.14C195.376 550.388 194.74 552.044 194.74 554.108V561.92C194.74 562.352 194.62 562.7 194.38 562.964C194.164 563.228 193.84 563.36 193.408 563.36ZM224.667 541.184C224.139 541.184 223.683 541.016 223.299 540.68C222.939 540.32 222.759 539.888 222.759 539.384C222.759 538.88 222.939 538.448 223.299 538.088C223.683 537.728 224.139 537.548 224.667 537.548C225.195 537.548 225.651 537.74 226.035 538.124C226.443 538.484 226.647 538.904 226.647 539.384C226.647 539.864 226.443 540.284 226.035 540.644C225.651 541.004 225.195 541.184 224.667 541.184ZM224.667 563.36C224.259 563.36 223.935 563.24 223.695 563C223.479 562.736 223.371 562.376 223.371 561.92V546.44C223.371 545.984 223.479 545.636 223.695 545.396C223.935 545.132 224.259 545 224.667 545C225.099 545 225.423 545.132 225.639 545.396C225.879 545.636 225.999 545.984 225.999 546.44V561.92C225.999 562.376 225.879 562.736 225.639 563C225.423 563.24 225.099 563.36 224.667 563.36ZM252.387 559.436C252.651 559.652 252.783 559.904 252.783 560.192C252.783 560.432 252.675 560.72 252.459 561.056C251.955 561.752 251.259 562.316 250.371 562.748C249.483 563.156 248.571 563.36 247.635 563.36C246.051 563.36 244.803 562.892 243.891 561.956C242.979 561.02 242.523 559.736 242.523 558.104V547.556H240.579C239.619 547.556 239.139 547.184 239.139 546.44C239.139 546.104 239.259 545.84 239.499 545.648C239.763 545.456 240.123 545.36 240.579 545.36H242.523V539.204C242.523 538.748 242.631 538.4 242.847 538.16C243.087 537.896 243.423 537.764 243.855 537.764C244.263 537.764 244.575 537.896 244.791 538.16C245.031 538.4 245.151 538.748 245.151 539.204V545.36H250.047C250.479 545.36 250.815 545.456 251.055 545.648C251.319 545.816 251.451 546.08 251.451 546.44C251.451 547.184 250.983 547.556 250.047 547.556H245.151V558.32C245.151 560.168 246.015 561.092 247.743 561.092C248.295 561.092 248.799 560.984 249.255 560.768C249.711 560.552 250.167 560.204 250.623 559.724C250.983 559.34 251.331 559.148 251.667 559.148C251.883 559.148 252.123 559.244 252.387 559.436ZM274.101 563.36C270.981 563.36 268.569 562.556 266.865 560.948C265.161 559.34 264.309 557.06 264.309 554.108C264.309 551.276 265.173 549.056 266.901 547.448C268.629 545.816 270.993 545 273.993 545C275.841 545 277.485 545.3 278.925 545.9C280.365 546.476 281.481 547.304 282.273 548.384C283.089 549.44 283.497 550.652 283.497 552.02C283.497 553.028 283.209 553.808 282.633 554.36C282.081 554.912 281.313 555.188 280.329 555.188H267.009C267.009 557.036 267.633 558.488 268.881 559.544C270.129 560.576 271.869 561.092 274.101 561.092C275.469 561.092 276.645 560.948 277.629 560.66C278.613 560.348 279.537 559.856 280.401 559.184C280.857 558.8 281.229 558.608 281.517 558.608C281.733 558.608 281.937 558.704 282.129 558.896C282.465 559.184 282.633 559.484 282.633 559.796C282.633 560.036 282.489 560.3 282.201 560.588C281.217 561.524 280.065 562.22 278.745 562.676C277.425 563.132 275.877 563.36 274.101 563.36ZM279.537 553.064C279.969 553.064 280.293 552.98 280.509 552.812C280.725 552.62 280.833 552.284 280.833 551.804C280.833 550.94 280.545 550.16 279.969 549.464C279.393 548.768 278.577 548.228 277.521 547.844C276.489 547.46 275.313 547.268 273.993 547.268C271.857 547.268 270.165 547.796 268.917 548.852C267.693 549.884 267.081 551.288 267.081 553.064H279.537ZM325.103 563.36C322.799 563.36 320.675 562.976 318.731 562.208C316.811 561.416 315.311 560.336 314.231 558.968C314.039 558.728 313.943 558.476 313.943 558.212C313.943 557.876 314.123 557.552 314.483 557.24C314.675 557.096 314.879 557.024 315.095 557.024C315.527 557.024 315.911 557.228 316.247 557.636C317.231 558.716 318.467 559.556 319.955 560.156C321.467 560.732 323.183 561.02 325.103 561.02C327.215 561.02 328.847 560.636 329.999 559.868C331.151 559.076 331.727 557.96 331.727 556.52C331.727 555.272 331.163 554.264 330.035 553.496C328.931 552.728 327.047 552.044 324.383 551.444C320.903 550.676 318.395 549.716 316.859 548.564C315.347 547.388 314.591 545.84 314.591 543.92C314.591 541.928 315.431 540.356 317.111 539.204C318.815 538.028 321.107 537.44 323.987 537.44C326.171 537.44 328.139 537.824 329.891 538.592C331.667 539.36 332.927 540.392 333.671 541.688C333.815 541.928 333.887 542.156 333.887 542.372C333.887 542.756 333.683 543.092 333.275 543.38C333.107 543.476 332.915 543.524 332.699 543.524C332.171 543.524 331.763 543.32 331.475 542.912C330.779 541.904 329.795 541.136 328.523 540.608C327.251 540.056 325.739 539.78 323.987 539.78C319.547 539.78 317.327 541.16 317.327 543.92C317.327 544.76 317.555 545.468 318.011 546.044C318.467 546.596 319.199 547.1 320.207 547.556C321.239 547.988 322.667 548.42 324.491 548.852C328.043 549.692 330.599 550.712 332.159 551.912C333.719 553.088 334.499 554.624 334.499 556.52C334.499 558.632 333.647 560.3 331.943 561.524C330.263 562.748 327.983 563.36 325.103 563.36ZM352.75 563.36C351.838 563.36 351.046 563.072 350.374 562.496C349.702 561.896 349.27 561.104 349.078 560.12L346.342 546.332C346.27 545.948 346.354 545.636 346.594 545.396C346.834 545.132 347.158 545 347.566 545C348.046 545 348.394 545.084 348.61 545.252C348.85 545.396 349.006 545.672 349.078 546.08L351.67 559.832C351.814 560.672 352.174 561.092 352.75 561.092C353.086 561.092 353.338 560.996 353.506 560.804C353.674 560.612 353.794 560.288 353.866 559.832L355.81 547.7C355.93 546.908 356.266 546.26 356.818 545.756C357.37 545.252 358.018 545 358.762 545C359.506 545 360.154 545.252 360.706 545.756C361.282 546.26 361.63 546.908 361.75 547.7L363.658 559.832C363.73 560.288 363.85 560.612 364.018 560.804C364.21 560.996 364.474 561.092 364.81 561.092C365.386 561.092 365.746 560.672 365.89 559.832L368.446 546.08C368.518 545.672 368.662 545.396 368.878 545.252C369.118 545.084 369.478 545 369.958 545C370.414 545 370.75 545.132 370.966 545.396C371.206 545.66 371.29 545.972 371.218 546.332L368.446 560.12C368.23 561.128 367.786 561.92 367.114 562.496C366.442 563.072 365.674 563.36 364.81 563.36C362.866 563.36 361.714 562.256 361.354 560.048L359.446 548.204C359.326 547.58 359.098 547.268 358.762 547.268C358.402 547.268 358.174 547.58 358.078 548.204L356.17 560.048C355.81 562.256 354.67 563.36 352.75 563.36ZM391.665 563.36C388.545 563.36 386.133 562.556 384.429 560.948C382.725 559.34 381.873 557.06 381.873 554.108C381.873 551.276 382.737 549.056 384.465 547.448C386.193 545.816 388.557 545 391.557 545C393.405 545 395.049 545.3 396.489 545.9C397.929 546.476 399.045 547.304 399.837 548.384C400.653 549.44 401.061 550.652 401.061 552.02C401.061 553.028 400.773 553.808 400.197 554.36C399.645 554.912 398.877 555.188 397.893 555.188H384.573C384.573 557.036 385.197 558.488 386.445 559.544C387.693 560.576 389.433 561.092 391.665 561.092C393.033 561.092 394.209 560.948 395.193 560.66C396.177 560.348 397.101 559.856 397.965 559.184C398.421 558.8 398.793 558.608 399.081 558.608C399.297 558.608 399.501 558.704 399.693 558.896C400.029 559.184 400.197 559.484 400.197 559.796C400.197 560.036 400.053 560.3 399.765 560.588C398.781 561.524 397.629 562.22 396.309 562.676C394.989 563.132 393.441 563.36 391.665 563.36ZM397.101 553.064C397.533 553.064 397.857 552.98 398.073 552.812C398.289 552.62 398.397 552.284 398.397 551.804C398.397 550.94 398.109 550.16 397.533 549.464C396.957 548.768 396.141 548.228 395.085 547.844C394.053 547.46 392.877 547.268 391.557 547.268C389.421 547.268 387.729 547.796 386.481 548.852C385.257 549.884 384.645 551.288 384.645 553.064H397.101ZM422.594 563.36C419.474 563.36 417.062 562.556 415.358 560.948C413.654 559.34 412.802 557.06 412.802 554.108C412.802 551.276 413.666 549.056 415.394 547.448C417.122 545.816 419.486 545 422.486 545C424.334 545 425.978 545.3 427.418 545.9C428.858 546.476 429.974 547.304 430.766 548.384C431.582 549.44 431.99 550.652 431.99 552.02C431.99 553.028 431.702 553.808 431.126 554.36C430.574 554.912 429.806 555.188 428.822 555.188H415.502C415.502 557.036 416.126 558.488 417.374 559.544C418.622 560.576 420.362 561.092 422.594 561.092C423.962 561.092 425.138 560.948 426.122 560.66C427.106 560.348 428.03 559.856 428.894 559.184C429.35 558.8 429.722 558.608 430.01 558.608C430.226 558.608 430.43 558.704 430.622 558.896C430.958 559.184 431.126 559.484 431.126 559.796C431.126 560.036 430.982 560.3 430.694 560.588C429.71 561.524 428.558 562.22 427.238 562.676C425.918 563.132 424.37 563.36 422.594 563.36ZM428.03 553.064C428.462 553.064 428.786 552.98 429.002 552.812C429.218 552.62 429.326 552.284 429.326 551.804C429.326 550.94 429.038 550.16 428.462 549.464C427.886 548.768 427.07 548.228 426.014 547.844C424.982 547.46 423.806 547.268 422.486 547.268C420.35 547.268 418.658 547.796 417.41 548.852C416.186 549.884 415.574 551.288 415.574 553.064H428.03ZM455.813 559.436C456.077 559.652 456.209 559.904 456.209 560.192C456.209 560.432 456.101 560.72 455.885 561.056C455.381 561.752 454.685 562.316 453.797 562.748C452.909 563.156 451.997 563.36 451.061 563.36C449.477 563.36 448.229 562.892 447.317 561.956C446.405 561.02 445.949 559.736 445.949 558.104V547.556H444.005C443.045 547.556 442.565 547.184 442.565 546.44C442.565 546.104 442.685 545.84 442.925 545.648C443.189 545.456 443.549 545.36 444.005 545.36H445.949V539.204C445.949 538.748 446.057 538.4 446.273 538.16C446.513 537.896 446.849 537.764 447.281 537.764C447.689 537.764 448.001 537.896 448.217 538.16C448.457 538.4 448.577 538.748 448.577 539.204V545.36H453.473C453.905 545.36 454.241 545.456 454.481 545.648C454.745 545.816 454.877 546.08 454.877 546.44C454.877 547.184 454.409 547.556 453.473 547.556H448.577V558.32C448.577 560.168 449.441 561.092 451.169 561.092C451.721 561.092 452.225 560.984 452.681 560.768C453.137 560.552 453.593 560.204 454.049 559.724C454.409 559.34 454.757 559.148 455.093 559.148C455.309 559.148 455.549 559.244 455.813 559.436ZM179.42 610.36C176.876 610.36 174.656 609.832 172.76 608.776C170.864 607.72 169.4 606.22 168.368 604.276C167.336 602.308 166.82 600.028 166.82 597.436C166.82 594.844 167.336 592.564 168.368 590.596C169.4 588.628 170.864 587.116 172.76 586.06C174.68 584.98 176.9 584.44 179.42 584.44C181.46 584.44 183.356 584.788 185.108 585.484C186.884 586.18 188.24 587.14 189.176 588.364C189.392 588.604 189.5 588.892 189.5 589.228C189.5 589.612 189.332 589.912 188.996 590.128C188.78 590.272 188.54 590.344 188.276 590.344C188.06 590.344 187.844 590.296 187.628 590.2C187.412 590.08 187.232 589.936 187.088 589.768C186.344 588.832 185.312 588.1 183.992 587.572C182.672 587.02 181.148 586.744 179.42 586.744C177.404 586.744 175.652 587.176 174.164 588.04C172.676 588.904 171.536 590.14 170.744 591.748C169.952 593.356 169.556 595.252 169.556 597.436C169.556 600.748 170.432 603.352 172.184 605.248C173.936 607.12 176.348 608.056 179.42 608.056C181.028 608.056 182.456 607.804 183.704 607.3C184.952 606.772 185.924 606.052 186.62 605.14C187.34 604.204 187.7 603.148 187.7 601.972V600.748C187.7 600.1 187.568 599.632 187.304 599.344C187.064 599.056 186.596 598.912 185.9 598.912H180.428C179.516 598.912 179.06 598.552 179.06 597.832C179.06 597.064 179.516 596.68 180.428 596.68H186.368C187.736 596.68 188.756 596.98 189.428 597.58C190.1 598.18 190.436 599.104 190.436 600.352V601.72C190.436 603.328 189.956 604.792 188.996 606.112C188.036 607.432 186.716 608.476 185.036 609.244C183.356 609.988 181.484 610.36 179.42 610.36ZM204.86 610.36C204.452 610.36 204.128 610.24 203.888 610C203.672 609.736 203.564 609.376 203.564 608.92V593.44C203.564 592.984 203.672 592.636 203.888 592.396C204.104 592.132 204.428 592 204.86 592C205.268 592 205.58 592.132 205.796 592.396C206.036 592.636 206.156 592.984 206.156 593.44V595.6C207.788 593.44 210.044 592.36 212.924 592.36H213.824C214.28 592.36 214.64 592.468 214.904 592.684C215.168 592.876 215.3 593.152 215.3 593.512C215.3 593.872 215.168 594.148 214.904 594.34C214.64 594.532 214.28 594.628 213.824 594.628H212.816C210.776 594.628 209.156 595.216 207.956 596.392C206.78 597.544 206.192 599.116 206.192 601.108V608.92C206.192 609.352 206.072 609.7 205.832 609.964C205.616 610.228 205.292 610.36 204.86 610.36ZM232.678 610.36C230.326 610.36 228.478 609.844 227.134 608.812C225.814 607.78 225.154 606.352 225.154 604.528C225.154 602.728 225.85 601.3 227.242 600.244C228.658 599.188 230.578 598.66 233.002 598.66C234.418 598.66 235.666 598.852 236.746 599.236C237.85 599.62 238.702 600.136 239.302 600.784V598.48C239.302 597.112 238.846 596.068 237.934 595.348C237.046 594.628 235.738 594.268 234.01 594.268C231.778 594.268 229.846 594.796 228.214 595.852C227.806 596.092 227.47 596.212 227.206 596.212C226.966 596.212 226.726 596.116 226.486 595.924C226.222 595.708 226.09 595.432 226.09 595.096C226.09 594.736 226.246 594.436 226.558 594.196C227.422 593.524 228.514 592.996 229.834 592.612C231.178 592.204 232.546 592 233.938 592C236.482 592 238.45 592.576 239.842 593.728C241.258 594.88 241.966 596.5 241.966 598.588V608.956C241.966 609.892 241.534 610.36 240.67 610.36C240.286 610.36 239.974 610.24 239.734 610C239.494 609.736 239.374 609.4 239.374 608.992V607.696C237.886 609.472 235.654 610.36 232.678 610.36ZM233.002 608.164C234.874 608.164 236.398 607.816 237.574 607.12C238.75 606.4 239.338 605.476 239.338 604.348C239.338 603.22 238.786 602.356 237.682 601.756C236.602 601.132 235.066 600.82 233.074 600.82C231.394 600.82 230.098 601.144 229.186 601.792C228.274 602.416 227.818 603.328 227.818 604.528C227.818 605.704 228.262 606.604 229.15 607.228C230.038 607.852 231.322 608.164 233.002 608.164ZM256.732 620.764C256.324 620.764 256 620.632 255.76 620.368C255.544 620.128 255.436 619.78 255.436 619.324V593.44C255.436 592.984 255.544 592.636 255.76 592.396C256 592.132 256.324 592 256.732 592C257.164 592 257.488 592.132 257.704 592.396C257.944 592.66 258.064 593.008 258.064 593.44V595.744C259.912 593.248 262.576 592 266.056 592C268.96 592 271.24 592.804 272.896 594.412C274.576 596.02 275.416 598.228 275.416 601.036C275.416 602.932 275.032 604.588 274.264 606.004C273.496 607.396 272.392 608.476 270.952 609.244C269.536 609.988 267.868 610.36 265.948 610.36C264.292 610.36 262.828 610.072 261.556 609.496C260.308 608.896 259.156 607.96 258.1 606.688V619.324C258.1 619.756 257.98 620.104 257.74 620.368C257.5 620.632 257.164 620.764 256.732 620.764ZM265.768 608.092C267.952 608.092 269.656 607.468 270.88 606.22C272.128 604.948 272.752 603.196 272.752 600.964C272.752 598.804 272.14 597.148 270.916 595.996C269.716 594.844 267.988 594.268 265.732 594.268C263.356 594.268 261.484 594.88 260.116 596.104C258.748 597.304 258.064 598.948 258.064 601.036C258.064 602.428 258.376 603.664 259 604.744C259.648 605.8 260.548 606.628 261.7 607.228C262.876 607.804 264.232 608.092 265.768 608.092ZM296.944 610.36C293.824 610.36 291.412 609.556 289.708 607.948C288.004 606.34 287.152 604.06 287.152 601.108C287.152 598.276 288.016 596.056 289.744 594.448C291.472 592.816 293.836 592 296.836 592C298.684 592 300.328 592.3 301.768 592.9C303.208 593.476 304.324 594.304 305.116 595.384C305.932 596.44 306.34 597.652 306.34 599.02C306.34 600.028 306.052 600.808 305.476 601.36C304.924 601.912 304.156 602.188 303.172 602.188H289.852C289.852 604.036 290.476 605.488 291.724 606.544C292.972 607.576 294.712 608.092 296.944 608.092C298.312 608.092 299.488 607.948 300.472 607.66C301.456 607.348 302.38 606.856 303.244 606.184C303.7 605.8 304.072 605.608 304.36 605.608C304.576 605.608 304.78 605.704 304.972 605.896C305.308 606.184 305.476 606.484 305.476 606.796C305.476 607.036 305.332 607.3 305.044 607.588C304.06 608.524 302.908 609.22 301.588 609.676C300.268 610.132 298.72 610.36 296.944 610.36ZM302.38 600.064C302.812 600.064 303.136 599.98 303.352 599.812C303.568 599.62 303.676 599.284 303.676 598.804C303.676 597.94 303.388 597.16 302.812 596.464C302.236 595.768 301.42 595.228 300.364 594.844C299.332 594.46 298.156 594.268 296.836 594.268C294.7 594.268 293.008 594.796 291.76 595.852C290.536 596.884 289.924 598.288 289.924 600.064H302.38ZM344.562 610.36C343.53 610.36 342.702 610.024 342.078 609.352C341.454 608.68 341.01 607.636 340.746 606.22L336.822 586.024C336.774 585.784 336.75 585.616 336.75 585.52C336.75 584.8 337.158 584.44 337.974 584.44C338.478 584.44 338.838 584.548 339.054 584.764C339.27 584.98 339.414 585.304 339.486 585.736L343.302 606.292C343.422 606.964 343.578 607.432 343.77 607.696C343.962 607.936 344.238 608.056 344.598 608.056C344.982 608.056 345.27 607.924 345.462 607.66C345.654 607.372 345.798 606.928 345.894 606.328L348.738 587.788C348.906 586.684 349.254 585.856 349.782 585.304C350.334 584.728 351.03 584.44 351.87 584.44C353.598 584.44 354.63 585.556 354.966 587.788L357.81 606.328C357.906 606.952 358.05 607.396 358.242 607.66C358.434 607.924 358.722 608.056 359.106 608.056C359.442 608.056 359.706 607.924 359.898 607.66C360.114 607.396 360.282 606.94 360.402 606.292L364.218 585.736C364.29 585.28 364.434 584.956 364.65 584.764C364.89 584.548 365.25 584.44 365.73 584.44C366.546 584.44 366.954 584.8 366.954 585.52C366.954 585.616 366.93 585.784 366.882 586.024L362.958 606.22C362.694 607.564 362.262 608.596 361.662 609.316C361.086 610.012 360.246 610.36 359.142 610.36C358.11 610.36 357.294 610.024 356.694 609.352C356.118 608.68 355.722 607.648 355.506 606.256L352.698 588.076C352.626 587.596 352.518 587.26 352.374 587.068C352.254 586.852 352.086 586.744 351.87 586.744C351.63 586.744 351.438 586.852 351.294 587.068C351.174 587.26 351.078 587.596 351.006 588.076L348.198 606.256C347.982 607.648 347.574 608.68 346.974 609.352C346.398 610.024 345.594 610.36 344.562 610.36ZM382.011 588.184C381.483 588.184 381.027 588.016 380.643 587.68C380.283 587.32 380.103 586.888 380.103 586.384C380.103 585.88 380.283 585.448 380.643 585.088C381.027 584.728 381.483 584.548 382.011 584.548C382.539 584.548 382.995 584.74 383.379 585.124C383.787 585.484 383.991 585.904 383.991 586.384C383.991 586.864 383.787 587.284 383.379 587.644C382.995 588.004 382.539 588.184 382.011 588.184ZM382.011 610.36C381.603 610.36 381.279 610.24 381.039 610C380.823 609.736 380.715 609.376 380.715 608.92V593.44C380.715 592.984 380.823 592.636 381.039 592.396C381.279 592.132 381.603 592 382.011 592C382.443 592 382.767 592.132 382.983 592.396C383.223 592.636 383.343 592.984 383.343 593.44V608.92C383.343 609.376 383.223 609.736 382.983 610C382.767 610.24 382.443 610.36 382.011 610.36ZM399.039 610.36C398.631 610.36 398.307 610.24 398.067 610C397.851 609.736 397.743 609.376 397.743 608.92V593.44C397.743 592.984 397.851 592.636 398.067 592.396C398.283 592.132 398.607 592 399.039 592C399.447 592 399.759 592.132 399.975 592.396C400.215 592.636 400.335 592.984 400.335 593.44V595.564C401.223 594.388 402.291 593.5 403.539 592.9C404.811 592.3 406.203 592 407.715 592C409.995 592 411.747 592.636 412.971 593.908C414.219 595.18 414.843 597.004 414.843 599.38V608.92C414.843 609.376 414.723 609.736 414.483 610C414.243 610.24 413.919 610.36 413.511 610.36C413.079 610.36 412.755 610.24 412.539 610C412.323 609.736 412.215 609.376 412.215 608.92V599.38C412.215 595.972 410.607 594.268 407.391 594.268C405.279 594.268 403.575 594.892 402.279 596.14C401.007 597.388 400.371 599.044 400.371 601.108V608.92C400.371 609.352 400.251 609.7 400.011 609.964C399.795 610.228 399.471 610.36 399.039 610.36ZM437.175 610.36C434.055 610.36 431.643 609.556 429.939 607.948C428.235 606.34 427.383 604.06 427.383 601.108C427.383 598.276 428.247 596.056 429.975 594.448C431.703 592.816 434.067 592 437.067 592C438.915 592 440.559 592.3 441.999 592.9C443.439 593.476 444.555 594.304 445.347 595.384C446.163 596.44 446.571 597.652 446.571 599.02C446.571 600.028 446.283 600.808 445.707 601.36C445.155 601.912 444.387 602.188 443.403 602.188H430.083C430.083 604.036 430.707 605.488 431.955 606.544C433.203 607.576 434.943 608.092 437.175 608.092C438.543 608.092 439.719 607.948 440.703 607.66C441.687 607.348 442.611 606.856 443.475 606.184C443.931 605.8 444.303 605.608 444.591 605.608C444.807 605.608 445.011 605.704 445.203 605.896C445.539 606.184 445.707 606.484 445.707 606.796C445.707 607.036 445.563 607.3 445.275 607.588C444.291 608.524 443.139 609.22 441.819 609.676C440.499 610.132 438.951 610.36 437.175 610.36ZM442.611 600.064C443.043 600.064 443.367 599.98 443.583 599.812C443.799 599.62 443.907 599.284 443.907 598.804C443.907 597.94 443.619 597.16 443.043 596.464C442.467 595.768 441.651 595.228 440.595 594.844C439.563 594.46 438.387 594.268 437.067 594.268C434.931 594.268 433.239 594.796 431.991 595.852C430.767 596.884 430.155 598.288 430.155 600.064H442.611Z" fill="white"/>
<path d="M107.882 391.826C99.4782 391.826 91.7876 390.558 84.8105 388.02C77.6749 385.641 72.0457 381.439 67.9229 375.412C63.8 369.386 61.7386 361.06 61.7386 350.434C61.7386 340.919 64.5136 331.8 70.0636 323.077C75.4549 314.355 82.5113 306.266 91.2326 298.813C99.9539 291.2 109.072 284.619 118.586 279.068C125.246 275.262 132.144 271.773 139.279 268.601C146.415 265.429 153.63 262.733 160.924 260.513C151.885 252.425 145.067 242.988 140.468 232.204C136.029 221.42 133.809 210.319 133.809 198.9C133.809 188.433 135.632 178.204 139.279 168.213C143.085 158.221 148.714 149.102 156.167 140.856C163.62 132.45 172.817 125.631 183.758 120.397C192.955 116.115 201.914 113.102 210.636 111.358C219.515 109.613 228.316 108.741 237.037 108.741C247.186 108.741 257.255 109.772 267.245 111.834C277.393 113.737 287.621 115.957 297.928 118.494C308.394 120.873 319.018 122.697 329.801 123.966L333.844 124.442C339.87 119.049 345.737 115.005 351.445 112.309C357.312 109.455 362.942 108.027 368.333 108.027C370.553 108.027 372.694 108.265 374.755 108.741L375.707 108.979L376.182 109.455C377.451 110.089 378.085 111.12 378.085 112.547C378.085 114.292 377.134 116.274 375.231 118.494C373.487 120.715 371.425 122.697 369.047 124.442C366.668 126.186 364.527 127.217 362.625 127.534C355.648 128.803 348.274 129.279 340.504 128.961C334.161 135.939 327.898 144.265 321.714 153.94C315.529 163.455 309.9 172.97 304.826 182.486C312.754 187.244 318.701 193.112 322.665 200.09C326.788 206.909 328.849 214.046 328.849 221.499C328.849 231.649 325.044 241.64 317.432 251.473C309.979 261.306 298.483 269.156 282.943 275.024C288.81 281.843 291.744 289.694 291.744 298.575C291.744 306.346 289.92 313.007 286.273 318.557C282.785 324.267 278.028 328.945 272.002 332.593C265.976 336.399 259.158 339.174 251.547 340.919C244.094 342.822 236.403 343.773 228.475 343.773C225.145 343.773 221.735 343.615 218.247 343.297C214.917 342.98 211.666 342.504 208.495 341.87C196.602 354.24 184.075 364.707 170.914 373.271C157.753 381.994 144.195 387.465 130.241 389.685C126.435 390.32 122.629 390.796 118.824 391.113C115.177 391.589 111.53 391.826 107.882 391.826ZM344.072 125.155C349.622 125.155 355.172 124.759 360.722 123.966C366.43 123.173 370.791 121.666 373.804 119.446C374.597 118.97 375.31 118.256 375.944 117.305C376.579 116.353 376.896 115.402 376.896 114.45C376.896 113.182 376.182 112.23 374.755 111.596C373.169 111.12 371.504 110.882 369.76 110.882C365.796 110.882 361.594 112.151 357.154 114.688C352.873 117.226 348.512 120.715 344.072 125.155ZM165.681 259.086C180.428 254.804 195.413 252.663 210.636 252.663C225.383 252.663 237.91 253.931 248.217 256.469C252.815 248.063 257.017 240.213 260.823 232.918C264.787 225.623 268.276 219.2 271.288 213.649C277.473 201.755 283.657 190.812 289.841 180.821C281.754 177.49 272.081 175.825 260.823 175.825C248.296 175.825 237.275 178.363 227.761 183.437C218.405 188.354 211.666 194.301 207.543 201.279C204.848 205.878 203.5 210.636 203.5 215.552C203.5 220.627 205.165 225.702 208.495 230.777C211.825 235.852 217.216 240.292 224.669 244.099C225.303 244.574 225.62 245.05 225.62 245.526C225.62 245.843 225.303 246.16 224.669 246.477C224.193 246.636 223.559 246.557 222.766 246.24C214.679 242.116 208.733 237.358 204.927 231.966C201.28 226.574 199.456 221.024 199.456 215.314C199.456 209.764 201.042 204.451 204.214 199.376C208.812 191.605 216.106 185.103 226.096 179.869C236.245 174.477 247.82 171.781 260.823 171.781C266.849 171.781 272.478 172.257 277.711 173.208C282.943 174.001 287.78 175.191 292.22 176.777C298.721 166.468 305.143 157.27 311.486 149.182C317.829 140.935 324.013 133.878 330.039 128.01L329.087 127.772C314.499 124.124 300.624 121.19 287.463 118.97C274.301 116.591 261.219 115.402 248.217 115.402C239.495 115.402 230.536 116.353 221.339 118.256C212.301 120.16 202.866 123.411 193.034 128.01C182.093 133.085 172.817 139.825 165.205 148.23C157.753 156.477 152.044 165.596 148.08 175.587C144.274 185.578 142.371 195.649 142.371 205.799C142.371 215.79 144.274 225.464 148.08 234.821C152.044 244.019 157.911 252.107 165.681 259.086ZM279.138 270.98C292.775 265.429 302.844 258.055 309.345 248.856C316.005 239.658 319.335 230.38 319.335 221.024C319.335 214.68 317.829 208.653 314.816 202.944C311.962 197.076 307.68 192.001 301.972 187.719C297.532 196.125 293.647 203.896 290.317 211.032C286.987 218.169 284.45 223.799 282.705 227.922C277.948 238.865 272.319 250.363 265.818 262.416C268.513 263.526 270.971 264.874 273.191 266.46C275.411 267.887 277.393 269.394 279.138 270.98ZM231.805 279.782H234.421C236.482 276.451 238.465 273.121 240.367 269.79C242.429 266.46 244.332 263.209 246.076 260.037C236.403 257.658 224.59 256.469 210.636 256.469C203.817 256.469 196.999 257.024 190.18 258.134C183.52 259.244 176.86 260.751 170.2 262.654C177.494 268.046 186.216 272.249 196.364 275.262C206.671 278.275 218.485 279.782 231.805 279.782ZM112.164 388.258C119.617 388.258 127.386 386.989 135.474 384.452C145.305 381.28 155.136 375.491 164.968 367.086C174.957 358.839 184.63 349.086 193.986 337.826C186.692 334.813 180.349 330.927 174.957 326.17C169.566 321.412 166.87 315.703 166.87 309.042V308.566C166.87 307.456 167.425 306.901 168.535 306.901C169.487 306.901 170.042 307.456 170.2 308.566C170.993 314.91 173.768 320.302 178.525 324.742C183.282 329.183 189.149 332.672 196.126 335.209C202.628 327.28 208.891 318.874 214.917 309.993C220.943 301.112 226.651 292.31 232.042 283.588H231.805C217.692 283.588 205.086 281.923 193.986 278.592C182.886 275.103 173.372 270.266 165.443 264.081C157.673 266.619 149.903 269.711 142.133 273.359C134.522 276.848 127.149 280.654 120.013 284.777C102.253 295.244 89.4091 306.346 81.4806 318.081C73.3935 329.817 69.35 340.76 69.35 350.91C69.35 361.535 73.2349 370.417 81.0049 377.553C88.7748 384.69 99.1611 388.258 112.164 388.258ZM257.017 277.403C260.189 276.768 263.201 276.134 266.056 275.5C269.068 274.707 271.843 273.834 274.381 272.883C271.368 270.187 267.879 267.887 263.915 265.984C262.805 267.887 261.695 269.79 260.585 271.694C259.475 273.597 258.286 275.5 257.017 277.403ZM225.62 339.967C233.232 339.967 240.605 339.095 247.741 337.35C255.035 335.764 261.616 333.227 267.483 329.738C273.35 326.407 278.028 322.126 281.516 316.892C285.005 311.658 286.749 305.553 286.749 298.575C286.749 294.61 286.035 290.804 284.608 287.156C283.34 283.35 281.278 279.861 278.424 276.689C271.288 278.909 263.281 280.654 254.401 281.923C248.058 292.072 241.24 301.984 233.945 311.658C226.81 321.333 219.278 330.452 211.349 339.015C213.728 339.333 216.106 339.571 218.485 339.729C220.863 339.888 223.242 339.967 225.62 339.967ZM340.69 275.381V275.262C339.105 276.055 337.36 277.958 335.458 280.971C333.555 283.905 332.445 286.442 332.128 288.583C337.836 282.716 340.69 278.315 340.69 275.381ZM315.359 300.24C318.372 300.24 323.248 297.068 329.987 290.724V290.13C329.987 287.672 331.176 284.658 333.555 281.09C336.013 277.442 338.233 275.103 340.215 274.072C339.977 273.834 339.66 273.716 339.263 273.716C336.33 273.716 331.454 277.086 324.635 283.826C317.896 290.566 314.526 295.799 314.526 299.526C314.526 300.002 314.804 300.24 315.359 300.24ZM311.672 298.575C311.672 292.628 315.081 286.72 321.9 280.852C328.798 274.905 334.506 271.931 339.025 271.931C341.245 271.931 342.355 272.923 342.355 274.905C342.355 280.535 339.343 286.165 333.317 291.795C333.793 291.954 334.268 292.033 334.744 292.033C336.964 292.033 340.175 290.645 344.377 287.87L344.972 289.059C339.898 292.469 336.052 294.174 333.436 294.174C332.405 294.174 331.652 293.976 331.176 293.579C328.084 296.117 324.833 298.178 321.424 299.764C318.015 301.35 315.517 302.143 313.932 302.143C312.425 302.143 311.672 300.954 311.672 298.575ZM340.737 289.535C340.341 289.773 339.865 290.09 339.31 290.487L338.953 289.059C347.912 283.35 355.207 278.909 360.836 275.738L364.047 273.834C365.236 272.883 366.544 271.773 367.972 270.504C370.984 268.125 372.57 266.975 372.729 267.055C373.125 267.055 373.323 267.253 373.323 267.649C373.323 267.967 373.006 268.561 372.372 269.434C371.738 270.227 370.826 271.178 369.637 272.288C368.527 273.398 367.853 274.112 367.615 274.429C366.426 275.619 364.443 279.425 361.668 285.848C358.973 292.191 357.506 295.601 357.268 296.077C357.268 296.394 357.347 296.553 357.506 296.553C357.744 296.553 357.902 296.513 357.982 296.434L371.302 287.989L371.42 289.535C370.469 290.09 368.883 291.081 366.663 292.509C364.443 293.936 362.858 294.927 361.906 295.482C361.034 296.037 359.726 296.87 357.982 297.98C356.237 299.011 354.89 299.764 353.938 300.24C352.987 300.716 351.877 301.271 350.608 301.905C347.357 302.857 345.296 303.332 344.424 303.332C344.345 303.332 344.305 303.332 344.305 303.332C342.164 303.332 340.42 302.698 339.072 301.429C337.724 300.161 337.05 298.694 337.05 297.028C337.05 295.363 337.605 293.936 338.715 292.746C339.905 291.557 341.292 290.962 342.878 290.962C344.464 290.962 345.256 291.597 345.256 292.865C345.256 293.579 344.979 294.253 344.424 294.887C343.948 295.522 343.314 295.839 342.521 295.839C341.808 295.839 341.371 295.482 341.213 294.769C341.134 294.055 340.935 293.698 340.618 293.698C340.063 293.698 339.588 293.976 339.191 294.531C338.874 295.086 338.715 295.879 338.715 296.91C338.715 297.94 339.191 298.971 340.143 300.002C341.094 300.954 342.442 301.429 344.186 301.429C345.93 301.429 347.556 300.795 349.062 299.526C350.648 298.258 351.718 297.147 352.273 296.196C352.828 295.244 354.017 292.588 355.841 288.227C357.665 283.786 359.567 280.297 361.549 277.76L361.787 277.284C361.787 277.205 361.668 277.165 361.431 277.165C360.796 277.165 355.524 280.257 345.613 286.442L340.737 289.535ZM393.638 271.575C393.638 271.337 393.479 271.218 393.162 271.218C391.021 271.218 387.691 273.081 383.172 276.808C378.653 280.535 374.728 284.619 371.398 289.059C375.362 287.791 380.04 284.936 385.432 280.495C390.902 276.055 393.638 273.081 393.638 271.575ZM366.165 299.645C366.165 300.676 366.562 301.191 367.355 301.191C368.306 301.191 370.447 300.557 373.777 299.288C377.107 297.94 379.842 296.632 381.983 295.363L393.638 287.989L393.757 289.535C385.432 295.086 379.208 298.614 375.085 300.121C371.041 301.628 368.346 302.381 366.998 302.381C364.778 302.381 363.668 300.993 363.668 298.218C363.668 294.491 365.016 290.764 367.711 287.037C370.407 283.31 373.539 280.257 377.107 277.879C380.754 275.5 384.242 273.557 387.572 272.05C390.982 270.544 393.558 269.79 395.303 269.79C397.047 269.79 397.919 270.385 397.919 271.575C397.919 274.508 394.43 278.077 387.453 282.279C380.556 286.482 374.807 289.257 370.209 290.606C367.513 294.491 366.165 297.504 366.165 299.645ZM394.919 291.319C394.919 291.002 394.84 290.843 394.681 290.843C393.571 290.843 392.58 291.755 391.708 293.579C390.915 295.403 390.519 296.949 390.519 298.218C390.519 299.407 390.638 300.2 390.875 300.597C393.571 295.68 394.919 292.588 394.919 291.319ZM453.788 220.905C453.788 220.746 453.669 220.667 453.431 220.667C450.656 220.667 434.601 238.508 405.266 274.191C413.273 268.403 423.342 259.085 435.473 246.24C447.683 233.314 453.788 224.869 453.788 220.905ZM357.219 338.183C357.219 338.421 357.378 338.54 357.695 338.54C361.659 338.54 366.852 334.654 373.274 326.883C379.617 319.112 385.207 310.866 390.043 302.143C389.25 301.826 388.854 300.676 388.854 298.694C388.854 296.632 389.686 294.213 391.351 291.438C368.596 319.905 357.219 335.487 357.219 338.183ZM455.691 217.931C456.404 217.931 456.761 218.248 456.761 218.883C456.761 222.134 454.541 226.733 450.101 232.68C445.661 238.627 440.23 244.654 433.808 250.759C419.933 264.24 408.873 273.953 400.627 279.901L393.016 289.416C393.65 288.94 394.205 288.702 394.681 288.702C395.95 288.702 396.584 289.614 396.584 291.438C396.584 293.262 395.751 296.077 394.086 299.883C397.02 298.456 400.152 296.711 403.482 294.65L413.828 287.989L413.947 289.535C404.592 295.72 397.694 299.685 393.254 301.429C389.052 310.31 383.185 318.993 375.653 327.478C368.121 336.042 361.58 340.324 356.03 340.324C355.158 340.324 354.721 339.808 354.721 338.778C354.721 335.844 362.214 324.425 377.199 304.522C392.184 284.619 408.041 265.231 424.77 246.359C441.499 227.407 451.806 217.931 455.691 217.931ZM433.95 260.751C433.95 261.94 434.624 262.535 435.972 262.535C437.32 262.535 438.549 261.94 439.659 260.751C440.768 259.482 441.323 258.53 441.323 257.896C441.323 257.262 441.086 256.707 440.61 256.231C440.214 255.755 439.579 255.517 438.707 255.517C437.914 255.517 436.923 256.072 435.734 257.182C434.545 258.293 433.95 259.482 433.95 260.751ZM405.883 300.121C405.883 300.438 406.081 300.597 406.478 300.597C407.905 300.597 415.001 296.394 427.766 287.989L427.885 289.535L423.009 292.746C419.758 294.887 416.19 297.028 412.305 299.169C408.42 301.231 405.844 302.262 404.575 302.262C403.624 302.262 403.148 301.509 403.148 300.002C403.148 298.416 405.526 294.412 410.284 287.989C415.12 281.487 420.234 275.5 425.625 270.028C426.18 269.394 426.775 269.077 427.409 269.077L430.144 269.315C430.779 269.394 431.096 269.592 431.096 269.909C431.096 270.147 430.858 270.583 430.382 271.218C427.211 274.39 422.533 279.504 416.349 286.561C410.244 293.619 406.755 298.139 405.883 300.121ZM422.942 290.487L422.585 289.059L426.51 286.561C432.456 282.597 436.183 279.821 437.689 278.235C439.195 276.57 440.107 275.539 440.424 275.143C442.486 272.526 443.635 271.059 443.873 270.742C444.825 271.059 445.3 272.011 445.3 273.597C443.715 275.896 441.574 278.672 438.878 281.923C436.183 285.094 433.963 287.751 432.218 289.892C430.474 291.954 429.602 293.143 429.602 293.46C429.602 293.777 429.642 293.936 429.721 293.936C429.88 293.936 430.474 293.539 431.505 292.746C432.615 291.874 435.548 289.773 440.305 286.442C449.899 279.782 456.004 275.579 458.62 273.834C461.237 272.011 462.902 271.099 463.615 271.099C464.408 271.099 464.805 271.892 464.805 273.478C464.805 274.984 463.615 277.284 461.237 280.376C458.858 283.469 456.242 286.324 453.387 288.94C445.776 295.918 441.97 299.764 441.97 300.478C441.97 300.557 442.129 300.597 442.446 300.597C443.398 300.597 448.749 297.465 458.501 291.2L463.377 287.989L463.496 289.535C450.731 298.02 442.962 302.262 440.187 302.262C439.711 302.262 439.473 302.024 439.473 301.548C439.473 298.614 441.297 295.165 444.944 291.2C448.67 287.156 452.357 283.548 456.004 280.376C459.651 277.125 461.475 274.984 461.475 273.953C461.475 273.795 461.395 273.716 461.237 273.716C458.937 274.826 453.586 278.354 445.181 284.301C436.857 290.169 431.981 293.619 430.553 294.65C426.827 297.425 424.845 298.892 424.607 299.05C424.449 299.13 424.052 299.526 423.418 300.24C421.991 301.747 420.682 302.5 419.493 302.5C417.59 302.341 416.599 302.222 416.52 302.143C416.441 302.064 416.401 301.984 416.401 301.905C416.401 301.826 417.075 301.073 418.423 299.645C419.691 298.297 420.96 296.949 422.229 295.601C426.431 290.923 429.325 287.592 430.91 285.61L422.942 290.487ZM485.751 271.575C485.751 271.337 485.592 271.218 485.275 271.218C483.134 271.218 479.804 273.081 475.285 276.808C470.766 280.535 466.841 284.619 463.511 289.059C467.476 287.791 472.153 284.936 477.545 280.495C483.015 276.055 485.751 273.081 485.751 271.575ZM458.279 299.645C458.279 300.676 458.675 301.191 459.468 301.191C460.419 301.191 462.56 300.557 465.89 299.288C469.22 297.94 471.955 296.632 474.096 295.363L485.751 287.989L485.87 289.535C477.545 295.086 471.321 298.614 467.198 300.121C463.155 301.628 460.459 302.381 459.111 302.381C456.891 302.381 455.781 300.993 455.781 298.218C455.781 294.491 457.129 290.764 459.825 287.037C462.52 283.31 465.652 280.257 469.22 277.879C472.867 275.5 476.355 273.557 479.685 272.05C483.095 270.544 485.671 269.79 487.416 269.79C489.16 269.79 490.032 270.385 490.032 271.575C490.032 274.508 486.544 278.077 479.567 282.279C472.669 286.482 466.921 289.257 462.322 290.606C459.626 294.491 458.279 297.504 458.279 299.645ZM280.621 508.074L363.315 364.033C363.315 363.478 363.038 363.201 362.483 363.201C309.388 412.047 273.221 447.756 253.981 470.329C251.391 473.289 244.917 479.858 234.557 490.034C224.382 500.21 218.184 506.131 215.964 507.796C213.929 509.461 210.23 510.756 204.864 511.682C203.754 511.682 203.199 511.034 203.199 509.739C203.199 508.444 210.507 499.008 225.122 481.43C239.922 463.668 256.109 444.056 273.684 422.593C291.259 400.945 307.354 377.91 321.968 353.487C336.768 329.064 344.168 310.192 344.168 296.87C344.168 289.099 340.19 285.213 332.236 285.213C318.731 285.213 303.283 290.671 285.894 301.588C268.689 312.505 253.149 325.271 239.274 339.888C225.584 354.504 213.929 369.399 204.309 384.571C194.69 399.558 189.88 411.214 189.88 419.54C189.88 424.721 192.932 427.311 199.037 427.311C205.142 427.311 212.172 425.276 220.127 421.205C228.267 417.135 235.944 412.14 243.159 406.219C257.774 394.192 269.706 383.276 278.956 373.469L284.506 367.364C285.246 366.809 285.894 366.531 286.449 366.531C287.004 366.531 287.281 367.086 287.281 368.196C264.156 394.285 241.587 412.972 219.572 424.258C210.692 428.699 202.829 430.919 195.985 430.919C187.66 430.919 183.497 426.294 183.497 417.042C183.497 409.642 186.087 400.298 191.267 389.011C196.632 377.725 204.125 366.069 213.744 354.042C223.549 341.83 234.372 330.452 246.211 319.905C258.237 309.174 271.741 300.385 286.726 293.539C301.896 286.508 316.696 282.993 331.125 282.993C343.89 282.993 350.273 289.284 350.273 301.865C350.273 310.747 347.22 322.126 341.115 336.002C335.01 349.879 327.611 363.571 318.916 377.077C301.711 403.905 285.709 426.479 270.909 444.796L261.751 455.897L386.625 334.337C391.62 329.712 394.395 327.399 394.95 327.399C396.245 327.399 396.892 328.231 396.892 329.896C396.892 331.377 395.135 333.967 391.62 337.667C361.28 385.774 335.195 429.531 313.366 468.941L312.533 471.994C326.408 455.527 347.313 433.694 375.248 406.496C403.182 379.298 426.769 357.188 446.009 340.165C465.249 323.143 484.119 308.526 502.619 296.315C521.118 284.103 535.086 277.997 544.521 277.997C547.296 277.997 548.683 279.478 548.683 282.438C548.683 283.178 548.035 283.919 546.741 284.658C545.631 285.398 541.93 288.082 535.641 292.707C517.326 305.658 508.076 312.041 507.891 311.857C507.336 311.857 507.059 311.672 507.059 311.302L507.614 309.636C507.614 308.897 507.151 308.526 506.226 308.526C499.011 308.526 484.859 316.76 463.769 333.227C442.864 349.694 420.757 369.122 397.447 391.509C374.322 413.897 352.031 436.377 330.571 458.95C309.296 481.523 294.126 498.915 285.061 511.127C283.396 513.162 281.916 514.18 280.621 514.18C279.326 514.18 278.679 513.717 278.679 512.792C278.679 512.052 279.326 510.479 280.621 508.074ZM346.206 449.474C346.206 450.664 346.879 451.258 348.227 451.258C349.575 451.258 350.804 450.664 351.914 449.474C353.024 448.206 353.579 447.254 353.579 446.62C353.579 445.985 353.341 445.43 352.865 444.954C352.469 444.479 351.835 444.241 350.963 444.241C350.17 444.241 349.179 444.796 347.989 445.906C346.8 447.016 346.206 448.206 346.206 449.474ZM318.139 488.845C318.139 489.162 318.337 489.32 318.733 489.32C320.16 489.32 327.256 485.118 340.021 476.712L340.14 478.259L335.264 481.47C332.013 483.611 328.446 485.752 324.561 487.893C320.676 489.955 318.099 490.986 316.83 490.986C315.879 490.986 315.403 490.232 315.403 488.726C315.403 487.14 317.782 483.135 322.539 476.712C327.375 470.21 332.489 464.223 337.881 458.752C338.436 458.118 339.03 457.8 339.664 457.8L342.4 458.038C343.034 458.117 343.351 458.316 343.351 458.633C343.351 458.871 343.113 459.307 342.638 459.941C339.466 463.113 334.788 468.228 328.604 475.285C322.499 482.342 319.011 486.862 318.139 488.845ZM338.765 479.21L338.408 477.783L342.332 475.285C348.279 471.32 352.005 468.545 353.512 466.959C355.018 465.294 355.93 464.263 356.247 463.866C358.308 461.25 359.458 459.783 359.696 459.466C360.647 459.783 361.123 460.734 361.123 462.32C359.537 464.62 357.397 467.395 354.701 470.646C352.005 473.818 349.785 476.474 348.041 478.615C346.297 480.677 345.425 481.867 345.425 482.184C345.425 482.501 345.464 482.66 345.543 482.66C345.702 482.66 346.297 482.263 347.327 481.47C348.437 480.598 351.371 478.496 356.128 475.166C365.721 468.505 371.826 464.303 374.443 462.558C377.059 460.734 378.724 459.822 379.438 459.822C380.231 459.822 380.627 460.615 380.627 462.201C380.627 463.708 379.438 466.007 377.059 469.1C374.681 472.192 372.064 475.047 369.21 477.664C361.599 484.642 357.793 488.488 357.793 489.201C357.793 489.281 357.952 489.32 358.269 489.32C359.22 489.32 364.572 486.188 374.324 479.924L379.2 476.712L379.319 478.259C366.554 486.743 358.784 490.986 356.009 490.986C355.533 490.986 355.296 490.748 355.296 490.272C355.296 487.338 357.119 483.889 360.766 479.924C364.493 475.88 368.179 472.272 371.826 469.1C375.473 465.849 377.297 463.708 377.297 462.677C377.297 462.518 377.218 462.439 377.059 462.439C374.76 463.549 369.408 467.078 361.004 473.025C352.679 478.893 347.803 482.342 346.376 483.373C342.65 486.148 340.667 487.615 340.43 487.774C340.271 487.853 339.875 488.25 339.24 488.964C337.813 490.47 336.505 491.223 335.316 491.223C333.413 491.065 332.422 490.946 332.343 490.867C332.263 490.787 332.224 490.708 332.224 490.629C332.224 490.549 332.898 489.796 334.245 488.369C335.514 487.021 336.782 485.673 338.051 484.325C342.253 479.646 345.147 476.316 346.733 474.333L338.765 479.21ZM401.573 460.298C401.573 460.06 401.415 459.941 401.098 459.941C398.957 459.941 395.627 461.805 391.108 465.532C386.588 469.259 382.664 473.342 379.334 477.783C383.298 476.514 387.976 473.659 393.367 469.219C398.838 464.778 401.573 461.805 401.573 460.298ZM374.101 488.369C374.101 489.4 374.497 489.915 375.29 489.915C376.242 489.915 378.382 489.281 381.712 488.012C385.042 486.664 387.778 485.356 389.918 484.087L401.573 476.712L401.692 478.259C393.367 483.809 387.143 487.338 383.021 488.845C378.977 490.351 376.281 491.104 374.934 491.104C372.714 491.104 371.604 489.717 371.604 486.941C371.604 483.215 372.951 479.488 375.647 475.761C378.343 472.034 381.475 468.981 385.042 466.602C388.689 464.223 392.178 462.281 395.508 460.774C398.917 459.267 401.494 458.514 403.238 458.514C404.982 458.514 405.855 459.109 405.855 460.298C405.855 463.232 402.366 466.8 395.389 471.003C388.491 475.206 382.743 477.981 378.145 479.329C375.449 483.215 374.101 486.228 374.101 488.369Z" fill="#888E3E"/>
<path d="M9.85753 830.248C-0.142468 821.448 -0.642468 800.582 0.357532 791.248H610.858C613.191 788.415 603.858 810.748 603.858 810.748C603.858 810.748 603.858 845.248 533.358 830.248C462.858 815.248 533.358 935.748 520.358 960.748C507.358 985.748 457.83 987.227 467.858 935.748C477.885 884.27 491.751 811.705 442.858 820.248C393.964 828.792 440.715 1147.5 434.358 1207.25C428 1267 371.715 1274.5 364.858 1207.25C358 1140 407.233 842.146 381.358 820.248C355.483 798.351 335.215 801.248 327.358 810.748C319.5 820.248 331.004 836.022 302.358 845.248C249.855 862.158 293.842 936.066 275.858 960.748C240.859 1008.78 249.479 912.693 249.358 845.248C249.29 807.665 215.858 810.748 206.358 810.748C196.858 810.748 201.328 816.409 176.858 845.248C155.011 870.996 136.621 815.98 119.858 810.748C103.094 805.517 105.908 838.038 87.8575 871.748C69.8074 905.459 129.189 1086.62 80.8575 1098.75C5.17213 1117.74 59.4908 933.554 54.3575 871.748C49.2243 809.943 22.3575 841.248 9.85753 830.248Z" fill="black"/>
</svg>
