<svg width="612" height="1255" viewBox="0 0 612 1255" fill="none" xmlns="http://www.w3.org/2000/svg">
<rect width="612" height="792" fill="#888E3E"/>
<path d="M72.7815 725.12C72.5095 724.96 72.3735 724.744 72.3735 724.472C72.3735 724.28 72.4375 724.072 72.5655 723.848L80.2455 709.688H70.9815C70.6935 709.688 70.4615 709.632 70.2855 709.52C70.1255 709.392 70.0455 709.208 70.0455 708.968C70.0455 708.456 70.3575 708.2 70.9815 708.2H81.2055C81.5095 708.2 81.7415 708.28 81.9015 708.44C82.0775 708.6 82.1655 708.816 82.1655 709.088C82.1655 709.408 82.0775 709.728 81.9015 710.048L74.0295 724.76C73.8535 725.08 73.5975 725.24 73.2615 725.24C73.0695 725.24 72.9095 725.2 72.7815 725.12ZM96.5645 725.24C95.2845 725.24 94.1085 725 93.0365 724.52C91.9645 724.04 91.0605 723.352 90.3245 722.456C90.1645 722.248 90.0845 722.048 90.0845 721.856C90.0845 721.6 90.2045 721.392 90.4445 721.232C90.5885 721.136 90.7565 721.088 90.9485 721.088C91.2685 721.088 91.5085 721.208 91.6685 721.448C92.2125 722.2 92.9085 722.768 93.7565 723.152C94.6205 723.52 95.5485 723.704 96.5405 723.704C98.0765 723.704 99.2685 723.296 100.117 722.48C100.981 721.664 101.413 720.504 101.413 719C101.413 717.64 100.997 716.592 100.165 715.856C99.3325 715.104 98.2285 714.728 96.8525 714.728C96.0525 714.728 95.3005 714.872 94.5965 715.16C93.9085 715.448 93.3485 715.84 92.9165 716.336C92.5165 716.784 92.1405 717.008 91.7885 717.008C91.4685 717.008 91.2125 716.92 91.0205 716.744C90.8285 716.552 90.7565 716.312 90.8045 716.024L91.7405 709.76C91.8205 709.28 92.0285 708.904 92.3645 708.632C92.7165 708.344 93.1805 708.2 93.7565 708.2H101.509C102.133 708.2 102.445 708.456 102.445 708.968C102.445 709.208 102.357 709.392 102.181 709.52C102.021 709.632 101.797 709.688 101.509 709.688H94.2125C93.9245 709.688 93.7165 709.752 93.5885 709.88C93.4605 710.008 93.3725 710.216 93.3245 710.504L92.7005 714.704C93.3085 714.208 93.9885 713.832 94.7405 713.576C95.5085 713.304 96.3005 713.168 97.1165 713.168C98.2845 713.168 99.3325 713.4 100.261 713.864C101.189 714.328 101.909 715 102.421 715.88C102.949 716.744 103.213 717.776 103.213 718.976C103.213 720.224 102.949 721.32 102.421 722.264C101.893 723.208 101.125 723.944 100.117 724.472C99.1245 724.984 97.9405 725.24 96.5645 725.24ZM118.343 725.24C116.919 725.24 115.687 724.896 114.647 724.208C113.607 723.52 112.807 722.528 112.247 721.232C111.703 719.936 111.431 718.392 111.431 716.6C111.431 714.808 111.703 713.264 112.247 711.968C112.807 710.672 113.607 709.68 114.647 708.992C115.687 708.304 116.919 707.96 118.343 707.96C119.767 707.96 120.999 708.304 122.039 708.992C123.079 709.68 123.871 710.672 124.415 711.968C124.975 713.264 125.255 714.808 125.255 716.6C125.255 718.392 124.975 719.936 124.415 721.232C123.871 722.528 123.079 723.52 122.039 724.208C120.999 724.896 119.767 725.24 118.343 725.24ZM118.343 723.704C119.975 723.704 121.231 723.088 122.111 721.856C123.007 720.608 123.455 718.856 123.455 716.6C123.455 714.328 123.007 712.576 122.111 711.344C121.231 710.112 119.975 709.496 118.343 709.496C116.711 709.496 115.447 710.112 114.551 711.344C113.671 712.576 113.231 714.328 113.231 716.6C113.231 718.856 113.671 720.608 114.551 721.856C115.447 723.088 116.711 723.704 118.343 723.704ZM134.753 725.24C134.481 725.24 134.265 725.16 134.105 725C133.961 724.824 133.889 724.584 133.889 724.28V713.96C133.889 713.656 133.961 713.424 134.105 713.264C134.265 713.088 134.481 713 134.753 713C135.041 713 135.257 713.088 135.401 713.264C135.561 713.44 135.641 713.672 135.641 713.96V715.328C136.073 714.608 136.625 714.04 137.297 713.624C137.985 713.208 138.705 713 139.457 713C140.209 713 140.873 713.208 141.449 713.624C142.025 714.024 142.449 714.592 142.721 715.328C143.281 714.576 143.897 714 144.569 713.6C145.257 713.2 145.969 713 146.705 713C147.969 713 148.921 713.392 149.561 714.176C150.201 714.944 150.521 716.088 150.521 717.608V724.28C150.521 724.584 150.441 724.824 150.281 725C150.121 725.16 149.905 725.24 149.633 725.24C149.057 725.24 148.769 724.92 148.769 724.28V717.56C148.769 716.536 148.593 715.776 148.241 715.28C147.905 714.768 147.321 714.512 146.489 714.512C145.785 714.512 145.153 714.728 144.593 715.16C144.033 715.576 143.585 716.184 143.249 716.984V724.28C143.249 724.584 143.169 724.824 143.009 725C142.849 725.16 142.633 725.24 142.361 725.24C142.089 725.24 141.873 725.16 141.713 725C141.569 724.824 141.497 724.584 141.497 724.28V717.92C141.497 716.816 141.297 715.976 140.897 715.4C140.513 714.808 139.961 714.512 139.241 714.512C138.553 714.512 137.937 714.704 137.393 715.088C136.849 715.456 136.417 715.968 136.097 716.624C135.793 717.28 135.641 718.024 135.641 718.856V724.28C135.641 724.568 135.561 724.8 135.401 724.976C135.257 725.152 135.041 725.24 134.753 725.24ZM160.845 725.24C160.573 725.24 160.357 725.16 160.197 725C160.053 724.824 159.981 724.584 159.981 724.28V707.744C159.981 707.44 160.053 707.208 160.197 707.048C160.357 706.872 160.573 706.784 160.845 706.784C161.117 706.784 161.333 706.872 161.493 707.048C161.653 707.208 161.733 707.44 161.733 707.744V724.28C161.733 724.568 161.653 724.8 161.493 724.976C161.349 725.152 161.133 725.24 160.845 725.24Z" fill="black"/>
<path d="M438.512 725.24C438.24 725.24 438.024 725.16 437.864 725C437.704 724.824 437.624 724.584 437.624 724.28V710.024L434.624 711.176C434.48 711.24 434.32 711.272 434.144 711.272C433.76 711.272 433.496 711.112 433.352 710.792C433.304 710.664 433.28 710.544 433.28 710.432C433.28 710.048 433.488 709.784 433.904 709.64L438.2 708.032C438.344 707.984 438.48 707.96 438.608 707.96C438.848 707.96 439.048 708.048 439.208 708.224C439.368 708.4 439.448 708.624 439.448 708.896V724.28C439.448 724.584 439.36 724.824 439.184 725C439.024 725.16 438.8 725.24 438.512 725.24ZM454.762 725.24C453.482 725.24 452.29 725 451.186 724.52C450.082 724.04 449.162 723.352 448.426 722.456C448.266 722.248 448.186 722.048 448.186 721.856C448.186 721.6 448.306 721.392 448.546 721.232C448.706 721.12 448.874 721.064 449.05 721.064C449.338 721.064 449.578 721.2 449.77 721.472C450.298 722.176 451.002 722.728 451.882 723.128C452.778 723.512 453.738 723.704 454.762 723.704C456.234 723.704 457.386 723.416 458.218 722.84C459.066 722.248 459.49 721.432 459.49 720.392C459.49 719.272 459.194 718.424 458.602 717.848C458.026 717.256 457.17 716.96 456.034 716.96H453.346C452.706 716.96 452.386 716.712 452.386 716.216C452.386 715.704 452.706 715.448 453.346 715.448H456.034C456.93 715.448 457.658 715.192 458.218 714.68C458.794 714.152 459.082 713.472 459.082 712.64C459.082 711.632 458.714 710.856 457.978 710.312C457.258 709.768 456.218 709.496 454.858 709.496C453.914 709.496 453.042 709.664 452.242 710C451.458 710.336 450.786 710.824 450.226 711.464C450.018 711.704 449.786 711.824 449.53 711.824C449.37 711.824 449.186 711.76 448.978 711.632C448.754 711.488 448.642 711.288 448.642 711.032C448.642 710.808 448.73 710.608 448.906 710.432C449.658 709.632 450.538 709.024 451.546 708.608C452.57 708.176 453.674 707.96 454.858 707.96C456.746 707.96 458.218 708.384 459.274 709.232C460.346 710.08 460.882 711.216 460.882 712.64C460.882 713.36 460.666 714.024 460.234 714.632C459.818 715.224 459.21 715.72 458.41 716.12V716.168C459.386 716.552 460.106 717.096 460.57 717.8C461.05 718.488 461.29 719.352 461.29 720.392C461.29 721.368 461.018 722.224 460.474 722.96C459.93 723.696 459.162 724.264 458.17 724.664C457.194 725.048 456.058 725.24 454.762 725.24ZM471.047 725.12C470.951 725.056 470.871 724.968 470.807 724.856C470.743 724.744 470.711 724.624 470.711 724.496C470.711 724.352 470.775 724.176 470.903 723.968L481.679 708.296C481.855 708.04 482.079 707.912 482.351 707.912C482.511 707.912 482.679 707.96 482.855 708.056C483.127 708.216 483.263 708.424 483.263 708.68C483.263 708.856 483.207 709.024 483.095 709.184L472.295 724.904C472.119 725.16 471.879 725.288 471.575 725.288C471.383 725.288 471.207 725.232 471.047 725.12ZM473.087 715.184C472.415 715.184 471.791 715.024 471.215 714.704C470.655 714.368 470.207 713.92 469.871 713.36C469.535 712.8 469.367 712.192 469.367 711.536C469.367 710.88 469.535 710.272 469.871 709.712C470.207 709.152 470.655 708.712 471.215 708.392C471.791 708.072 472.415 707.912 473.087 707.912C473.775 707.912 474.399 708.072 474.959 708.392C475.535 708.712 475.983 709.152 476.303 709.712C476.639 710.272 476.807 710.88 476.807 711.536C476.807 712.192 476.639 712.8 476.303 713.36C475.983 713.92 475.535 714.368 474.959 714.704C474.399 715.024 473.775 715.184 473.087 715.184ZM473.087 713.672C473.679 713.672 474.175 713.472 474.575 713.072C474.975 712.656 475.175 712.144 475.175 711.536C475.175 710.928 474.975 710.416 474.575 710C474.175 709.584 473.679 709.376 473.087 709.376C472.479 709.376 471.975 709.584 471.575 710C471.175 710.416 470.975 710.928 470.975 711.536C470.975 712.144 471.175 712.656 471.575 713.072C471.975 713.472 472.479 713.672 473.087 713.672ZM481.103 725.24C480.431 725.24 479.807 725.08 479.231 724.76C478.671 724.424 478.223 723.976 477.887 723.416C477.551 722.856 477.383 722.248 477.383 721.592C477.383 720.936 477.551 720.328 477.887 719.768C478.223 719.208 478.671 718.768 479.231 718.448C479.807 718.128 480.431 717.968 481.103 717.968C481.775 717.968 482.391 718.128 482.951 718.448C483.527 718.768 483.975 719.208 484.295 719.768C484.631 720.328 484.799 720.936 484.799 721.592C484.799 722.248 484.631 722.856 484.295 723.416C483.975 723.976 483.527 724.424 482.951 724.76C482.391 725.08 481.775 725.24 481.103 725.24ZM481.103 723.728C481.679 723.728 482.167 723.528 482.567 723.128C482.983 722.712 483.191 722.2 483.191 721.592C483.191 720.984 482.991 720.472 482.591 720.056C482.191 719.64 481.695 719.432 481.103 719.432C480.495 719.432 479.983 719.64 479.567 720.056C479.167 720.472 478.967 720.984 478.967 721.592C478.967 722.2 479.167 722.712 479.567 723.128C479.983 723.528 480.495 723.728 481.103 723.728ZM511.291 725.24C510.523 725.24 509.867 725.008 509.323 724.544C508.795 724.08 508.355 723.36 508.003 722.384L505.027 714.152C504.995 714.024 504.979 713.936 504.979 713.888C504.979 713.712 505.035 713.552 505.147 713.408C505.259 713.248 505.403 713.136 505.579 713.072C505.659 713.04 505.779 713.024 505.939 713.024C506.131 713.024 506.291 713.072 506.419 713.168C506.563 713.264 506.667 713.4 506.731 713.576L509.755 721.904C510.011 722.592 510.251 723.072 510.475 723.344C510.699 723.616 510.971 723.752 511.291 723.752C511.611 723.752 511.883 723.624 512.107 723.368C512.347 723.096 512.587 722.624 512.827 721.952L515.851 713.576C515.995 713.208 516.259 713.024 516.643 713.024C516.931 713.024 517.163 713.112 517.339 713.288C517.531 713.448 517.627 713.648 517.627 713.888C517.627 713.936 517.611 714.024 517.579 714.152L514.555 722.432C514.203 723.408 513.763 724.12 513.235 724.568C512.707 725.016 512.059 725.24 511.291 725.24ZM531.237 725.24C529.845 725.24 528.653 724.96 527.661 724.4C526.669 723.84 525.917 723.096 525.405 722.168C524.909 721.224 524.661 720.208 524.661 719.12C524.661 718.032 524.909 717.024 525.405 716.096C525.917 715.152 526.669 714.4 527.661 713.84C528.653 713.28 529.845 713 531.237 713C532.629 713 533.813 713.28 534.789 713.84C535.781 714.4 536.525 715.152 537.021 716.096C537.533 717.024 537.789 718.032 537.789 719.12C537.789 720.208 537.533 721.224 537.021 722.168C536.525 723.096 535.781 723.84 534.789 724.4C533.813 724.96 532.629 725.24 531.237 725.24ZM531.237 723.728C532.677 723.728 533.829 723.32 534.693 722.504C535.573 721.688 536.013 720.56 536.013 719.12C536.013 717.68 535.573 716.552 534.693 715.736C533.829 714.92 532.677 714.512 531.237 714.512C529.781 714.512 528.613 714.92 527.733 715.736C526.869 716.552 526.437 717.68 526.437 719.12C526.437 720.56 526.869 721.688 527.733 722.504C528.613 723.32 529.781 723.728 531.237 723.728ZM547.671 725.24C547.399 725.24 547.183 725.16 547.023 725C546.879 724.824 546.807 724.584 546.807 724.28V707.744C546.807 707.44 546.879 707.208 547.023 707.048C547.183 706.872 547.399 706.784 547.671 706.784C547.943 706.784 548.159 706.872 548.319 707.048C548.479 707.208 548.559 707.44 548.559 707.744V724.28C548.559 724.568 548.479 724.8 548.319 724.976C548.175 725.152 547.959 725.24 547.671 725.24ZM559.092 724.976C558.708 724.976 558.38 724.848 558.108 724.592C557.836 724.32 557.7 724.008 557.7 723.656C557.7 723.288 557.836 722.968 558.108 722.696C558.38 722.424 558.708 722.288 559.092 722.288C559.46 722.288 559.78 722.424 560.052 722.696C560.324 722.968 560.46 723.288 560.46 723.656C560.46 724.008 560.324 724.32 560.052 724.592C559.78 724.848 559.46 724.976 559.092 724.976Z" fill="black"/>
<rect x="83.5" y="74.5" width="446" height="570" stroke="black" stroke-width="7"/>
<path d="M107.882 391.826C99.4782 391.826 91.7876 390.558 84.8105 388.02C77.6749 385.641 72.0457 381.439 67.9229 375.412C63.8 369.386 61.7386 361.06 61.7386 350.434C61.7386 340.919 64.5136 331.8 70.0636 323.077C75.4549 314.355 82.5113 306.266 91.2326 298.813C99.9539 291.2 109.072 284.619 118.586 279.068C125.246 275.262 132.144 271.773 139.279 268.601C146.415 265.429 153.63 262.733 160.924 260.513C151.885 252.425 145.067 242.988 140.468 232.204C136.029 221.42 133.809 210.319 133.809 198.9C133.809 188.433 135.632 178.204 139.279 168.213C143.085 158.221 148.714 149.102 156.167 140.856C163.62 132.45 172.817 125.631 183.758 120.397C192.955 116.115 201.914 113.102 210.636 111.358C219.515 109.613 228.316 108.741 237.037 108.741C247.186 108.741 257.255 109.772 267.245 111.834C277.393 113.737 287.621 115.957 297.928 118.494C308.394 120.873 319.018 122.697 329.801 123.966L333.844 124.442C339.87 119.049 345.737 115.005 351.445 112.309C357.312 109.455 362.942 108.027 368.333 108.027C370.553 108.027 372.694 108.265 374.755 108.741L375.707 108.979L376.182 109.455C377.451 110.089 378.085 111.12 378.085 112.547C378.085 114.292 377.134 116.274 375.231 118.494C373.487 120.715 371.425 122.697 369.047 124.442C366.668 126.186 364.527 127.217 362.625 127.534C355.648 128.803 348.274 129.279 340.504 128.961C334.161 135.939 327.898 144.265 321.714 153.94C315.529 163.455 309.9 172.97 304.826 182.486C312.754 187.244 318.701 193.112 322.665 200.09C326.788 206.909 328.849 214.046 328.849 221.499C328.849 231.649 325.044 241.64 317.432 251.473C309.979 261.306 298.483 269.156 282.943 275.024C288.81 281.843 291.744 289.694 291.744 298.575C291.744 306.346 289.92 313.007 286.273 318.557C282.785 324.267 278.028 328.945 272.002 332.593C265.976 336.399 259.158 339.174 251.547 340.919C244.094 342.822 236.403 343.773 228.475 343.773C225.145 343.773 221.735 343.615 218.247 343.297C214.917 342.98 211.666 342.504 208.495 341.87C196.602 354.24 184.075 364.707 170.914 373.271C157.753 381.994 144.195 387.465 130.241 389.685C126.435 390.32 122.629 390.796 118.824 391.113C115.177 391.588 111.53 391.826 107.882 391.826ZM344.072 125.155C349.622 125.155 355.172 124.759 360.722 123.966C366.43 123.173 370.791 121.666 373.804 119.446C374.597 118.97 375.31 118.256 375.944 117.305C376.579 116.353 376.896 115.402 376.896 114.45C376.896 113.182 376.182 112.23 374.755 111.596C373.169 111.12 371.504 110.882 369.76 110.882C365.796 110.882 361.594 112.151 357.154 114.688C352.873 117.226 348.512 120.715 344.072 125.155ZM165.681 259.086C180.428 254.804 195.413 252.663 210.636 252.663C225.383 252.663 237.91 253.931 248.217 256.469C252.815 248.063 257.017 240.213 260.823 232.918C264.787 225.623 268.276 219.2 271.288 213.649C277.473 201.755 283.657 190.812 289.841 180.821C281.754 177.49 272.081 175.825 260.823 175.825C248.296 175.825 237.275 178.363 227.761 183.437C218.405 188.354 211.666 194.301 207.543 201.279C204.848 205.878 203.5 210.636 203.5 215.552C203.5 220.627 205.165 225.702 208.495 230.777C211.825 235.852 217.216 240.292 224.669 244.099C225.303 244.574 225.62 245.05 225.62 245.526C225.62 245.843 225.303 246.16 224.669 246.477C224.193 246.636 223.559 246.557 222.766 246.24C214.679 242.116 208.733 237.358 204.927 231.966C201.28 226.574 199.456 221.024 199.456 215.314C199.456 209.764 201.042 204.451 204.213 199.376C208.812 191.605 216.106 185.103 226.096 179.869C236.245 174.477 247.82 171.781 260.823 171.781C266.849 171.781 272.478 172.257 277.711 173.208C282.943 174.001 287.78 175.191 292.22 176.777C298.721 166.468 305.143 157.27 311.486 149.182C317.829 140.935 324.013 133.878 330.039 128.01L329.087 127.772C314.499 124.124 300.624 121.19 287.463 118.97C274.301 116.591 261.219 115.402 248.217 115.402C239.495 115.402 230.536 116.353 221.339 118.256C212.301 120.16 202.866 123.411 193.034 128.01C182.093 133.085 172.817 139.825 165.205 148.23C157.753 156.477 152.044 165.596 148.08 175.587C144.274 185.578 142.371 195.649 142.371 205.799C142.371 215.79 144.274 225.464 148.08 234.821C152.044 244.019 157.911 252.107 165.681 259.086ZM279.138 270.98C292.775 265.429 302.844 258.055 309.345 248.856C316.005 239.658 319.335 230.38 319.335 221.024C319.335 214.68 317.829 208.653 314.816 202.944C311.962 197.076 307.68 192.001 301.972 187.719C297.532 196.125 293.647 203.896 290.317 211.032C286.987 218.169 284.45 223.799 282.705 227.922C277.948 238.865 272.319 250.363 265.818 262.416C268.513 263.526 270.971 264.874 273.191 266.46C275.411 267.887 277.393 269.394 279.138 270.98ZM231.805 279.782H234.421C236.482 276.451 238.465 273.121 240.367 269.79C242.429 266.46 244.332 263.209 246.076 260.037C236.403 257.658 224.59 256.469 210.636 256.469C203.817 256.469 196.999 257.024 190.18 258.134C183.52 259.244 176.86 260.751 170.2 262.654C177.494 268.046 186.216 272.249 196.364 275.262C206.671 278.275 218.485 279.782 231.805 279.782ZM112.164 388.258C119.617 388.258 127.386 386.989 135.474 384.452C145.305 381.28 155.136 375.491 164.968 367.086C174.957 358.839 184.63 349.086 193.986 337.826C186.692 334.813 180.349 330.927 174.957 326.17C169.566 321.412 166.87 315.703 166.87 309.042V308.566C166.87 307.456 167.425 306.901 168.535 306.901C169.487 306.901 170.042 307.456 170.2 308.566C170.993 314.91 173.768 320.302 178.525 324.742C183.282 329.183 189.149 332.672 196.126 335.209C202.628 327.28 208.891 318.874 214.917 309.993C220.943 301.112 226.651 292.31 232.042 283.588H231.805C217.692 283.588 205.086 281.923 193.986 278.592C182.886 275.103 173.372 270.266 165.443 264.081C157.673 266.619 149.903 269.711 142.133 273.359C134.522 276.848 127.149 280.654 120.013 284.777C102.253 295.244 89.4091 306.346 81.4806 318.081C73.3935 329.817 69.35 340.76 69.35 350.91C69.35 361.535 73.2349 370.417 81.0049 377.553C88.7748 384.69 99.1611 388.258 112.164 388.258ZM257.017 277.403C260.189 276.768 263.201 276.134 266.056 275.5C269.068 274.707 271.843 273.834 274.381 272.883C271.368 270.187 267.879 267.887 263.915 265.984C262.805 267.887 261.695 269.79 260.585 271.694C259.475 273.597 258.286 275.5 257.017 277.403ZM225.62 339.967C233.232 339.967 240.605 339.095 247.741 337.35C255.035 335.764 261.616 333.227 267.483 329.738C273.35 326.407 278.028 322.125 281.516 316.892C285.005 311.658 286.749 305.553 286.749 298.575C286.749 294.61 286.035 290.804 284.608 287.156C283.34 283.35 281.278 279.861 278.424 276.689C271.288 278.909 263.281 280.654 254.401 281.923C248.058 292.072 241.24 301.984 233.945 311.658C226.81 321.333 219.278 330.452 211.349 339.015C213.728 339.333 216.106 339.571 218.485 339.729C220.863 339.888 223.242 339.967 225.62 339.967ZM340.69 275.381V275.262C339.105 276.055 337.36 277.958 335.458 280.971C333.555 283.905 332.445 286.442 332.128 288.583C337.836 282.716 340.69 278.315 340.69 275.381ZM315.359 300.24C318.372 300.24 323.248 297.068 329.987 290.724V290.13C329.987 287.672 331.176 284.658 333.555 281.09C336.013 277.442 338.233 275.103 340.215 274.072C339.977 273.834 339.66 273.716 339.263 273.716C336.33 273.716 331.454 277.086 324.635 283.826C317.896 290.566 314.526 295.799 314.526 299.526C314.526 300.002 314.804 300.24 315.359 300.24ZM311.672 298.575C311.672 292.628 315.081 286.72 321.9 280.852C328.798 274.905 334.506 271.931 339.025 271.931C341.245 271.931 342.355 272.923 342.355 274.905C342.355 280.535 339.343 286.165 333.317 291.795C333.793 291.954 334.268 292.033 334.744 292.033C336.964 292.033 340.175 290.645 344.377 287.87L344.972 289.059C339.898 292.469 336.052 294.174 333.436 294.174C332.405 294.174 331.652 293.976 331.176 293.579C328.084 296.117 324.833 298.178 321.424 299.764C318.015 301.35 315.517 302.143 313.932 302.143C312.425 302.143 311.672 300.954 311.672 298.575ZM340.737 289.535C340.341 289.773 339.865 290.09 339.31 290.487L338.953 289.059C347.912 283.35 355.207 278.909 360.836 275.738L364.047 273.834C365.236 272.883 366.544 271.773 367.972 270.504C370.984 268.125 372.57 266.975 372.729 267.055C373.125 267.055 373.323 267.253 373.323 267.649C373.323 267.967 373.006 268.561 372.372 269.434C371.738 270.227 370.826 271.178 369.637 272.288C368.527 273.398 367.853 274.112 367.615 274.429C366.425 275.619 364.443 279.425 361.668 285.848C358.973 292.191 357.506 295.601 357.268 296.077C357.268 296.394 357.347 296.553 357.506 296.553C357.744 296.553 357.902 296.513 357.982 296.434L371.302 287.989L371.42 289.535C370.469 290.09 368.883 291.081 366.663 292.509C364.443 293.936 362.858 294.927 361.906 295.482C361.034 296.037 359.726 296.87 357.982 297.98C356.237 299.011 354.89 299.764 353.938 300.24C352.987 300.716 351.877 301.271 350.608 301.905C347.357 302.857 345.296 303.332 344.424 303.332C344.345 303.332 344.305 303.332 344.305 303.332C342.164 303.332 340.42 302.698 339.072 301.429C337.724 300.161 337.05 298.694 337.05 297.028C337.05 295.363 337.605 293.936 338.715 292.746C339.905 291.557 341.292 290.962 342.878 290.962C344.464 290.962 345.256 291.597 345.256 292.865C345.256 293.579 344.979 294.253 344.424 294.887C343.948 295.522 343.314 295.839 342.521 295.839C341.808 295.839 341.371 295.482 341.213 294.769C341.134 294.055 340.935 293.698 340.618 293.698C340.063 293.698 339.588 293.976 339.191 294.531C338.874 295.086 338.715 295.879 338.715 296.91C338.715 297.94 339.191 298.971 340.143 300.002C341.094 300.954 342.442 301.429 344.186 301.429C345.93 301.429 347.556 300.795 349.062 299.526C350.648 298.258 351.718 297.147 352.273 296.196C352.828 295.244 354.017 292.588 355.841 288.227C357.665 283.786 359.567 280.297 361.549 277.76L361.787 277.284C361.787 277.205 361.668 277.165 361.431 277.165C360.796 277.165 355.524 280.257 345.613 286.442L340.737 289.535ZM393.638 271.575C393.638 271.337 393.479 271.218 393.162 271.218C391.021 271.218 387.691 273.081 383.172 276.808C378.653 280.535 374.728 284.619 371.398 289.059C375.362 287.791 380.04 284.936 385.432 280.495C390.902 276.055 393.638 273.081 393.638 271.575ZM366.165 299.645C366.165 300.676 366.562 301.191 367.355 301.191C368.306 301.191 370.447 300.557 373.777 299.288C377.107 297.94 379.842 296.632 381.983 295.363L393.638 287.989L393.757 289.535C385.432 295.086 379.208 298.614 375.085 300.121C371.041 301.628 368.346 302.381 366.998 302.381C364.778 302.381 363.668 300.993 363.668 298.218C363.668 294.491 365.016 290.764 367.712 287.037C370.407 283.31 373.539 280.257 377.107 277.879C380.754 275.5 384.242 273.557 387.572 272.05C390.982 270.544 393.558 269.79 395.303 269.79C397.047 269.79 397.919 270.385 397.919 271.575C397.919 274.509 394.43 278.077 387.453 282.279C380.556 286.482 374.807 289.257 370.209 290.606C367.513 294.491 366.165 297.504 366.165 299.645ZM394.919 291.319C394.919 291.002 394.84 290.843 394.681 290.843C393.571 290.843 392.58 291.755 391.708 293.579C390.915 295.403 390.519 296.949 390.519 298.218C390.519 299.407 390.638 300.2 390.875 300.597C393.571 295.68 394.919 292.588 394.919 291.319ZM453.788 220.905C453.788 220.746 453.669 220.667 453.431 220.667C450.656 220.667 434.601 238.508 405.266 274.191C413.273 268.403 423.342 259.085 435.473 246.24C447.683 233.314 453.788 224.869 453.788 220.905ZM357.219 338.183C357.219 338.421 357.378 338.54 357.695 338.54C361.659 338.54 366.852 334.654 373.274 326.883C379.617 319.112 385.207 310.866 390.043 302.143C389.25 301.826 388.854 300.676 388.854 298.694C388.854 296.632 389.686 294.213 391.351 291.438C368.596 319.905 357.219 335.487 357.219 338.183ZM455.691 217.931C456.404 217.931 456.761 218.248 456.761 218.883C456.761 222.134 454.541 226.733 450.101 232.68C445.661 238.627 440.23 244.654 433.808 250.759C419.933 264.24 408.873 273.953 400.627 279.901L393.016 289.416C393.65 288.94 394.205 288.702 394.681 288.702C395.95 288.702 396.584 289.614 396.584 291.438C396.584 293.262 395.751 296.077 394.086 299.883C397.02 298.456 400.152 296.711 403.482 294.65L413.828 287.989L413.947 289.535C404.592 295.72 397.694 299.685 393.254 301.429C389.052 310.31 383.185 318.993 375.653 327.478C368.121 336.042 361.58 340.324 356.03 340.324C355.158 340.324 354.721 339.808 354.721 338.778C354.721 335.844 362.214 324.425 377.199 304.522C392.184 284.619 408.041 265.231 424.77 246.359C441.499 227.407 451.806 217.931 455.691 217.931ZM433.95 260.751C433.95 261.94 434.624 262.535 435.972 262.535C437.32 262.535 438.549 261.94 439.659 260.751C440.769 259.482 441.323 258.53 441.323 257.896C441.323 257.262 441.086 256.707 440.61 256.231C440.214 255.755 439.579 255.517 438.707 255.517C437.914 255.517 436.923 256.072 435.734 257.182C434.545 258.293 433.95 259.482 433.95 260.751ZM405.883 300.121C405.883 300.438 406.081 300.597 406.478 300.597C407.905 300.597 415.001 296.394 427.766 287.989L427.885 289.535L423.009 292.746C419.758 294.887 416.19 297.028 412.305 299.169C408.42 301.231 405.844 302.262 404.575 302.262C403.624 302.262 403.148 301.509 403.148 300.002C403.148 298.416 405.526 294.412 410.283 287.989C415.12 281.487 420.234 275.5 425.625 270.028C426.18 269.394 426.775 269.077 427.409 269.077L430.144 269.315C430.779 269.394 431.096 269.592 431.096 269.909C431.096 270.147 430.858 270.583 430.382 271.218C427.211 274.39 422.533 279.504 416.349 286.561C410.244 293.619 406.755 298.139 405.883 300.121ZM422.942 290.487L422.585 289.059L426.51 286.561C432.456 282.597 436.183 279.821 437.689 278.235C439.195 276.57 440.107 275.539 440.424 275.143C442.486 272.526 443.635 271.059 443.873 270.742C444.825 271.059 445.3 272.011 445.3 273.597C443.715 275.896 441.574 278.672 438.878 281.923C436.183 285.094 433.963 287.751 432.218 289.892C430.474 291.954 429.602 293.143 429.602 293.46C429.602 293.777 429.642 293.936 429.721 293.936C429.88 293.936 430.474 293.539 431.505 292.746C432.615 291.874 435.548 289.773 440.305 286.442C449.899 279.782 456.004 275.579 458.62 273.834C461.237 272.011 462.902 271.099 463.615 271.099C464.408 271.099 464.804 271.892 464.804 273.478C464.804 274.984 463.615 277.284 461.237 280.376C458.858 283.469 456.242 286.324 453.387 288.94C445.776 295.918 441.97 299.764 441.97 300.478C441.97 300.557 442.129 300.597 442.446 300.597C443.398 300.597 448.749 297.465 458.501 291.2L463.377 287.989L463.496 289.535C450.731 298.02 442.962 302.262 440.187 302.262C439.711 302.262 439.473 302.024 439.473 301.548C439.473 298.614 441.297 295.165 444.944 291.2C448.67 287.156 452.357 283.548 456.004 280.376C459.651 277.125 461.475 274.984 461.475 273.953C461.475 273.795 461.395 273.716 461.237 273.716C458.937 274.826 453.586 278.354 445.181 284.302C436.857 290.169 431.981 293.619 430.553 294.65C426.827 297.425 424.845 298.892 424.607 299.05C424.449 299.13 424.052 299.526 423.418 300.24C421.991 301.747 420.682 302.5 419.493 302.5C417.59 302.341 416.599 302.222 416.52 302.143C416.441 302.064 416.401 301.984 416.401 301.905C416.401 301.826 417.075 301.073 418.423 299.645C419.691 298.297 420.96 296.949 422.229 295.601C426.431 290.923 429.325 287.592 430.91 285.61L422.942 290.487ZM485.751 271.575C485.751 271.337 485.592 271.218 485.275 271.218C483.134 271.218 479.804 273.081 475.285 276.808C470.766 280.535 466.841 284.619 463.511 289.059C467.476 287.791 472.153 284.936 477.545 280.495C483.015 276.055 485.751 273.081 485.751 271.575ZM458.279 299.645C458.279 300.676 458.675 301.191 459.468 301.191C460.419 301.191 462.56 300.557 465.89 299.288C469.22 297.94 471.955 296.632 474.096 295.363L485.751 287.989L485.87 289.535C477.545 295.086 471.321 298.614 467.198 300.121C463.155 301.628 460.459 302.381 459.111 302.381C456.891 302.381 455.781 300.993 455.781 298.218C455.781 294.491 457.129 290.764 459.825 287.037C462.52 283.31 465.652 280.257 469.22 277.879C472.867 275.5 476.355 273.557 479.685 272.05C483.095 270.544 485.671 269.79 487.416 269.79C489.16 269.79 490.032 270.385 490.032 271.575C490.032 274.509 486.544 278.077 479.567 282.279C472.669 286.482 466.921 289.257 462.322 290.606C459.626 294.491 458.279 297.504 458.279 299.645ZM280.621 508.074L363.315 364.033C363.315 363.478 363.038 363.201 362.483 363.201C309.388 412.047 273.221 447.756 253.981 470.329C251.391 473.289 244.917 479.858 234.557 490.034C224.382 500.21 218.184 506.131 215.964 507.796C213.929 509.461 210.23 510.756 204.864 511.682C203.754 511.682 203.199 511.034 203.199 509.739C203.199 508.444 210.507 499.008 225.122 481.43C239.922 463.668 256.109 444.056 273.684 422.593C291.259 400.945 307.354 377.91 321.968 353.487C336.768 329.064 344.168 310.192 344.168 296.87C344.168 289.099 340.19 285.213 332.236 285.213C318.731 285.213 303.283 290.671 285.894 301.588C268.689 312.505 253.149 325.271 239.274 339.888C225.584 354.504 213.929 369.399 204.309 384.571C194.69 399.558 189.88 411.214 189.88 419.54C189.88 424.721 192.932 427.311 199.037 427.311C205.142 427.311 212.172 425.276 220.127 421.205C228.267 417.135 235.944 412.14 243.159 406.219C257.774 394.192 269.706 383.276 278.956 373.469L284.506 367.364C285.246 366.809 285.894 366.531 286.449 366.531C287.004 366.531 287.281 367.086 287.281 368.196C264.156 394.285 241.587 412.972 219.572 424.258C210.692 428.699 202.829 430.919 195.985 430.919C187.66 430.919 183.497 426.294 183.497 417.042C183.497 409.642 186.087 400.298 191.267 389.011C196.632 377.725 204.125 366.069 213.744 354.042C223.549 341.83 234.372 330.452 246.211 319.905C258.237 309.174 271.741 300.385 286.726 293.539C301.896 286.508 316.696 282.993 331.126 282.993C343.89 282.993 350.273 289.284 350.273 301.865C350.273 310.747 347.22 322.126 341.115 336.002C335.01 349.879 327.611 363.571 318.916 377.077C301.711 403.905 285.709 426.479 270.909 444.796L261.751 455.897L386.625 334.337C391.62 329.712 394.395 327.399 394.95 327.399C396.245 327.399 396.892 328.231 396.892 329.896C396.892 331.377 395.135 333.967 391.62 337.667C361.28 385.774 335.195 429.531 313.366 468.941L312.533 471.994C326.408 455.527 347.313 433.694 375.248 406.496C403.182 379.298 426.769 357.188 446.009 340.165C465.249 323.143 484.119 308.526 502.619 296.315C521.118 284.103 535.086 277.997 544.521 277.997C547.296 277.997 548.683 279.478 548.683 282.438C548.683 283.178 548.035 283.919 546.741 284.658C545.631 285.398 541.93 288.082 535.641 292.707C517.326 305.658 508.076 312.041 507.891 311.857C507.336 311.857 507.059 311.672 507.059 311.302L507.614 309.636C507.614 308.897 507.151 308.526 506.226 308.526C499.011 308.526 484.859 316.76 463.769 333.227C442.864 349.694 420.757 369.122 397.447 391.509C374.322 413.897 352.031 436.377 330.571 458.95C309.296 481.523 294.126 498.915 285.061 511.127C283.396 513.162 281.916 514.18 280.621 514.18C279.326 514.18 278.679 513.717 278.679 512.792C278.679 512.052 279.326 510.479 280.621 508.074ZM346.205 449.474C346.205 450.664 346.879 451.258 348.227 451.258C349.575 451.258 350.804 450.664 351.914 449.474C353.024 448.206 353.579 447.254 353.579 446.62C353.579 445.985 353.341 445.43 352.865 444.954C352.469 444.479 351.835 444.241 350.963 444.241C350.17 444.241 349.179 444.796 347.989 445.906C346.8 447.016 346.205 448.206 346.205 449.474ZM318.139 488.845C318.139 489.162 318.337 489.32 318.733 489.32C320.16 489.32 327.256 485.118 340.021 476.712L340.14 478.259L335.264 481.47C332.013 483.611 328.446 485.752 324.561 487.893C320.676 489.955 318.099 490.986 316.83 490.986C315.879 490.986 315.403 490.232 315.403 488.726C315.403 487.14 317.782 483.135 322.539 476.712C327.375 470.21 332.489 464.223 337.881 458.752C338.436 458.118 339.03 457.8 339.664 457.8L342.4 458.038C343.034 458.117 343.351 458.316 343.351 458.633C343.351 458.871 343.113 459.307 342.638 459.941C339.466 463.113 334.788 468.228 328.604 475.285C322.499 482.342 319.011 486.862 318.139 488.845ZM338.765 479.21L338.408 477.783L342.332 475.285C348.279 471.32 352.005 468.545 353.512 466.959C355.018 465.294 355.93 464.263 356.247 463.866C358.308 461.25 359.458 459.783 359.696 459.466C360.647 459.783 361.123 460.734 361.123 462.32C359.537 464.62 357.397 467.395 354.701 470.646C352.005 473.818 349.785 476.474 348.041 478.615C346.297 480.677 345.425 481.867 345.425 482.184C345.425 482.501 345.464 482.66 345.543 482.66C345.702 482.66 346.297 482.263 347.327 481.47C348.437 480.598 351.371 478.496 356.128 475.166C365.721 468.505 371.826 464.303 374.443 462.558C377.059 460.734 378.724 459.822 379.438 459.822C380.231 459.822 380.627 460.615 380.627 462.201C380.627 463.708 379.438 466.007 377.059 469.1C374.681 472.192 372.064 475.047 369.21 477.664C361.599 484.642 357.793 488.488 357.793 489.201C357.793 489.281 357.952 489.32 358.269 489.32C359.22 489.32 364.572 486.188 374.324 479.924L379.2 476.712L379.319 478.259C366.554 486.743 358.784 490.986 356.009 490.986C355.533 490.986 355.295 490.748 355.295 490.272C355.295 487.338 357.119 483.889 360.766 479.924C364.493 475.88 368.179 472.272 371.826 469.1C375.473 465.849 377.297 463.708 377.297 462.677C377.297 462.518 377.218 462.439 377.059 462.439C374.76 463.549 369.408 467.078 361.004 473.025C352.679 478.893 347.803 482.342 346.376 483.373C342.65 486.149 340.667 487.615 340.43 487.774C340.271 487.853 339.875 488.25 339.24 488.963C337.813 490.47 336.505 491.223 335.316 491.223C333.413 491.065 332.422 490.946 332.343 490.867C332.263 490.787 332.224 490.708 332.224 490.629C332.224 490.549 332.898 489.796 334.245 488.369C335.514 487.021 336.782 485.673 338.051 484.325C342.253 479.646 345.147 476.316 346.733 474.333L338.765 479.21ZM401.573 460.298C401.573 460.06 401.415 459.941 401.098 459.941C398.957 459.941 395.627 461.805 391.108 465.532C386.588 469.259 382.664 473.342 379.334 477.783C383.298 476.514 387.976 473.659 393.367 469.219C398.838 464.778 401.573 461.805 401.573 460.298ZM374.101 488.369C374.101 489.4 374.497 489.915 375.29 489.915C376.242 489.915 378.382 489.281 381.712 488.012C385.042 486.664 387.778 485.356 389.918 484.087L401.573 476.712L401.692 478.259C393.367 483.809 387.143 487.338 383.021 488.845C378.977 490.351 376.281 491.104 374.934 491.104C372.714 491.104 371.604 489.717 371.604 486.941C371.604 483.215 372.951 479.488 375.647 475.761C378.343 472.034 381.475 468.981 385.042 466.602C388.689 464.223 392.178 462.281 395.508 460.774C398.917 459.267 401.494 458.514 403.238 458.514C404.982 458.514 405.855 459.109 405.855 460.298C405.855 463.232 402.366 466.8 395.389 471.003C388.491 475.206 382.743 477.981 378.145 479.329C375.449 483.215 374.101 486.228 374.101 488.369Z" fill="#F5F5DC"/>
<path d="M134.544 563.36C132.24 563.36 130.116 562.976 128.172 562.208C126.252 561.416 124.752 560.336 123.672 558.968C123.48 558.728 123.384 558.476 123.384 558.212C123.384 557.876 123.564 557.552 123.924 557.24C124.116 557.096 124.32 557.024 124.536 557.024C124.968 557.024 125.352 557.228 125.688 557.636C126.672 558.716 127.908 559.556 129.396 560.156C130.908 560.732 132.624 561.02 134.544 561.02C136.656 561.02 138.288 560.636 139.44 559.868C140.592 559.076 141.168 557.96 141.168 556.52C141.168 555.272 140.604 554.264 139.476 553.496C138.372 552.728 136.488 552.044 133.824 551.444C130.344 550.676 127.836 549.716 126.3 548.564C124.788 547.388 124.032 545.84 124.032 543.92C124.032 541.928 124.872 540.356 126.552 539.204C128.256 538.028 130.548 537.44 133.428 537.44C135.612 537.44 137.58 537.824 139.332 538.592C141.108 539.36 142.368 540.392 143.112 541.688C143.256 541.928 143.328 542.156 143.328 542.372C143.328 542.756 143.124 543.092 142.716 543.38C142.548 543.476 142.356 543.524 142.14 543.524C141.612 543.524 141.204 543.32 140.916 542.912C140.22 541.904 139.236 541.136 137.964 540.608C136.692 540.056 135.18 539.78 133.428 539.78C128.988 539.78 126.768 541.16 126.768 543.92C126.768 544.76 126.996 545.468 127.452 546.044C127.908 546.596 128.64 547.1 129.648 547.556C130.68 547.988 132.108 548.42 133.932 548.852C137.484 549.692 140.04 550.712 141.6 551.912C143.16 553.088 143.94 554.624 143.94 556.52C143.94 558.632 143.088 560.3 141.384 561.524C139.704 562.748 137.424 563.36 134.544 563.36ZM158.328 573.764C157.92 573.764 157.596 573.632 157.356 573.368C157.14 573.128 157.032 572.78 157.032 572.324V546.44C157.032 545.984 157.14 545.636 157.356 545.396C157.596 545.132 157.92 545 158.328 545C158.76 545 159.084 545.132 159.3 545.396C159.54 545.66 159.66 546.008 159.66 546.44V548.744C161.508 546.248 164.172 545 167.652 545C170.556 545 172.836 545.804 174.492 547.412C176.172 549.02 177.012 551.228 177.012 554.036C177.012 555.932 176.628 557.588 175.86 559.004C175.092 560.396 173.988 561.476 172.548 562.244C171.132 562.988 169.464 563.36 167.544 563.36C165.888 563.36 164.424 563.072 163.152 562.496C161.904 561.896 160.752 560.96 159.696 559.688V572.324C159.696 572.756 159.576 573.104 159.336 573.368C159.096 573.632 158.76 573.764 158.328 573.764ZM167.364 561.092C169.548 561.092 171.252 560.468 172.476 559.22C173.724 557.948 174.348 556.196 174.348 553.964C174.348 551.804 173.736 550.148 172.512 548.996C171.312 547.844 169.584 547.268 167.328 547.268C164.952 547.268 163.08 547.88 161.712 549.104C160.344 550.304 159.66 551.948 159.66 554.036C159.66 555.428 159.972 556.664 160.596 557.744C161.244 558.8 162.144 559.628 163.296 560.228C164.472 560.804 165.828 561.092 167.364 561.092ZM196.308 563.36C193.956 563.36 192.108 562.844 190.764 561.812C189.444 560.78 188.784 559.352 188.784 557.528C188.784 555.728 189.48 554.3 190.872 553.244C192.288 552.188 194.208 551.66 196.632 551.66C198.048 551.66 199.296 551.852 200.376 552.236C201.48 552.62 202.332 553.136 202.932 553.784V551.48C202.932 550.112 202.476 549.068 201.564 548.348C200.676 547.628 199.368 547.268 197.64 547.268C195.408 547.268 193.476 547.796 191.844 548.852C191.436 549.092 191.1 549.212 190.836 549.212C190.596 549.212 190.356 549.116 190.116 548.924C189.852 548.708 189.72 548.432 189.72 548.096C189.72 547.736 189.876 547.436 190.188 547.196C191.052 546.524 192.144 545.996 193.464 545.612C194.808 545.204 196.176 545 197.568 545C200.112 545 202.08 545.576 203.472 546.728C204.888 547.88 205.596 549.5 205.596 551.588V561.956C205.596 562.892 205.164 563.36 204.3 563.36C203.916 563.36 203.604 563.24 203.364 563C203.124 562.736 203.004 562.4 203.004 561.992V560.696C201.516 562.472 199.284 563.36 196.308 563.36ZM196.632 561.164C198.504 561.164 200.028 560.816 201.204 560.12C202.38 559.4 202.968 558.476 202.968 557.348C202.968 556.22 202.416 555.356 201.312 554.756C200.232 554.132 198.696 553.82 196.704 553.82C195.024 553.82 193.728 554.144 192.816 554.792C191.904 555.416 191.448 556.328 191.448 557.528C191.448 558.704 191.892 559.604 192.78 560.228C193.668 560.852 194.952 561.164 196.632 561.164ZM220.434 563.36C220.026 563.36 219.702 563.24 219.462 563C219.246 562.736 219.138 562.376 219.138 561.92V546.44C219.138 545.984 219.246 545.636 219.462 545.396C219.678 545.132 220.002 545 220.434 545C220.842 545 221.154 545.132 221.37 545.396C221.61 545.636 221.73 545.984 221.73 546.44V548.6C223.362 546.44 225.618 545.36 228.498 545.36H229.398C229.854 545.36 230.214 545.468 230.478 545.684C230.742 545.876 230.874 546.152 230.874 546.512C230.874 546.872 230.742 547.148 230.478 547.34C230.214 547.532 229.854 547.628 229.398 547.628H228.39C226.35 547.628 224.73 548.216 223.53 549.392C222.354 550.544 221.766 552.116 221.766 554.108V561.92C221.766 562.352 221.646 562.7 221.406 562.964C221.19 563.228 220.866 563.36 220.434 563.36ZM244.685 563.36C244.277 563.36 243.953 563.24 243.713 563C243.497 562.736 243.389 562.376 243.389 561.92V537.116C243.389 536.66 243.497 536.312 243.713 536.072C243.953 535.808 244.277 535.676 244.685 535.676C245.093 535.676 245.417 535.808 245.657 536.072C245.897 536.312 246.017 536.66 246.017 537.116V553.244L257.969 545.18C258.209 545.012 258.461 544.928 258.725 544.928C259.133 544.928 259.433 545.096 259.625 545.432C259.745 545.6 259.805 545.828 259.805 546.116C259.805 546.548 259.613 546.884 259.229 547.124L252.785 551.408C254.873 552.824 256.493 554.384 257.645 556.088C258.797 557.768 259.589 559.724 260.021 561.956C260.093 562.34 260.021 562.676 259.805 562.964C259.589 563.228 259.277 563.36 258.869 563.36C258.077 563.36 257.609 563.024 257.465 562.352C256.961 560.048 256.217 558.224 255.233 556.88C254.273 555.512 252.749 554.156 250.661 552.812L246.017 555.944V561.92C246.017 562.352 245.897 562.7 245.657 562.964C245.441 563.228 245.117 563.36 244.685 563.36ZM274.926 563.36C274.518 563.36 274.194 563.24 273.954 563C273.738 562.736 273.63 562.376 273.63 561.92V537.116C273.63 536.66 273.738 536.312 273.954 536.072C274.194 535.808 274.518 535.676 274.926 535.676C275.334 535.676 275.658 535.808 275.898 536.072C276.138 536.312 276.258 536.66 276.258 537.116V561.92C276.258 562.352 276.138 562.7 275.898 562.964C275.682 563.228 275.358 563.36 274.926 563.36ZM299.51 563.36C296.39 563.36 293.978 562.556 292.274 560.948C290.57 559.34 289.718 557.06 289.718 554.108C289.718 551.276 290.582 549.056 292.31 547.448C294.038 545.816 296.402 545 299.402 545C301.25 545 302.894 545.3 304.334 545.9C305.774 546.476 306.89 547.304 307.682 548.384C308.498 549.44 308.906 550.652 308.906 552.02C308.906 553.028 308.618 553.808 308.042 554.36C307.49 554.912 306.722 555.188 305.738 555.188H292.418C292.418 557.036 293.042 558.488 294.29 559.544C295.538 560.576 297.278 561.092 299.51 561.092C300.878 561.092 302.054 560.948 303.038 560.66C304.022 560.348 304.946 559.856 305.81 559.184C306.266 558.8 306.638 558.608 306.926 558.608C307.142 558.608 307.346 558.704 307.538 558.896C307.874 559.184 308.042 559.484 308.042 559.796C308.042 560.036 307.898 560.3 307.61 560.588C306.626 561.524 305.474 562.22 304.154 562.676C302.834 563.132 301.286 563.36 299.51 563.36ZM304.946 553.064C305.378 553.064 305.702 552.98 305.918 552.812C306.134 552.62 306.242 552.284 306.242 551.804C306.242 550.94 305.954 550.16 305.378 549.464C304.802 548.768 303.986 548.228 302.93 547.844C301.898 547.46 300.722 547.268 299.402 547.268C297.266 547.268 295.574 547.796 294.326 548.852C293.102 549.884 292.49 551.288 292.49 553.064H304.946ZM350.512 563.36C348.208 563.36 346.084 562.976 344.14 562.208C342.22 561.416 340.72 560.336 339.64 558.968C339.448 558.728 339.352 558.476 339.352 558.212C339.352 557.876 339.532 557.552 339.892 557.24C340.084 557.096 340.288 557.024 340.504 557.024C340.936 557.024 341.32 557.228 341.656 557.636C342.64 558.716 343.876 559.556 345.364 560.156C346.876 560.732 348.592 561.02 350.512 561.02C352.624 561.02 354.256 560.636 355.408 559.868C356.56 559.076 357.136 557.96 357.136 556.52C357.136 555.272 356.572 554.264 355.444 553.496C354.34 552.728 352.456 552.044 349.792 551.444C346.312 550.676 343.804 549.716 342.268 548.564C340.756 547.388 340 545.84 340 543.92C340 541.928 340.84 540.356 342.52 539.204C344.224 538.028 346.516 537.44 349.396 537.44C351.58 537.44 353.548 537.824 355.3 538.592C357.076 539.36 358.336 540.392 359.08 541.688C359.224 541.928 359.296 542.156 359.296 542.372C359.296 542.756 359.092 543.092 358.684 543.38C358.516 543.476 358.324 543.524 358.108 543.524C357.58 543.524 357.172 543.32 356.884 542.912C356.188 541.904 355.204 541.136 353.932 540.608C352.66 540.056 351.148 539.78 349.396 539.78C344.956 539.78 342.736 541.16 342.736 543.92C342.736 544.76 342.964 545.468 343.42 546.044C343.876 546.596 344.608 547.1 345.616 547.556C346.648 547.988 348.076 548.42 349.9 548.852C353.452 549.692 356.008 550.712 357.568 551.912C359.128 553.088 359.908 554.624 359.908 556.52C359.908 558.632 359.056 560.3 357.352 561.524C355.672 562.748 353.392 563.36 350.512 563.36ZM378.16 563.36C377.248 563.36 376.456 563.072 375.784 562.496C375.112 561.896 374.68 561.104 374.488 560.12L371.752 546.332C371.68 545.948 371.764 545.636 372.004 545.396C372.244 545.132 372.568 545 372.976 545C373.456 545 373.804 545.084 374.02 545.252C374.26 545.396 374.416 545.672 374.488 546.08L377.08 559.832C377.224 560.672 377.584 561.092 378.16 561.092C378.496 561.092 378.748 560.996 378.916 560.804C379.084 560.612 379.204 560.288 379.276 559.832L381.22 547.7C381.34 546.908 381.676 546.26 382.228 545.756C382.78 545.252 383.428 545 384.172 545C384.916 545 385.564 545.252 386.116 545.756C386.692 546.26 387.04 546.908 387.16 547.7L389.068 559.832C389.14 560.288 389.26 560.612 389.428 560.804C389.62 560.996 389.884 561.092 390.22 561.092C390.796 561.092 391.156 560.672 391.3 559.832L393.856 546.08C393.928 545.672 394.072 545.396 394.288 545.252C394.528 545.084 394.888 545 395.368 545C395.824 545 396.16 545.132 396.376 545.396C396.616 545.66 396.7 545.972 396.628 546.332L393.856 560.12C393.64 561.128 393.196 561.92 392.524 562.496C391.852 563.072 391.084 563.36 390.22 563.36C388.276 563.36 387.124 562.256 386.764 560.048L384.856 548.204C384.736 547.58 384.508 547.268 384.172 547.268C383.812 547.268 383.584 547.58 383.488 548.204L381.58 560.048C381.22 562.256 380.08 563.36 378.16 563.36ZM417.074 563.36C413.954 563.36 411.542 562.556 409.838 560.948C408.134 559.34 407.282 557.06 407.282 554.108C407.282 551.276 408.146 549.056 409.874 547.448C411.602 545.816 413.966 545 416.966 545C418.814 545 420.458 545.3 421.898 545.9C423.338 546.476 424.454 547.304 425.246 548.384C426.062 549.44 426.47 550.652 426.47 552.02C426.47 553.028 426.182 553.808 425.606 554.36C425.054 554.912 424.286 555.188 423.302 555.188H409.982C409.982 557.036 410.606 558.488 411.854 559.544C413.102 560.576 414.842 561.092 417.074 561.092C418.442 561.092 419.618 560.948 420.602 560.66C421.586 560.348 422.51 559.856 423.374 559.184C423.83 558.8 424.202 558.608 424.49 558.608C424.706 558.608 424.91 558.704 425.102 558.896C425.438 559.184 425.606 559.484 425.606 559.796C425.606 560.036 425.462 560.3 425.174 560.588C424.19 561.524 423.038 562.22 421.718 562.676C420.398 563.132 418.85 563.36 417.074 563.36ZM422.51 553.064C422.942 553.064 423.266 552.98 423.482 552.812C423.698 552.62 423.806 552.284 423.806 551.804C423.806 550.94 423.518 550.16 422.942 549.464C422.366 548.768 421.55 548.228 420.494 547.844C419.462 547.46 418.286 547.268 416.966 547.268C414.83 547.268 413.138 547.796 411.89 548.852C410.666 549.884 410.054 551.288 410.054 553.064H422.51ZM448.003 563.36C444.883 563.36 442.471 562.556 440.767 560.948C439.063 559.34 438.211 557.06 438.211 554.108C438.211 551.276 439.075 549.056 440.803 547.448C442.531 545.816 444.895 545 447.895 545C449.743 545 451.387 545.3 452.827 545.9C454.267 546.476 455.383 547.304 456.175 548.384C456.991 549.44 457.399 550.652 457.399 552.02C457.399 553.028 457.111 553.808 456.535 554.36C455.983 554.912 455.215 555.188 454.231 555.188H440.911C440.911 557.036 441.535 558.488 442.783 559.544C444.031 560.576 445.771 561.092 448.003 561.092C449.371 561.092 450.547 560.948 451.531 560.66C452.515 560.348 453.439 559.856 454.303 559.184C454.759 558.8 455.131 558.608 455.419 558.608C455.635 558.608 455.839 558.704 456.031 558.896C456.367 559.184 456.535 559.484 456.535 559.796C456.535 560.036 456.391 560.3 456.103 560.588C455.119 561.524 453.967 562.22 452.647 562.676C451.327 563.132 449.779 563.36 448.003 563.36ZM453.439 553.064C453.871 553.064 454.195 552.98 454.411 552.812C454.627 552.62 454.735 552.284 454.735 551.804C454.735 550.94 454.447 550.16 453.871 549.464C453.295 548.768 452.479 548.228 451.423 547.844C450.391 547.46 449.215 547.268 447.895 547.268C445.759 547.268 444.067 547.796 442.819 548.852C441.595 549.884 440.983 551.288 440.983 553.064H453.439ZM481.222 559.436C481.486 559.652 481.618 559.904 481.618 560.192C481.618 560.432 481.51 560.72 481.294 561.056C480.79 561.752 480.094 562.316 479.206 562.748C478.318 563.156 477.406 563.36 476.47 563.36C474.886 563.36 473.638 562.892 472.726 561.956C471.814 561.02 471.358 559.736 471.358 558.104V547.556H469.414C468.454 547.556 467.974 547.184 467.974 546.44C467.974 546.104 468.094 545.84 468.334 545.648C468.598 545.456 468.958 545.36 469.414 545.36H471.358V539.204C471.358 538.748 471.466 538.4 471.682 538.16C471.922 537.896 472.258 537.764 472.69 537.764C473.098 537.764 473.41 537.896 473.626 538.16C473.866 538.4 473.986 538.748 473.986 539.204V545.36H478.882C479.314 545.36 479.65 545.456 479.89 545.648C480.154 545.816 480.286 546.08 480.286 546.44C480.286 547.184 479.818 547.556 478.882 547.556H473.986V558.32C473.986 560.168 474.85 561.092 476.578 561.092C477.13 561.092 477.634 560.984 478.09 560.768C478.546 560.552 479.002 560.204 479.458 559.724C479.818 559.34 480.166 559.148 480.502 559.148C480.718 559.148 480.958 559.244 481.222 559.436ZM179.42 610.36C176.876 610.36 174.656 609.832 172.76 608.776C170.864 607.72 169.4 606.22 168.368 604.276C167.336 602.308 166.82 600.028 166.82 597.436C166.82 594.844 167.336 592.564 168.368 590.596C169.4 588.628 170.864 587.116 172.76 586.06C174.68 584.98 176.9 584.44 179.42 584.44C181.46 584.44 183.356 584.788 185.108 585.484C186.884 586.18 188.24 587.14 189.176 588.364C189.392 588.604 189.5 588.892 189.5 589.228C189.5 589.612 189.332 589.912 188.996 590.128C188.78 590.272 188.54 590.344 188.276 590.344C188.06 590.344 187.844 590.296 187.628 590.2C187.412 590.08 187.232 589.936 187.088 589.768C186.344 588.832 185.312 588.1 183.992 587.572C182.672 587.02 181.148 586.744 179.42 586.744C177.404 586.744 175.652 587.176 174.164 588.04C172.676 588.904 171.536 590.14 170.744 591.748C169.952 593.356 169.556 595.252 169.556 597.436C169.556 600.748 170.432 603.352 172.184 605.248C173.936 607.12 176.348 608.056 179.42 608.056C181.028 608.056 182.456 607.804 183.704 607.3C184.952 606.772 185.924 606.052 186.62 605.14C187.34 604.204 187.7 603.148 187.7 601.972V600.748C187.7 600.1 187.568 599.632 187.304 599.344C187.064 599.056 186.596 598.912 185.9 598.912H180.428C179.516 598.912 179.06 598.552 179.06 597.832C179.06 597.064 179.516 596.68 180.428 596.68H186.368C187.736 596.68 188.756 596.98 189.428 597.58C190.1 598.18 190.436 599.104 190.436 600.352V601.72C190.436 603.328 189.956 604.792 188.996 606.112C188.036 607.432 186.716 608.476 185.036 609.244C183.356 609.988 181.484 610.36 179.42 610.36ZM204.86 610.36C204.452 610.36 204.128 610.24 203.888 610C203.672 609.736 203.564 609.376 203.564 608.92V593.44C203.564 592.984 203.672 592.636 203.888 592.396C204.104 592.132 204.428 592 204.86 592C205.268 592 205.58 592.132 205.796 592.396C206.036 592.636 206.156 592.984 206.156 593.44V595.6C207.788 593.44 210.044 592.36 212.924 592.36H213.824C214.28 592.36 214.64 592.468 214.904 592.684C215.168 592.876 215.3 593.152 215.3 593.512C215.3 593.872 215.168 594.148 214.904 594.34C214.64 594.532 214.28 594.628 213.824 594.628H212.816C210.776 594.628 209.156 595.216 207.956 596.392C206.78 597.544 206.192 599.116 206.192 601.108V608.92C206.192 609.352 206.072 609.7 205.832 609.964C205.616 610.228 205.292 610.36 204.86 610.36ZM232.678 610.36C230.326 610.36 228.478 609.844 227.134 608.812C225.814 607.78 225.154 606.352 225.154 604.528C225.154 602.728 225.85 601.3 227.242 600.244C228.658 599.188 230.578 598.66 233.002 598.66C234.418 598.66 235.666 598.852 236.746 599.236C237.85 599.62 238.702 600.136 239.302 600.784V598.48C239.302 597.112 238.846 596.068 237.934 595.348C237.046 594.628 235.738 594.268 234.01 594.268C231.778 594.268 229.846 594.796 228.214 595.852C227.806 596.092 227.47 596.212 227.206 596.212C226.966 596.212 226.726 596.116 226.486 595.924C226.222 595.708 226.09 595.432 226.09 595.096C226.09 594.736 226.246 594.436 226.558 594.196C227.422 593.524 228.514 592.996 229.834 592.612C231.178 592.204 232.546 592 233.938 592C236.482 592 238.45 592.576 239.842 593.728C241.258 594.88 241.966 596.5 241.966 598.588V608.956C241.966 609.892 241.534 610.36 240.67 610.36C240.286 610.36 239.974 610.24 239.734 610C239.494 609.736 239.374 609.4 239.374 608.992V607.696C237.886 609.472 235.654 610.36 232.678 610.36ZM233.002 608.164C234.874 608.164 236.398 607.816 237.574 607.12C238.75 606.4 239.338 605.476 239.338 604.348C239.338 603.22 238.786 602.356 237.682 601.756C236.602 601.132 235.066 600.82 233.074 600.82C231.394 600.82 230.098 601.144 229.186 601.792C228.274 602.416 227.818 603.328 227.818 604.528C227.818 605.704 228.262 606.604 229.15 607.228C230.038 607.852 231.322 608.164 233.002 608.164ZM256.732 620.764C256.324 620.764 256 620.632 255.76 620.368C255.544 620.128 255.436 619.78 255.436 619.324V593.44C255.436 592.984 255.544 592.636 255.76 592.396C256 592.132 256.324 592 256.732 592C257.164 592 257.488 592.132 257.704 592.396C257.944 592.66 258.064 593.008 258.064 593.44V595.744C259.912 593.248 262.576 592 266.056 592C268.96 592 271.24 592.804 272.896 594.412C274.576 596.02 275.416 598.228 275.416 601.036C275.416 602.932 275.032 604.588 274.264 606.004C273.496 607.396 272.392 608.476 270.952 609.244C269.536 609.988 267.868 610.36 265.948 610.36C264.292 610.36 262.828 610.072 261.556 609.496C260.308 608.896 259.156 607.96 258.1 606.688V619.324C258.1 619.756 257.98 620.104 257.74 620.368C257.5 620.632 257.164 620.764 256.732 620.764ZM265.768 608.092C267.952 608.092 269.656 607.468 270.88 606.22C272.128 604.948 272.752 603.196 272.752 600.964C272.752 598.804 272.14 597.148 270.916 595.996C269.716 594.844 267.988 594.268 265.732 594.268C263.356 594.268 261.484 594.88 260.116 596.104C258.748 597.304 258.064 598.948 258.064 601.036C258.064 602.428 258.376 603.664 259 604.744C259.648 605.8 260.548 606.628 261.7 607.228C262.876 607.804 264.232 608.092 265.768 608.092ZM296.944 610.36C293.824 610.36 291.412 609.556 289.708 607.948C288.004 606.34 287.152 604.06 287.152 601.108C287.152 598.276 288.016 596.056 289.744 594.448C291.472 592.816 293.836 592 296.836 592C298.684 592 300.328 592.3 301.768 592.9C303.208 593.476 304.324 594.304 305.116 595.384C305.932 596.44 306.34 597.652 306.34 599.02C306.34 600.028 306.052 600.808 305.476 601.36C304.924 601.912 304.156 602.188 303.172 602.188H289.852C289.852 604.036 290.476 605.488 291.724 606.544C292.972 607.576 294.712 608.092 296.944 608.092C298.312 608.092 299.488 607.948 300.472 607.66C301.456 607.348 302.38 606.856 303.244 606.184C303.7 605.8 304.072 605.608 304.36 605.608C304.576 605.608 304.78 605.704 304.972 605.896C305.308 606.184 305.476 606.484 305.476 606.796C305.476 607.036 305.332 607.3 305.044 607.588C304.06 608.524 302.908 609.22 301.588 609.676C300.268 610.132 298.72 610.36 296.944 610.36ZM302.38 600.064C302.812 600.064 303.136 599.98 303.352 599.812C303.568 599.62 303.676 599.284 303.676 598.804C303.676 597.94 303.388 597.16 302.812 596.464C302.236 595.768 301.42 595.228 300.364 594.844C299.332 594.46 298.156 594.268 296.836 594.268C294.7 594.268 293.008 594.796 291.76 595.852C290.536 596.884 289.924 598.288 289.924 600.064H302.38ZM344.562 610.36C343.53 610.36 342.702 610.024 342.078 609.352C341.454 608.68 341.01 607.636 340.746 606.22L336.822 586.024C336.774 585.784 336.75 585.616 336.75 585.52C336.75 584.8 337.158 584.44 337.974 584.44C338.478 584.44 338.838 584.548 339.054 584.764C339.27 584.98 339.414 585.304 339.486 585.736L343.302 606.292C343.422 606.964 343.578 607.432 343.77 607.696C343.962 607.936 344.238 608.056 344.598 608.056C344.982 608.056 345.27 607.924 345.462 607.66C345.654 607.372 345.798 606.928 345.894 606.328L348.738 587.788C348.906 586.684 349.254 585.856 349.782 585.304C350.334 584.728 351.03 584.44 351.87 584.44C353.598 584.44 354.63 585.556 354.966 587.788L357.81 606.328C357.906 606.952 358.05 607.396 358.242 607.66C358.434 607.924 358.722 608.056 359.106 608.056C359.442 608.056 359.706 607.924 359.898 607.66C360.114 607.396 360.282 606.94 360.402 606.292L364.218 585.736C364.29 585.28 364.434 584.956 364.65 584.764C364.89 584.548 365.25 584.44 365.73 584.44C366.546 584.44 366.954 584.8 366.954 585.52C366.954 585.616 366.93 585.784 366.882 586.024L362.958 606.22C362.694 607.564 362.262 608.596 361.662 609.316C361.086 610.012 360.246 610.36 359.142 610.36C358.11 610.36 357.294 610.024 356.694 609.352C356.118 608.68 355.722 607.648 355.506 606.256L352.698 588.076C352.626 587.596 352.518 587.26 352.374 587.068C352.254 586.852 352.086 586.744 351.87 586.744C351.63 586.744 351.438 586.852 351.294 587.068C351.174 587.26 351.078 587.596 351.006 588.076L348.198 606.256C347.982 607.648 347.574 608.68 346.974 609.352C346.398 610.024 345.594 610.36 344.562 610.36ZM382.011 588.184C381.483 588.184 381.027 588.016 380.643 587.68C380.283 587.32 380.103 586.888 380.103 586.384C380.103 585.88 380.283 585.448 380.643 585.088C381.027 584.728 381.483 584.548 382.011 584.548C382.539 584.548 382.995 584.74 383.379 585.124C383.787 585.484 383.991 585.904 383.991 586.384C383.991 586.864 383.787 587.284 383.379 587.644C382.995 588.004 382.539 588.184 382.011 588.184ZM382.011 610.36C381.603 610.36 381.279 610.24 381.039 610C380.823 609.736 380.715 609.376 380.715 608.92V593.44C380.715 592.984 380.823 592.636 381.039 592.396C381.279 592.132 381.603 592 382.011 592C382.443 592 382.767 592.132 382.983 592.396C383.223 592.636 383.343 592.984 383.343 593.44V608.92C383.343 609.376 383.223 609.736 382.983 610C382.767 610.24 382.443 610.36 382.011 610.36ZM399.039 610.36C398.631 610.36 398.307 610.24 398.067 610C397.851 609.736 397.743 609.376 397.743 608.92V593.44C397.743 592.984 397.851 592.636 398.067 592.396C398.283 592.132 398.607 592 399.039 592C399.447 592 399.759 592.132 399.975 592.396C400.215 592.636 400.335 592.984 400.335 593.44V595.564C401.223 594.388 402.291 593.5 403.539 592.9C404.811 592.3 406.203 592 407.715 592C409.995 592 411.747 592.636 412.971 593.908C414.219 595.18 414.843 597.004 414.843 599.38V608.92C414.843 609.376 414.723 609.736 414.483 610C414.243 610.24 413.919 610.36 413.511 610.36C413.079 610.36 412.755 610.24 412.539 610C412.323 609.736 412.215 609.376 412.215 608.92V599.38C412.215 595.972 410.607 594.268 407.391 594.268C405.279 594.268 403.575 594.892 402.279 596.14C401.007 597.388 400.371 599.044 400.371 601.108V608.92C400.371 609.352 400.251 609.7 400.011 609.964C399.795 610.228 399.471 610.36 399.039 610.36ZM437.175 610.36C434.055 610.36 431.643 609.556 429.939 607.948C428.235 606.34 427.383 604.06 427.383 601.108C427.383 598.276 428.247 596.056 429.975 594.448C431.703 592.816 434.067 592 437.067 592C438.915 592 440.559 592.3 441.999 592.9C443.439 593.476 444.555 594.304 445.347 595.384C446.163 596.44 446.571 597.652 446.571 599.02C446.571 600.028 446.283 600.808 445.707 601.36C445.155 601.912 444.387 602.188 443.403 602.188H430.083C430.083 604.036 430.707 605.488 431.955 606.544C433.203 607.576 434.943 608.092 437.175 608.092C438.543 608.092 439.719 607.948 440.703 607.66C441.687 607.348 442.611 606.856 443.475 606.184C443.931 605.8 444.303 605.608 444.591 605.608C444.807 605.608 445.011 605.704 445.203 605.896C445.539 606.184 445.707 606.484 445.707 606.796C445.707 607.036 445.563 607.3 445.275 607.588C444.291 608.524 443.139 609.22 441.819 609.676C440.499 610.132 438.951 610.36 437.175 610.36ZM442.611 600.064C443.043 600.064 443.367 599.98 443.583 599.812C443.799 599.62 443.907 599.284 443.907 598.804C443.907 597.94 443.619 597.16 443.043 596.464C442.467 595.768 441.651 595.228 440.595 594.844C439.563 594.46 438.387 594.268 437.067 594.268C434.931 594.268 433.239 594.796 431.991 595.852C430.767 596.884 430.155 598.288 430.155 600.064H442.611Z" fill="#F5F5DC"/>
<path d="M9.85753 830.248C-0.142468 821.448 -0.642468 800.582 0.357532 791.248H610.858C613.191 788.415 603.858 810.748 603.858 810.748C603.858 810.748 603.858 845.248 533.358 830.248C462.858 815.248 533.358 935.748 520.358 960.748C507.358 985.748 457.83 987.227 467.858 935.748C477.885 884.27 491.751 811.705 442.858 820.248C393.964 828.792 440.715 1147.5 434.358 1207.25C428 1267 371.715 1274.5 364.858 1207.25C358 1140 407.233 842.146 381.358 820.248C355.483 798.351 335.215 801.248 327.358 810.748C319.5 820.248 331.004 836.022 302.358 845.248C249.855 862.158 293.842 936.066 275.858 960.748C240.859 1008.78 249.479 912.693 249.358 845.248C249.29 807.665 215.858 810.748 206.358 810.748C196.858 810.748 201.328 816.409 176.858 845.248C155.011 870.996 136.621 815.98 119.858 810.748C103.094 805.517 105.908 838.038 87.8575 871.748C69.8074 905.459 129.189 1086.62 80.8575 1098.75C5.17213 1117.74 59.4908 933.554 54.3575 871.748C49.2243 809.943 22.3575 841.248 9.85753 830.248Z" fill="#888E3E"/>
</svg>
