<svg width="612" height="1255" viewBox="0 0 612 1255" fill="none" xmlns="http://www.w3.org/2000/svg">
<rect width="612" height="792" fill="#C48B8B"/>
<path d="M72.7815 725.12C72.5095 724.96 72.3735 724.744 72.3735 724.472C72.3735 724.28 72.4375 724.072 72.5655 723.848L80.2455 709.688H70.9815C70.6935 709.688 70.4615 709.632 70.2855 709.52C70.1255 709.392 70.0455 709.208 70.0455 708.968C70.0455 708.456 70.3575 708.2 70.9815 708.2H81.2055C81.5095 708.2 81.7415 708.28 81.9015 708.44C82.0775 708.6 82.1655 708.816 82.1655 709.088C82.1655 709.408 82.0775 709.728 81.9015 710.048L74.0295 724.76C73.8535 725.08 73.5975 725.24 73.2615 725.24C73.0695 725.24 72.9095 725.2 72.7815 725.12ZM96.5645 725.24C95.2845 725.24 94.1085 725 93.0365 724.52C91.9645 724.04 91.0605 723.352 90.3245 722.456C90.1645 722.248 90.0845 722.048 90.0845 721.856C90.0845 721.6 90.2045 721.392 90.4445 721.232C90.5885 721.136 90.7565 721.088 90.9485 721.088C91.2685 721.088 91.5085 721.208 91.6685 721.448C92.2125 722.2 92.9085 722.768 93.7565 723.152C94.6205 723.52 95.5485 723.704 96.5405 723.704C98.0765 723.704 99.2685 723.296 100.117 722.48C100.981 721.664 101.413 720.504 101.413 719C101.413 717.64 100.997 716.592 100.165 715.856C99.3325 715.104 98.2285 714.728 96.8525 714.728C96.0525 714.728 95.3005 714.872 94.5965 715.16C93.9085 715.448 93.3485 715.84 92.9165 716.336C92.5165 716.784 92.1405 717.008 91.7885 717.008C91.4685 717.008 91.2125 716.92 91.0205 716.744C90.8285 716.552 90.7565 716.312 90.8045 716.024L91.7405 709.76C91.8205 709.28 92.0285 708.904 92.3645 708.632C92.7165 708.344 93.1805 708.2 93.7565 708.2H101.509C102.133 708.2 102.445 708.456 102.445 708.968C102.445 709.208 102.357 709.392 102.181 709.52C102.021 709.632 101.797 709.688 101.509 709.688H94.2125C93.9245 709.688 93.7165 709.752 93.5885 709.88C93.4605 710.008 93.3725 710.216 93.3245 710.504L92.7005 714.704C93.3085 714.208 93.9885 713.832 94.7405 713.576C95.5085 713.304 96.3005 713.168 97.1165 713.168C98.2845 713.168 99.3325 713.4 100.261 713.864C101.189 714.328 101.909 715 102.421 715.88C102.949 716.744 103.213 717.776 103.213 718.976C103.213 720.224 102.949 721.32 102.421 722.264C101.893 723.208 101.125 723.944 100.117 724.472C99.1245 724.984 97.9405 725.24 96.5645 725.24ZM118.343 725.24C116.919 725.24 115.687 724.896 114.647 724.208C113.607 723.52 112.807 722.528 112.247 721.232C111.703 719.936 111.431 718.392 111.431 716.6C111.431 714.808 111.703 713.264 112.247 711.968C112.807 710.672 113.607 709.68 114.647 708.992C115.687 708.304 116.919 707.96 118.343 707.96C119.767 707.96 120.999 708.304 122.039 708.992C123.079 709.68 123.871 710.672 124.415 711.968C124.975 713.264 125.255 714.808 125.255 716.6C125.255 718.392 124.975 719.936 124.415 721.232C123.871 722.528 123.079 723.52 122.039 724.208C120.999 724.896 119.767 725.24 118.343 725.24ZM118.343 723.704C119.975 723.704 121.231 723.088 122.111 721.856C123.007 720.608 123.455 718.856 123.455 716.6C123.455 714.328 123.007 712.576 122.111 711.344C121.231 710.112 119.975 709.496 118.343 709.496C116.711 709.496 115.447 710.112 114.551 711.344C113.671 712.576 113.231 714.328 113.231 716.6C113.231 718.856 113.671 720.608 114.551 721.856C115.447 723.088 116.711 723.704 118.343 723.704ZM134.753 725.24C134.481 725.24 134.265 725.16 134.105 725C133.961 724.824 133.889 724.584 133.889 724.28V713.96C133.889 713.656 133.961 713.424 134.105 713.264C134.265 713.088 134.481 713 134.753 713C135.041 713 135.257 713.088 135.401 713.264C135.561 713.44 135.641 713.672 135.641 713.96V715.328C136.073 714.608 136.625 714.04 137.297 713.624C137.985 713.208 138.705 713 139.457 713C140.209 713 140.873 713.208 141.449 713.624C142.025 714.024 142.449 714.592 142.721 715.328C143.281 714.576 143.897 714 144.569 713.6C145.257 713.2 145.969 713 146.705 713C147.969 713 148.921 713.392 149.561 714.176C150.201 714.944 150.521 716.088 150.521 717.608V724.28C150.521 724.584 150.441 724.824 150.281 725C150.121 725.16 149.905 725.24 149.633 725.24C149.057 725.24 148.769 724.92 148.769 724.28V717.56C148.769 716.536 148.593 715.776 148.241 715.28C147.905 714.768 147.321 714.512 146.489 714.512C145.785 714.512 145.153 714.728 144.593 715.16C144.033 715.576 143.585 716.184 143.249 716.984V724.28C143.249 724.584 143.169 724.824 143.009 725C142.849 725.16 142.633 725.24 142.361 725.24C142.089 725.24 141.873 725.16 141.713 725C141.569 724.824 141.497 724.584 141.497 724.28V717.92C141.497 716.816 141.297 715.976 140.897 715.4C140.513 714.808 139.961 714.512 139.241 714.512C138.553 714.512 137.937 714.704 137.393 715.088C136.849 715.456 136.417 715.968 136.097 716.624C135.793 717.28 135.641 718.024 135.641 718.856V724.28C135.641 724.568 135.561 724.8 135.401 724.976C135.257 725.152 135.041 725.24 134.753 725.24ZM160.845 725.24C160.573 725.24 160.357 725.16 160.197 725C160.053 724.824 159.981 724.584 159.981 724.28V707.744C159.981 707.44 160.053 707.208 160.197 707.048C160.357 706.872 160.573 706.784 160.845 706.784C161.117 706.784 161.333 706.872 161.493 707.048C161.653 707.208 161.733 707.44 161.733 707.744V724.28C161.733 724.568 161.653 724.8 161.493 724.976C161.349 725.152 161.133 725.24 160.845 725.24Z" fill="#1E0B0B"/>
<path d="M438.512 725.24C438.24 725.24 438.024 725.16 437.864 725C437.704 724.824 437.624 724.584 437.624 724.28V710.024L434.624 711.176C434.48 711.24 434.32 711.272 434.144 711.272C433.76 711.272 433.496 711.112 433.352 710.792C433.304 710.664 433.28 710.544 433.28 710.432C433.28 710.048 433.488 709.784 433.904 709.64L438.2 708.032C438.344 707.984 438.48 707.96 438.608 707.96C438.848 707.96 439.048 708.048 439.208 708.224C439.368 708.4 439.448 708.624 439.448 708.896V724.28C439.448 724.584 439.36 724.824 439.184 725C439.024 725.16 438.8 725.24 438.512 725.24ZM454.762 725.24C453.482 725.24 452.29 725 451.186 724.52C450.082 724.04 449.162 723.352 448.426 722.456C448.266 722.248 448.186 722.048 448.186 721.856C448.186 721.6 448.306 721.392 448.546 721.232C448.706 721.12 448.874 721.064 449.05 721.064C449.338 721.064 449.578 721.2 449.77 721.472C450.298 722.176 451.002 722.728 451.882 723.128C452.778 723.512 453.738 723.704 454.762 723.704C456.234 723.704 457.386 723.416 458.218 722.84C459.066 722.248 459.49 721.432 459.49 720.392C459.49 719.272 459.194 718.424 458.602 717.848C458.026 717.256 457.17 716.96 456.034 716.96H453.346C452.706 716.96 452.386 716.712 452.386 716.216C452.386 715.704 452.706 715.448 453.346 715.448H456.034C456.93 715.448 457.658 715.192 458.218 714.68C458.794 714.152 459.082 713.472 459.082 712.64C459.082 711.632 458.714 710.856 457.978 710.312C457.258 709.768 456.218 709.496 454.858 709.496C453.914 709.496 453.042 709.664 452.242 710C451.458 710.336 450.786 710.824 450.226 711.464C450.018 711.704 449.786 711.824 449.53 711.824C449.37 711.824 449.186 711.76 448.978 711.632C448.754 711.488 448.642 711.288 448.642 711.032C448.642 710.808 448.73 710.608 448.906 710.432C449.658 709.632 450.538 709.024 451.546 708.608C452.57 708.176 453.674 707.96 454.858 707.96C456.746 707.96 458.218 708.384 459.274 709.232C460.346 710.08 460.882 711.216 460.882 712.64C460.882 713.36 460.666 714.024 460.234 714.632C459.818 715.224 459.21 715.72 458.41 716.12V716.168C459.386 716.552 460.106 717.096 460.57 717.8C461.05 718.488 461.29 719.352 461.29 720.392C461.29 721.368 461.018 722.224 460.474 722.96C459.93 723.696 459.162 724.264 458.17 724.664C457.194 725.048 456.058 725.24 454.762 725.24ZM471.047 725.12C470.951 725.056 470.871 724.968 470.807 724.856C470.743 724.744 470.711 724.624 470.711 724.496C470.711 724.352 470.775 724.176 470.903 723.968L481.679 708.296C481.855 708.04 482.079 707.912 482.351 707.912C482.511 707.912 482.679 707.96 482.855 708.056C483.127 708.216 483.263 708.424 483.263 708.68C483.263 708.856 483.207 709.024 483.095 709.184L472.295 724.904C472.119 725.16 471.879 725.288 471.575 725.288C471.383 725.288 471.207 725.232 471.047 725.12ZM473.087 715.184C472.415 715.184 471.791 715.024 471.215 714.704C470.655 714.368 470.207 713.92 469.871 713.36C469.535 712.8 469.367 712.192 469.367 711.536C469.367 710.88 469.535 710.272 469.871 709.712C470.207 709.152 470.655 708.712 471.215 708.392C471.791 708.072 472.415 707.912 473.087 707.912C473.775 707.912 474.399 708.072 474.959 708.392C475.535 708.712 475.983 709.152 476.303 709.712C476.639 710.272 476.807 710.88 476.807 711.536C476.807 712.192 476.639 712.8 476.303 713.36C475.983 713.92 475.535 714.368 474.959 714.704C474.399 715.024 473.775 715.184 473.087 715.184ZM473.087 713.672C473.679 713.672 474.175 713.472 474.575 713.072C474.975 712.656 475.175 712.144 475.175 711.536C475.175 710.928 474.975 710.416 474.575 710C474.175 709.584 473.679 709.376 473.087 709.376C472.479 709.376 471.975 709.584 471.575 710C471.175 710.416 470.975 710.928 470.975 711.536C470.975 712.144 471.175 712.656 471.575 713.072C471.975 713.472 472.479 713.672 473.087 713.672ZM481.103 725.24C480.431 725.24 479.807 725.08 479.231 724.76C478.671 724.424 478.223 723.976 477.887 723.416C477.551 722.856 477.383 722.248 477.383 721.592C477.383 720.936 477.551 720.328 477.887 719.768C478.223 719.208 478.671 718.768 479.231 718.448C479.807 718.128 480.431 717.968 481.103 717.968C481.775 717.968 482.391 718.128 482.951 718.448C483.527 718.768 483.975 719.208 484.295 719.768C484.631 720.328 484.799 720.936 484.799 721.592C484.799 722.248 484.631 722.856 484.295 723.416C483.975 723.976 483.527 724.424 482.951 724.76C482.391 725.08 481.775 725.24 481.103 725.24ZM481.103 723.728C481.679 723.728 482.167 723.528 482.567 723.128C482.983 722.712 483.191 722.2 483.191 721.592C483.191 720.984 482.991 720.472 482.591 720.056C482.191 719.64 481.695 719.432 481.103 719.432C480.495 719.432 479.983 719.64 479.567 720.056C479.167 720.472 478.967 720.984 478.967 721.592C478.967 722.2 479.167 722.712 479.567 723.128C479.983 723.528 480.495 723.728 481.103 723.728ZM511.291 725.24C510.523 725.24 509.867 725.008 509.323 724.544C508.795 724.08 508.355 723.36 508.003 722.384L505.027 714.152C504.995 714.024 504.979 713.936 504.979 713.888C504.979 713.712 505.035 713.552 505.147 713.408C505.259 713.248 505.403 713.136 505.579 713.072C505.659 713.04 505.779 713.024 505.939 713.024C506.131 713.024 506.291 713.072 506.419 713.168C506.563 713.264 506.667 713.4 506.731 713.576L509.755 721.904C510.011 722.592 510.251 723.072 510.475 723.344C510.699 723.616 510.971 723.752 511.291 723.752C511.611 723.752 511.883 723.624 512.107 723.368C512.347 723.096 512.587 722.624 512.827 721.952L515.851 713.576C515.995 713.208 516.259 713.024 516.643 713.024C516.931 713.024 517.163 713.112 517.339 713.288C517.531 713.448 517.627 713.648 517.627 713.888C517.627 713.936 517.611 714.024 517.579 714.152L514.555 722.432C514.203 723.408 513.763 724.12 513.235 724.568C512.707 725.016 512.059 725.24 511.291 725.24ZM531.237 725.24C529.845 725.24 528.653 724.96 527.661 724.4C526.669 723.84 525.917 723.096 525.405 722.168C524.909 721.224 524.661 720.208 524.661 719.12C524.661 718.032 524.909 717.024 525.405 716.096C525.917 715.152 526.669 714.4 527.661 713.84C528.653 713.28 529.845 713 531.237 713C532.629 713 533.813 713.28 534.789 713.84C535.781 714.4 536.525 715.152 537.021 716.096C537.533 717.024 537.789 718.032 537.789 719.12C537.789 720.208 537.533 721.224 537.021 722.168C536.525 723.096 535.781 723.84 534.789 724.4C533.813 724.96 532.629 725.24 531.237 725.24ZM531.237 723.728C532.677 723.728 533.829 723.32 534.693 722.504C535.573 721.688 536.013 720.56 536.013 719.12C536.013 717.68 535.573 716.552 534.693 715.736C533.829 714.92 532.677 714.512 531.237 714.512C529.781 714.512 528.613 714.92 527.733 715.736C526.869 716.552 526.437 717.68 526.437 719.12C526.437 720.56 526.869 721.688 527.733 722.504C528.613 723.32 529.781 723.728 531.237 723.728ZM547.671 725.24C547.399 725.24 547.183 725.16 547.023 725C546.879 724.824 546.807 724.584 546.807 724.28V707.744C546.807 707.44 546.879 707.208 547.023 707.048C547.183 706.872 547.399 706.784 547.671 706.784C547.943 706.784 548.159 706.872 548.319 707.048C548.479 707.208 548.559 707.44 548.559 707.744V724.28C548.559 724.568 548.479 724.8 548.319 724.976C548.175 725.152 547.959 725.24 547.671 725.24ZM559.092 724.976C558.708 724.976 558.38 724.848 558.108 724.592C557.836 724.32 557.7 724.008 557.7 723.656C557.7 723.288 557.836 722.968 558.108 722.696C558.38 722.424 558.708 722.288 559.092 722.288C559.46 722.288 559.78 722.424 560.052 722.696C560.324 722.968 560.46 723.288 560.46 723.656C560.46 724.008 560.324 724.32 560.052 724.592C559.78 724.848 559.46 724.976 559.092 724.976Z" fill="#1E0B0B"/>
<rect x="83.5" y="74.5" width="446" height="570" stroke="white" stroke-width="7"/>
<path d="M107.882 391.826C99.4782 391.826 91.7876 390.558 84.8105 388.02C77.6749 385.641 72.0457 381.439 67.9229 375.412C63.8 369.386 61.7386 361.06 61.7386 350.434C61.7386 340.919 64.5136 331.8 70.0636 323.077C75.4549 314.355 82.5113 306.266 91.2326 298.813C99.9539 291.2 109.072 284.619 118.586 279.068C125.246 275.262 132.144 271.773 139.279 268.601C146.415 265.429 153.63 262.733 160.924 260.513C151.885 252.425 145.067 242.988 140.468 232.204C136.029 221.42 133.809 210.319 133.809 198.9C133.809 188.433 135.632 178.204 139.279 168.213C143.085 158.221 148.714 149.102 156.167 140.856C163.62 132.45 172.817 125.631 183.758 120.397C192.955 116.115 201.914 113.102 210.636 111.358C219.515 109.613 228.316 108.741 237.037 108.741C247.186 108.741 257.255 109.772 267.245 111.834C277.393 113.737 287.621 115.957 297.928 118.494C308.394 120.873 319.018 122.697 329.801 123.966L333.844 124.442C339.87 119.049 345.737 115.005 351.445 112.309C357.312 109.455 362.942 108.027 368.333 108.027C370.553 108.027 372.694 108.265 374.755 108.741L375.707 108.979L376.182 109.455C377.451 110.089 378.085 111.12 378.085 112.547C378.085 114.292 377.134 116.274 375.231 118.494C373.487 120.715 371.425 122.697 369.047 124.442C366.668 126.186 364.527 127.217 362.625 127.534C355.648 128.803 348.274 129.279 340.504 128.961C334.161 135.939 327.898 144.265 321.714 153.94C315.529 163.455 309.9 172.97 304.826 182.486C312.754 187.244 318.701 193.112 322.665 200.09C326.788 206.909 328.849 214.046 328.849 221.499C328.849 231.649 325.044 241.64 317.432 251.473C309.979 261.306 298.483 269.156 282.943 275.024C288.81 281.843 291.744 289.694 291.744 298.575C291.744 306.346 289.92 313.007 286.273 318.557C282.785 324.267 278.028 328.945 272.002 332.593C265.976 336.399 259.158 339.174 251.547 340.919C244.094 342.822 236.403 343.773 228.475 343.773C225.145 343.773 221.735 343.615 218.247 343.297C214.917 342.98 211.666 342.504 208.495 341.87C196.602 354.24 184.075 364.707 170.914 373.271C157.753 381.994 144.195 387.465 130.241 389.685C126.435 390.32 122.629 390.796 118.824 391.113C115.177 391.589 111.53 391.826 107.882 391.826ZM344.072 125.155C349.622 125.155 355.172 124.759 360.722 123.966C366.43 123.173 370.791 121.666 373.804 119.446C374.597 118.97 375.31 118.256 375.944 117.305C376.579 116.353 376.896 115.402 376.896 114.45C376.896 113.182 376.182 112.23 374.755 111.596C373.169 111.12 371.504 110.882 369.76 110.882C365.796 110.882 361.594 112.151 357.154 114.688C352.873 117.226 348.512 120.715 344.072 125.155ZM165.681 259.086C180.428 254.804 195.413 252.663 210.636 252.663C225.383 252.663 237.91 253.931 248.217 256.469C252.815 248.063 257.017 240.213 260.823 232.918C264.787 225.623 268.276 219.2 271.288 213.649C277.473 201.755 283.657 190.812 289.841 180.821C281.754 177.49 272.081 175.825 260.823 175.825C248.296 175.825 237.275 178.363 227.761 183.437C218.405 188.354 211.666 194.301 207.543 201.279C204.848 205.878 203.5 210.636 203.5 215.552C203.5 220.627 205.165 225.702 208.495 230.777C211.825 235.852 217.216 240.292 224.669 244.099C225.303 244.574 225.62 245.05 225.62 245.526C225.62 245.843 225.303 246.16 224.669 246.477C224.193 246.636 223.559 246.557 222.766 246.24C214.679 242.116 208.733 237.358 204.927 231.966C201.28 226.574 199.456 221.024 199.456 215.314C199.456 209.764 201.042 204.451 204.214 199.376C208.812 191.605 216.106 185.103 226.096 179.869C236.245 174.477 247.82 171.781 260.823 171.781C266.849 171.781 272.478 172.257 277.711 173.208C282.943 174.001 287.78 175.191 292.22 176.777C298.721 166.468 305.143 157.27 311.486 149.182C317.829 140.935 324.013 133.878 330.039 128.01L329.087 127.772C314.499 124.124 300.624 121.19 287.463 118.97C274.301 116.591 261.219 115.402 248.217 115.402C239.495 115.402 230.536 116.353 221.339 118.256C212.301 120.16 202.866 123.411 193.034 128.01C182.093 133.085 172.817 139.825 165.205 148.23C157.753 156.477 152.044 165.596 148.08 175.587C144.274 185.578 142.371 195.649 142.371 205.799C142.371 215.79 144.274 225.464 148.08 234.821C152.044 244.019 157.911 252.107 165.681 259.086ZM279.138 270.98C292.775 265.429 302.844 258.055 309.345 248.856C316.005 239.658 319.335 230.38 319.335 221.024C319.335 214.68 317.829 208.653 314.816 202.944C311.962 197.076 307.68 192.001 301.972 187.719C297.532 196.125 293.647 203.896 290.317 211.032C286.987 218.169 284.45 223.799 282.705 227.922C277.948 238.865 272.319 250.363 265.818 262.416C268.513 263.526 270.971 264.874 273.191 266.46C275.411 267.887 277.393 269.394 279.138 270.98ZM231.805 279.782H234.421C236.482 276.451 238.465 273.121 240.367 269.79C242.429 266.46 244.332 263.209 246.076 260.037C236.403 257.658 224.59 256.469 210.636 256.469C203.817 256.469 196.999 257.024 190.18 258.134C183.52 259.244 176.86 260.751 170.2 262.654C177.494 268.046 186.216 272.249 196.364 275.262C206.671 278.275 218.485 279.782 231.805 279.782ZM112.164 388.258C119.617 388.258 127.386 386.989 135.474 384.452C145.305 381.28 155.136 375.491 164.968 367.086C174.957 358.839 184.63 349.086 193.986 337.826C186.692 334.813 180.349 330.927 174.957 326.17C169.566 321.412 166.87 315.703 166.87 309.042V308.566C166.87 307.456 167.425 306.901 168.535 306.901C169.487 306.901 170.042 307.456 170.2 308.566C170.993 314.91 173.768 320.302 178.525 324.742C183.282 329.183 189.149 332.672 196.126 335.209C202.628 327.28 208.891 318.874 214.917 309.993C220.943 301.112 226.651 292.31 232.042 283.588H231.805C217.692 283.588 205.086 281.923 193.986 278.592C182.886 275.103 173.372 270.266 165.443 264.081C157.673 266.619 149.903 269.711 142.133 273.359C134.522 276.848 127.149 280.654 120.013 284.777C102.253 295.244 89.4091 306.346 81.4806 318.081C73.3935 329.817 69.35 340.76 69.35 350.91C69.35 361.535 73.2349 370.417 81.0049 377.553C88.7748 384.69 99.1611 388.258 112.164 388.258ZM257.017 277.403C260.189 276.768 263.201 276.134 266.056 275.5C269.068 274.707 271.843 273.834 274.381 272.883C271.368 270.187 267.879 267.887 263.915 265.984C262.805 267.887 261.695 269.79 260.585 271.694C259.475 273.597 258.286 275.5 257.017 277.403ZM225.62 339.967C233.232 339.967 240.605 339.095 247.741 337.35C255.035 335.764 261.616 333.227 267.483 329.738C273.35 326.407 278.028 322.126 281.516 316.892C285.005 311.658 286.749 305.553 286.749 298.575C286.749 294.61 286.035 290.804 284.608 287.156C283.34 283.35 281.278 279.861 278.424 276.689C271.288 278.909 263.281 280.654 254.401 281.923C248.058 292.072 241.24 301.984 233.945 311.658C226.81 321.333 219.278 330.452 211.349 339.015C213.728 339.333 216.106 339.571 218.485 339.729C220.863 339.888 223.242 339.967 225.62 339.967ZM340.69 275.381V275.262C339.105 276.055 337.36 277.958 335.458 280.971C333.555 283.905 332.445 286.442 332.128 288.583C337.836 282.716 340.69 278.315 340.69 275.381ZM315.359 300.24C318.372 300.24 323.248 297.068 329.987 290.724V290.13C329.987 287.672 331.176 284.658 333.555 281.09C336.013 277.442 338.233 275.103 340.215 274.072C339.977 273.834 339.66 273.716 339.263 273.716C336.33 273.716 331.454 277.086 324.635 283.826C317.896 290.566 314.526 295.799 314.526 299.526C314.526 300.002 314.804 300.24 315.359 300.24ZM311.672 298.575C311.672 292.628 315.081 286.72 321.9 280.852C328.798 274.905 334.506 271.931 339.025 271.931C341.245 271.931 342.355 272.923 342.355 274.905C342.355 280.535 339.343 286.165 333.317 291.795C333.793 291.954 334.268 292.033 334.744 292.033C336.964 292.033 340.175 290.645 344.377 287.87L344.972 289.059C339.898 292.469 336.052 294.174 333.436 294.174C332.405 294.174 331.652 293.976 331.176 293.579C328.084 296.117 324.833 298.178 321.424 299.764C318.015 301.35 315.517 302.143 313.932 302.143C312.425 302.143 311.672 300.954 311.672 298.575ZM340.737 289.535C340.341 289.773 339.865 290.09 339.31 290.487L338.953 289.059C347.912 283.35 355.207 278.909 360.836 275.738L364.047 273.834C365.236 272.883 366.544 271.773 367.972 270.504C370.984 268.125 372.57 266.975 372.729 267.055C373.125 267.055 373.323 267.253 373.323 267.649C373.323 267.967 373.006 268.561 372.372 269.434C371.738 270.227 370.826 271.178 369.637 272.288C368.527 273.398 367.853 274.112 367.615 274.429C366.426 275.619 364.443 279.425 361.668 285.848C358.973 292.191 357.506 295.601 357.268 296.077C357.268 296.394 357.347 296.553 357.506 296.553C357.744 296.553 357.902 296.513 357.982 296.434L371.302 287.989L371.42 289.535C370.469 290.09 368.883 291.081 366.663 292.509C364.443 293.936 362.858 294.927 361.906 295.482C361.034 296.037 359.726 296.87 357.982 297.98C356.237 299.011 354.89 299.764 353.938 300.24C352.987 300.716 351.877 301.271 350.608 301.905C347.357 302.857 345.296 303.332 344.424 303.332C344.345 303.332 344.305 303.332 344.305 303.332C342.164 303.332 340.42 302.698 339.072 301.429C337.724 300.161 337.05 298.694 337.05 297.028C337.05 295.363 337.605 293.936 338.715 292.746C339.905 291.557 341.292 290.962 342.878 290.962C344.464 290.962 345.256 291.597 345.256 292.865C345.256 293.579 344.979 294.253 344.424 294.887C343.948 295.522 343.314 295.839 342.521 295.839C341.808 295.839 341.371 295.482 341.213 294.769C341.134 294.055 340.935 293.698 340.618 293.698C340.063 293.698 339.588 293.976 339.191 294.531C338.874 295.086 338.715 295.879 338.715 296.91C338.715 297.94 339.191 298.971 340.143 300.002C341.094 300.954 342.442 301.429 344.186 301.429C345.93 301.429 347.556 300.795 349.062 299.526C350.648 298.258 351.718 297.147 352.273 296.196C352.828 295.244 354.017 292.588 355.841 288.227C357.665 283.786 359.567 280.297 361.549 277.76L361.787 277.284C361.787 277.205 361.668 277.165 361.431 277.165C360.796 277.165 355.524 280.257 345.613 286.442L340.737 289.535ZM393.638 271.575C393.638 271.337 393.479 271.218 393.162 271.218C391.021 271.218 387.691 273.081 383.172 276.808C378.653 280.535 374.728 284.619 371.398 289.059C375.362 287.791 380.04 284.936 385.432 280.495C390.902 276.055 393.638 273.081 393.638 271.575ZM366.165 299.645C366.165 300.676 366.562 301.191 367.355 301.191C368.306 301.191 370.447 300.557 373.777 299.288C377.107 297.94 379.842 296.632 381.983 295.363L393.638 287.989L393.757 289.535C385.432 295.086 379.208 298.614 375.085 300.121C371.041 301.628 368.346 302.381 366.998 302.381C364.778 302.381 363.668 300.993 363.668 298.218C363.668 294.491 365.016 290.764 367.711 287.037C370.407 283.31 373.539 280.257 377.107 277.879C380.754 275.5 384.242 273.557 387.572 272.05C390.982 270.544 393.558 269.79 395.303 269.79C397.047 269.79 397.919 270.385 397.919 271.575C397.919 274.508 394.43 278.077 387.453 282.279C380.556 286.482 374.807 289.257 370.209 290.606C367.513 294.491 366.165 297.504 366.165 299.645ZM394.919 291.319C394.919 291.002 394.84 290.843 394.681 290.843C393.571 290.843 392.58 291.755 391.708 293.579C390.915 295.403 390.519 296.949 390.519 298.218C390.519 299.407 390.638 300.2 390.875 300.597C393.571 295.68 394.919 292.588 394.919 291.319ZM453.788 220.905C453.788 220.746 453.669 220.667 453.431 220.667C450.656 220.667 434.601 238.508 405.266 274.191C413.273 268.403 423.342 259.085 435.473 246.24C447.683 233.314 453.788 224.869 453.788 220.905ZM357.219 338.183C357.219 338.421 357.378 338.54 357.695 338.54C361.659 338.54 366.852 334.654 373.274 326.883C379.617 319.112 385.207 310.866 390.043 302.143C389.25 301.826 388.854 300.676 388.854 298.694C388.854 296.632 389.686 294.213 391.351 291.438C368.596 319.905 357.219 335.487 357.219 338.183ZM455.691 217.931C456.404 217.931 456.761 218.248 456.761 218.883C456.761 222.134 454.541 226.733 450.101 232.68C445.661 238.627 440.23 244.654 433.808 250.759C419.933 264.24 408.873 273.953 400.627 279.901L393.016 289.416C393.65 288.94 394.205 288.702 394.681 288.702C395.95 288.702 396.584 289.614 396.584 291.438C396.584 293.262 395.751 296.077 394.086 299.883C397.02 298.456 400.152 296.711 403.482 294.65L413.828 287.989L413.947 289.535C404.592 295.72 397.694 299.685 393.254 301.429C389.052 310.31 383.185 318.993 375.653 327.478C368.121 336.042 361.58 340.324 356.03 340.324C355.158 340.324 354.721 339.808 354.721 338.778C354.721 335.844 362.214 324.425 377.199 304.522C392.184 284.619 408.041 265.231 424.77 246.359C441.499 227.407 451.806 217.931 455.691 217.931ZM433.95 260.751C433.95 261.94 434.624 262.535 435.972 262.535C437.32 262.535 438.549 261.94 439.659 260.751C440.768 259.482 441.323 258.53 441.323 257.896C441.323 257.262 441.086 256.707 440.61 256.231C440.214 255.755 439.579 255.517 438.707 255.517C437.914 255.517 436.923 256.072 435.734 257.182C434.545 258.293 433.95 259.482 433.95 260.751ZM405.883 300.121C405.883 300.438 406.081 300.597 406.478 300.597C407.905 300.597 415.001 296.394 427.766 287.989L427.885 289.535L423.009 292.746C419.758 294.887 416.19 297.028 412.305 299.169C408.42 301.231 405.844 302.262 404.575 302.262C403.624 302.262 403.148 301.509 403.148 300.002C403.148 298.416 405.526 294.412 410.284 287.989C415.12 281.487 420.234 275.5 425.625 270.028C426.18 269.394 426.775 269.077 427.409 269.077L430.144 269.315C430.779 269.394 431.096 269.592 431.096 269.909C431.096 270.147 430.858 270.583 430.382 271.218C427.211 274.39 422.533 279.504 416.349 286.561C410.244 293.619 406.755 298.139 405.883 300.121ZM422.942 290.487L422.585 289.059L426.51 286.561C432.456 282.597 436.183 279.821 437.689 278.235C439.195 276.57 440.107 275.539 440.424 275.143C442.486 272.526 443.635 271.059 443.873 270.742C444.825 271.059 445.3 272.011 445.3 273.597C443.715 275.896 441.574 278.672 438.878 281.923C436.183 285.094 433.963 287.751 432.218 289.892C430.474 291.954 429.602 293.143 429.602 293.46C429.602 293.777 429.642 293.936 429.721 293.936C429.88 293.936 430.474 293.539 431.505 292.746C432.615 291.874 435.548 289.773 440.305 286.442C449.899 279.782 456.004 275.579 458.62 273.834C461.237 272.011 462.902 271.099 463.615 271.099C464.408 271.099 464.805 271.892 464.805 273.478C464.805 274.984 463.615 277.284 461.237 280.376C458.858 283.469 456.242 286.324 453.387 288.94C445.776 295.918 441.97 299.764 441.97 300.478C441.97 300.557 442.129 300.597 442.446 300.597C443.398 300.597 448.749 297.465 458.501 291.2L463.377 287.989L463.496 289.535C450.731 298.02 442.962 302.262 440.187 302.262C439.711 302.262 439.473 302.024 439.473 301.548C439.473 298.614 441.297 295.165 444.944 291.2C448.67 287.156 452.357 283.548 456.004 280.376C459.651 277.125 461.475 274.984 461.475 273.953C461.475 273.795 461.395 273.716 461.237 273.716C458.937 274.826 453.586 278.354 445.181 284.301C436.857 290.169 431.981 293.619 430.553 294.65C426.827 297.425 424.845 298.892 424.607 299.05C424.449 299.13 424.052 299.526 423.418 300.24C421.991 301.747 420.682 302.5 419.493 302.5C417.59 302.341 416.599 302.222 416.52 302.143C416.441 302.064 416.401 301.984 416.401 301.905C416.401 301.826 417.075 301.073 418.423 299.645C419.691 298.297 420.96 296.949 422.229 295.601C426.431 290.923 429.325 287.592 430.91 285.61L422.942 290.487ZM485.751 271.575C485.751 271.337 485.592 271.218 485.275 271.218C483.134 271.218 479.804 273.081 475.285 276.808C470.766 280.535 466.841 284.619 463.511 289.059C467.476 287.791 472.153 284.936 477.545 280.495C483.015 276.055 485.751 273.081 485.751 271.575ZM458.279 299.645C458.279 300.676 458.675 301.191 459.468 301.191C460.419 301.191 462.56 300.557 465.89 299.288C469.22 297.94 471.955 296.632 474.096 295.363L485.751 287.989L485.87 289.535C477.545 295.086 471.321 298.614 467.198 300.121C463.155 301.628 460.459 302.381 459.111 302.381C456.891 302.381 455.781 300.993 455.781 298.218C455.781 294.491 457.129 290.764 459.825 287.037C462.52 283.31 465.652 280.257 469.22 277.879C472.867 275.5 476.355 273.557 479.685 272.05C483.095 270.544 485.671 269.79 487.416 269.79C489.16 269.79 490.032 270.385 490.032 271.575C490.032 274.508 486.544 278.077 479.567 282.279C472.669 286.482 466.921 289.257 462.322 290.606C459.626 294.491 458.279 297.504 458.279 299.645ZM280.621 508.074L363.315 364.033C363.315 363.478 363.038 363.201 362.483 363.201C309.388 412.047 273.221 447.756 253.981 470.329C251.391 473.289 244.917 479.858 234.557 490.034C224.382 500.21 218.184 506.131 215.964 507.796C213.929 509.461 210.23 510.756 204.864 511.682C203.754 511.682 203.199 511.034 203.199 509.739C203.199 508.444 210.507 499.008 225.122 481.43C239.922 463.668 256.109 444.056 273.684 422.593C291.259 400.945 307.354 377.91 321.968 353.487C336.768 329.064 344.168 310.192 344.168 296.87C344.168 289.099 340.19 285.213 332.236 285.213C318.731 285.213 303.283 290.671 285.894 301.588C268.689 312.505 253.149 325.271 239.274 339.888C225.584 354.504 213.929 369.399 204.309 384.571C194.69 399.558 189.88 411.214 189.88 419.54C189.88 424.721 192.932 427.311 199.037 427.311C205.142 427.311 212.172 425.276 220.127 421.205C228.267 417.135 235.944 412.14 243.159 406.219C257.774 394.192 269.706 383.276 278.956 373.469L284.506 367.364C285.246 366.809 285.894 366.531 286.449 366.531C287.004 366.531 287.281 367.086 287.281 368.196C264.156 394.285 241.587 412.972 219.572 424.258C210.692 428.699 202.829 430.919 195.985 430.919C187.66 430.919 183.497 426.294 183.497 417.042C183.497 409.642 186.087 400.298 191.267 389.011C196.632 377.725 204.125 366.069 213.744 354.042C223.549 341.83 234.372 330.452 246.211 319.905C258.237 309.174 271.741 300.385 286.726 293.539C301.896 286.508 316.696 282.993 331.125 282.993C343.89 282.993 350.273 289.284 350.273 301.865C350.273 310.747 347.22 322.126 341.115 336.002C335.01 349.879 327.611 363.571 318.916 377.077C301.711 403.905 285.709 426.479 270.909 444.796L261.751 455.897L386.625 334.337C391.62 329.712 394.395 327.399 394.95 327.399C396.245 327.399 396.892 328.231 396.892 329.896C396.892 331.377 395.135 333.967 391.62 337.667C361.28 385.774 335.195 429.531 313.366 468.941L312.533 471.994C326.408 455.527 347.313 433.694 375.248 406.496C403.182 379.298 426.769 357.188 446.009 340.165C465.249 323.143 484.119 308.526 502.619 296.315C521.118 284.103 535.086 277.997 544.521 277.997C547.296 277.997 548.683 279.478 548.683 282.438C548.683 283.178 548.035 283.919 546.741 284.658C545.631 285.398 541.93 288.082 535.641 292.707C517.326 305.658 508.076 312.041 507.891 311.857C507.336 311.857 507.059 311.672 507.059 311.302L507.614 309.636C507.614 308.897 507.151 308.526 506.226 308.526C499.011 308.526 484.859 316.76 463.769 333.227C442.864 349.694 420.757 369.122 397.447 391.509C374.322 413.897 352.031 436.377 330.571 458.95C309.296 481.523 294.126 498.915 285.061 511.127C283.396 513.162 281.916 514.18 280.621 514.18C279.326 514.18 278.679 513.717 278.679 512.792C278.679 512.052 279.326 510.479 280.621 508.074ZM346.206 449.474C346.206 450.664 346.879 451.258 348.227 451.258C349.575 451.258 350.804 450.664 351.914 449.474C353.024 448.206 353.579 447.254 353.579 446.62C353.579 445.985 353.341 445.43 352.865 444.954C352.469 444.479 351.835 444.241 350.963 444.241C350.17 444.241 349.179 444.796 347.989 445.906C346.8 447.016 346.206 448.206 346.206 449.474ZM318.139 488.845C318.139 489.162 318.337 489.32 318.733 489.32C320.16 489.32 327.256 485.118 340.021 476.712L340.14 478.259L335.264 481.47C332.013 483.611 328.446 485.752 324.561 487.893C320.676 489.955 318.099 490.986 316.83 490.986C315.879 490.986 315.403 490.232 315.403 488.726C315.403 487.14 317.782 483.135 322.539 476.712C327.375 470.21 332.489 464.223 337.881 458.752C338.436 458.118 339.03 457.8 339.664 457.8L342.4 458.038C343.034 458.117 343.351 458.316 343.351 458.633C343.351 458.871 343.113 459.307 342.638 459.941C339.466 463.113 334.788 468.228 328.604 475.285C322.499 482.342 319.011 486.862 318.139 488.845ZM338.765 479.21L338.408 477.783L342.332 475.285C348.279 471.32 352.005 468.545 353.512 466.959C355.018 465.294 355.93 464.263 356.247 463.866C358.308 461.25 359.458 459.783 359.696 459.466C360.647 459.783 361.123 460.734 361.123 462.32C359.537 464.62 357.397 467.395 354.701 470.646C352.005 473.818 349.785 476.474 348.041 478.615C346.297 480.677 345.425 481.867 345.425 482.184C345.425 482.501 345.464 482.66 345.543 482.66C345.702 482.66 346.297 482.263 347.327 481.47C348.437 480.598 351.371 478.496 356.128 475.166C365.721 468.505 371.826 464.303 374.443 462.558C377.059 460.734 378.724 459.822 379.438 459.822C380.231 459.822 380.627 460.615 380.627 462.201C380.627 463.708 379.438 466.007 377.059 469.1C374.681 472.192 372.064 475.047 369.21 477.664C361.599 484.642 357.793 488.488 357.793 489.201C357.793 489.281 357.952 489.32 358.269 489.32C359.22 489.32 364.572 486.188 374.324 479.924L379.2 476.712L379.319 478.259C366.554 486.743 358.784 490.986 356.009 490.986C355.533 490.986 355.296 490.748 355.296 490.272C355.296 487.338 357.119 483.889 360.766 479.924C364.493 475.88 368.179 472.272 371.826 469.1C375.473 465.849 377.297 463.708 377.297 462.677C377.297 462.518 377.218 462.439 377.059 462.439C374.76 463.549 369.408 467.078 361.004 473.025C352.679 478.893 347.803 482.342 346.376 483.373C342.65 486.148 340.667 487.615 340.43 487.774C340.271 487.853 339.875 488.25 339.24 488.964C337.813 490.47 336.505 491.223 335.316 491.223C333.413 491.065 332.422 490.946 332.343 490.867C332.263 490.787 332.224 490.708 332.224 490.629C332.224 490.549 332.898 489.796 334.245 488.369C335.514 487.021 336.782 485.673 338.051 484.325C342.253 479.646 345.147 476.316 346.733 474.333L338.765 479.21ZM401.573 460.298C401.573 460.06 401.415 459.941 401.098 459.941C398.957 459.941 395.627 461.805 391.108 465.532C386.588 469.259 382.664 473.342 379.334 477.783C383.298 476.514 387.976 473.659 393.367 469.219C398.838 464.778 401.573 461.805 401.573 460.298ZM374.101 488.369C374.101 489.4 374.497 489.915 375.29 489.915C376.242 489.915 378.382 489.281 381.712 488.012C385.042 486.664 387.778 485.356 389.918 484.087L401.573 476.712L401.692 478.259C393.367 483.809 387.143 487.338 383.021 488.845C378.977 490.351 376.281 491.104 374.934 491.104C372.714 491.104 371.604 489.717 371.604 486.941C371.604 483.215 372.951 479.488 375.647 475.761C378.343 472.034 381.475 468.981 385.042 466.602C388.689 464.223 392.178 462.281 395.508 460.774C398.917 459.267 401.494 458.514 403.238 458.514C404.982 458.514 405.855 459.109 405.855 460.298C405.855 463.232 402.366 466.8 395.389 471.003C388.491 475.206 382.743 477.981 378.145 479.329C375.449 483.215 374.101 486.228 374.101 488.369Z" fill="#5A1A1A"/>
<path d="M9.85753 830.248C-0.142468 821.448 -0.642468 800.582 0.357532 791.248H610.858C613.191 788.415 603.858 810.748 603.858 810.748C603.858 810.748 603.858 845.248 533.358 830.248C462.858 815.248 533.358 935.748 520.358 960.748C507.358 985.748 457.83 987.227 467.858 935.748C477.885 884.27 491.751 811.705 442.858 820.248C393.964 828.792 440.715 1147.5 434.358 1207.25C428 1267 371.715 1274.5 364.858 1207.25C358 1140 407.233 842.146 381.358 820.248C355.483 798.351 335.215 801.248 327.358 810.748C319.5 820.248 331.004 836.022 302.358 845.248C249.855 862.158 293.842 936.066 275.858 960.748C240.859 1008.78 249.479 912.693 249.358 845.248C249.29 807.665 215.858 810.748 206.358 810.748C196.858 810.748 201.328 816.409 176.858 845.248C155.011 870.996 136.621 815.98 119.858 810.748C103.094 805.517 105.908 838.038 87.8575 871.748C69.8074 905.459 129.189 1086.62 80.8575 1098.75C5.17213 1117.74 59.4908 933.554 54.3575 871.748C49.2243 809.943 22.3575 841.248 9.85753 830.248Z" fill="#C48B8B"/>
<path d="M150.027 563.36C147.723 563.36 145.599 562.976 143.655 562.208C141.735 561.416 140.235 560.336 139.155 558.968C138.963 558.728 138.867 558.476 138.867 558.212C138.867 557.876 139.047 557.552 139.407 557.24C139.599 557.096 139.803 557.024 140.019 557.024C140.451 557.024 140.835 557.228 141.171 557.636C142.155 558.716 143.391 559.556 144.879 560.156C146.391 560.732 148.107 561.02 150.027 561.02C152.139 561.02 153.771 560.636 154.923 559.868C156.075 559.076 156.651 557.96 156.651 556.52C156.651 555.272 156.087 554.264 154.959 553.496C153.855 552.728 151.971 552.044 149.307 551.444C145.827 550.676 143.319 549.716 141.783 548.564C140.271 547.388 139.515 545.84 139.515 543.92C139.515 541.928 140.355 540.356 142.035 539.204C143.739 538.028 146.031 537.44 148.911 537.44C151.095 537.44 153.063 537.824 154.815 538.592C156.591 539.36 157.851 540.392 158.595 541.688C158.739 541.928 158.811 542.156 158.811 542.372C158.811 542.756 158.607 543.092 158.199 543.38C158.031 543.476 157.839 543.524 157.623 543.524C157.095 543.524 156.687 543.32 156.399 542.912C155.703 541.904 154.719 541.136 153.447 540.608C152.175 540.056 150.663 539.78 148.911 539.78C144.471 539.78 142.251 541.16 142.251 543.92C142.251 544.76 142.479 545.468 142.935 546.044C143.391 546.596 144.123 547.1 145.131 547.556C146.163 547.988 147.591 548.42 149.415 548.852C152.967 549.692 155.523 550.712 157.083 551.912C158.643 553.088 159.423 554.624 159.423 556.52C159.423 558.632 158.571 560.3 156.867 561.524C155.187 562.748 152.907 563.36 150.027 563.36ZM173.81 573.764C173.402 573.764 173.078 573.632 172.838 573.368C172.622 573.128 172.514 572.78 172.514 572.324V546.44C172.514 545.984 172.622 545.636 172.838 545.396C173.078 545.132 173.402 545 173.81 545C174.242 545 174.566 545.132 174.782 545.396C175.022 545.66 175.142 546.008 175.142 546.44V548.744C176.99 546.248 179.654 545 183.134 545C186.038 545 188.318 545.804 189.974 547.412C191.654 549.02 192.494 551.228 192.494 554.036C192.494 555.932 192.11 557.588 191.342 559.004C190.574 560.396 189.47 561.476 188.03 562.244C186.614 562.988 184.946 563.36 183.026 563.36C181.37 563.36 179.906 563.072 178.634 562.496C177.386 561.896 176.234 560.96 175.178 559.688V572.324C175.178 572.756 175.058 573.104 174.818 573.368C174.578 573.632 174.242 573.764 173.81 573.764ZM182.846 561.092C185.03 561.092 186.734 560.468 187.958 559.22C189.206 557.948 189.83 556.196 189.83 553.964C189.83 551.804 189.218 550.148 187.994 548.996C186.794 547.844 185.066 547.268 182.81 547.268C180.434 547.268 178.562 547.88 177.194 549.104C175.826 550.304 175.142 551.948 175.142 554.036C175.142 555.428 175.454 556.664 176.078 557.744C176.726 558.8 177.626 559.628 178.778 560.228C179.954 560.804 181.31 561.092 182.846 561.092ZM211.79 563.36C209.438 563.36 207.59 562.844 206.246 561.812C204.926 560.78 204.266 559.352 204.266 557.528C204.266 555.728 204.962 554.3 206.354 553.244C207.77 552.188 209.69 551.66 212.114 551.66C213.53 551.66 214.778 551.852 215.858 552.236C216.962 552.62 217.814 553.136 218.414 553.784V551.48C218.414 550.112 217.958 549.068 217.046 548.348C216.158 547.628 214.85 547.268 213.122 547.268C210.89 547.268 208.958 547.796 207.326 548.852C206.918 549.092 206.582 549.212 206.318 549.212C206.078 549.212 205.838 549.116 205.598 548.924C205.334 548.708 205.202 548.432 205.202 548.096C205.202 547.736 205.358 547.436 205.67 547.196C206.534 546.524 207.626 545.996 208.946 545.612C210.29 545.204 211.658 545 213.05 545C215.594 545 217.562 545.576 218.954 546.728C220.37 547.88 221.078 549.5 221.078 551.588V561.956C221.078 562.892 220.646 563.36 219.782 563.36C219.398 563.36 219.086 563.24 218.846 563C218.606 562.736 218.486 562.4 218.486 561.992V560.696C216.998 562.472 214.766 563.36 211.79 563.36ZM212.114 561.164C213.986 561.164 215.51 560.816 216.686 560.12C217.862 559.4 218.45 558.476 218.45 557.348C218.45 556.22 217.898 555.356 216.794 554.756C215.714 554.132 214.178 553.82 212.186 553.82C210.506 553.82 209.21 554.144 208.298 554.792C207.386 555.416 206.93 556.328 206.93 557.528C206.93 558.704 207.374 559.604 208.262 560.228C209.15 560.852 210.434 561.164 212.114 561.164ZM235.916 563.36C235.508 563.36 235.184 563.24 234.944 563C234.728 562.736 234.62 562.376 234.62 561.92V546.44C234.62 545.984 234.728 545.636 234.944 545.396C235.16 545.132 235.484 545 235.916 545C236.324 545 236.636 545.132 236.852 545.396C237.092 545.636 237.212 545.984 237.212 546.44V548.6C238.844 546.44 241.1 545.36 243.98 545.36H244.88C245.336 545.36 245.696 545.468 245.96 545.684C246.224 545.876 246.356 546.152 246.356 546.512C246.356 546.872 246.224 547.148 245.96 547.34C245.696 547.532 245.336 547.628 244.88 547.628H243.872C241.832 547.628 240.212 548.216 239.012 549.392C237.836 550.544 237.248 552.116 237.248 554.108V561.92C237.248 562.352 237.128 562.7 236.888 562.964C236.672 563.228 236.348 563.36 235.916 563.36ZM260.167 563.36C259.759 563.36 259.435 563.24 259.195 563C258.979 562.736 258.871 562.376 258.871 561.92V537.116C258.871 536.66 258.979 536.312 259.195 536.072C259.435 535.808 259.759 535.676 260.167 535.676C260.575 535.676 260.899 535.808 261.139 536.072C261.379 536.312 261.499 536.66 261.499 537.116V553.244L273.451 545.18C273.691 545.012 273.943 544.928 274.207 544.928C274.615 544.928 274.915 545.096 275.107 545.432C275.227 545.6 275.287 545.828 275.287 546.116C275.287 546.548 275.095 546.884 274.711 547.124L268.267 551.408C270.355 552.824 271.975 554.384 273.127 556.088C274.279 557.768 275.071 559.724 275.503 561.956C275.575 562.34 275.503 562.676 275.287 562.964C275.071 563.228 274.759 563.36 274.351 563.36C273.559 563.36 273.091 563.024 272.947 562.352C272.443 560.048 271.699 558.224 270.715 556.88C269.755 555.512 268.231 554.156 266.143 552.812L261.499 555.944V561.92C261.499 562.352 261.379 562.7 261.139 562.964C260.923 563.228 260.599 563.36 260.167 563.36ZM290.409 563.36C290.001 563.36 289.677 563.24 289.437 563C289.221 562.736 289.113 562.376 289.113 561.92V537.116C289.113 536.66 289.221 536.312 289.437 536.072C289.677 535.808 290.001 535.676 290.409 535.676C290.817 535.676 291.141 535.808 291.381 536.072C291.621 536.312 291.741 536.66 291.741 537.116V561.92C291.741 562.352 291.621 562.7 291.381 562.964C291.165 563.228 290.841 563.36 290.409 563.36ZM314.992 563.36C311.872 563.36 309.46 562.556 307.756 560.948C306.052 559.34 305.2 557.06 305.2 554.108C305.2 551.276 306.064 549.056 307.792 547.448C309.52 545.816 311.884 545 314.884 545C316.732 545 318.376 545.3 319.816 545.9C321.256 546.476 322.372 547.304 323.164 548.384C323.98 549.44 324.388 550.652 324.388 552.02C324.388 553.028 324.1 553.808 323.524 554.36C322.972 554.912 322.204 555.188 321.22 555.188H307.9C307.9 557.036 308.524 558.488 309.772 559.544C311.02 560.576 312.76 561.092 314.992 561.092C316.36 561.092 317.536 560.948 318.52 560.66C319.504 560.348 320.428 559.856 321.292 559.184C321.748 558.8 322.12 558.608 322.408 558.608C322.624 558.608 322.828 558.704 323.02 558.896C323.356 559.184 323.524 559.484 323.524 559.796C323.524 560.036 323.38 560.3 323.092 560.588C322.108 561.524 320.956 562.22 319.636 562.676C318.316 563.132 316.768 563.36 314.992 563.36ZM320.428 553.064C320.86 553.064 321.184 552.98 321.4 552.812C321.616 552.62 321.724 552.284 321.724 551.804C321.724 550.94 321.436 550.16 320.86 549.464C320.284 548.768 319.468 548.228 318.412 547.844C317.38 547.46 316.204 547.268 314.884 547.268C312.748 547.268 311.056 547.796 309.808 548.852C308.584 549.884 307.972 551.288 307.972 553.064H320.428ZM355.59 542.3C355.59 540.932 355.986 539.84 356.778 539.024C357.594 538.208 358.77 537.8 360.306 537.8H367.038C373.566 537.8 376.83 540.512 376.83 545.936C376.83 548.552 376.038 550.532 374.454 551.876C372.87 553.22 370.482 553.892 367.29 553.892L374.274 561.128C374.49 561.344 374.598 561.62 374.598 561.956C374.598 562.388 374.418 562.736 374.058 563C373.77 563.216 373.47 563.324 373.158 563.324C372.678 563.324 372.222 563.084 371.79 562.604L363.51 553.892H358.65V561.812C358.65 562.292 358.506 562.676 358.218 562.964C357.954 563.228 357.582 563.36 357.102 563.36C356.622 563.36 356.25 563.228 355.986 562.964C355.722 562.676 355.59 562.292 355.59 561.812V542.3ZM367.218 551.408C369.426 551.408 371.058 551 372.114 550.184C373.194 549.344 373.734 547.928 373.734 545.936C373.734 543.92 373.194 542.48 372.114 541.616C371.034 540.728 369.402 540.284 367.218 540.284H360.486C359.934 540.284 359.49 540.464 359.154 540.824C358.818 541.184 358.65 541.676 358.65 542.3V551.408H367.218ZM397.869 563.36C395.781 563.36 393.993 562.94 392.505 562.1C391.017 561.26 389.889 560.144 389.121 558.752C388.377 557.336 388.005 555.812 388.005 554.18C388.005 552.548 388.377 551.036 389.121 549.644C389.889 548.228 391.017 547.1 392.505 546.26C393.993 545.42 395.781 545 397.869 545C399.957 545 401.733 545.42 403.197 546.26C404.685 547.1 405.801 548.228 406.545 549.644C407.313 551.036 407.697 552.548 407.697 554.18C407.697 555.812 407.313 557.336 406.545 558.752C405.801 560.144 404.685 561.26 403.197 562.1C401.733 562.94 399.957 563.36 397.869 563.36ZM397.869 561.092C400.029 561.092 401.757 560.48 403.053 559.256C404.373 558.032 405.033 556.34 405.033 554.18C405.033 552.02 404.373 550.328 403.053 549.104C401.757 547.88 400.029 547.268 397.869 547.268C395.685 547.268 393.933 547.88 392.613 549.104C391.317 550.328 390.669 552.02 390.669 554.18C390.669 556.34 391.317 558.032 392.613 559.256C393.933 560.48 395.685 561.092 397.869 561.092ZM428.135 563.36C426.455 563.36 424.871 563.048 423.383 562.424C421.895 561.776 420.719 560.888 419.855 559.76C419.687 559.52 419.603 559.28 419.603 559.04C419.603 558.8 419.663 558.596 419.783 558.428C419.927 558.236 420.107 558.092 420.323 557.996C420.515 557.924 420.671 557.888 420.791 557.888C421.007 557.888 421.187 557.948 421.331 558.068C421.499 558.164 421.691 558.332 421.907 558.572C423.467 560.228 425.543 561.056 428.135 561.056C429.383 561.056 430.391 560.84 431.159 560.408C431.927 559.976 432.311 559.376 432.311 558.608C432.311 558.056 432.155 557.612 431.843 557.276C431.555 556.916 431.051 556.592 430.331 556.304C429.635 555.992 428.483 555.56 426.875 555.008C425.315 554.48 424.091 553.976 423.203 553.496C422.315 553.016 421.655 552.476 421.223 551.876C420.791 551.252 420.575 550.496 420.575 549.608C420.575 548.216 421.175 547.1 422.375 546.26C423.599 545.42 425.219 545 427.235 545C428.723 545 430.103 545.264 431.375 545.792C432.647 546.296 433.607 546.98 434.255 547.844C434.447 548.108 434.543 548.36 434.543 548.6C434.543 548.96 434.351 549.248 433.967 549.464C433.727 549.608 433.487 549.68 433.247 549.68C432.839 549.68 432.455 549.5 432.095 549.14C431.471 548.516 430.787 548.06 430.043 547.772C429.299 547.46 428.351 547.304 427.199 547.304C425.927 547.304 424.955 547.508 424.283 547.916C423.611 548.324 423.275 548.9 423.275 549.644C423.275 550.196 423.407 550.64 423.671 550.976C423.959 551.288 424.403 551.576 425.003 551.84C425.627 552.08 426.707 552.452 428.243 552.956C429.971 553.532 431.303 554.084 432.239 554.612C433.199 555.116 433.883 555.68 434.291 556.304C434.723 556.928 434.939 557.696 434.939 558.608C434.939 560.048 434.303 561.2 433.031 562.064C431.783 562.928 430.151 563.36 428.135 563.36ZM456.524 563.36C453.404 563.36 450.992 562.556 449.288 560.948C447.584 559.34 446.732 557.06 446.732 554.108C446.732 551.276 447.596 549.056 449.324 547.448C451.052 545.816 453.416 545 456.416 545C458.264 545 459.908 545.3 461.348 545.9C462.788 546.476 463.904 547.304 464.696 548.384C465.512 549.44 465.92 550.652 465.92 552.02C465.92 553.028 465.632 553.808 465.056 554.36C464.504 554.912 463.736 555.188 462.752 555.188H449.432C449.432 557.036 450.056 558.488 451.304 559.544C452.552 560.576 454.292 561.092 456.524 561.092C457.892 561.092 459.068 560.948 460.052 560.66C461.036 560.348 461.96 559.856 462.824 559.184C463.28 558.8 463.652 558.608 463.94 558.608C464.156 558.608 464.36 558.704 464.552 558.896C464.888 559.184 465.056 559.484 465.056 559.796C465.056 560.036 464.912 560.3 464.624 560.588C463.64 561.524 462.488 562.22 461.168 562.676C459.848 563.132 458.3 563.36 456.524 563.36ZM461.96 553.064C462.392 553.064 462.716 552.98 462.932 552.812C463.148 552.62 463.256 552.284 463.256 551.804C463.256 550.94 462.968 550.16 462.392 549.464C461.816 548.768 461 548.228 459.944 547.844C458.912 547.46 457.736 547.268 456.416 547.268C454.28 547.268 452.588 547.796 451.34 548.852C450.116 549.884 449.504 551.288 449.504 553.064H461.96ZM259.597 610.36C258.565 610.36 257.737 610.024 257.113 609.352C256.489 608.68 256.045 607.636 255.781 606.22L251.857 586.024C251.809 585.784 251.785 585.616 251.785 585.52C251.785 584.8 252.193 584.44 253.009 584.44C253.513 584.44 253.873 584.548 254.089 584.764C254.305 584.98 254.449 585.304 254.521 585.736L258.337 606.292C258.457 606.964 258.613 607.432 258.805 607.696C258.997 607.936 259.273 608.056 259.633 608.056C260.017 608.056 260.305 607.924 260.497 607.66C260.689 607.372 260.833 606.928 260.929 606.328L263.773 587.788C263.941 586.684 264.289 585.856 264.817 585.304C265.369 584.728 266.065 584.44 266.905 584.44C268.633 584.44 269.665 585.556 270.001 587.788L272.845 606.328C272.941 606.952 273.085 607.396 273.277 607.66C273.469 607.924 273.757 608.056 274.141 608.056C274.477 608.056 274.741 607.924 274.933 607.66C275.149 607.396 275.317 606.94 275.437 606.292L279.253 585.736C279.325 585.28 279.469 584.956 279.685 584.764C279.925 584.548 280.285 584.44 280.765 584.44C281.581 584.44 281.989 584.8 281.989 585.52C281.989 585.616 281.965 585.784 281.917 586.024L277.993 606.22C277.729 607.564 277.297 608.596 276.697 609.316C276.121 610.012 275.281 610.36 274.177 610.36C273.145 610.36 272.329 610.024 271.729 609.352C271.153 608.68 270.757 607.648 270.541 606.256L267.733 588.076C267.661 587.596 267.553 587.26 267.409 587.068C267.289 586.852 267.121 586.744 266.905 586.744C266.665 586.744 266.473 586.852 266.329 587.068C266.209 587.26 266.113 587.596 266.041 588.076L263.233 606.256C263.017 607.648 262.609 608.68 262.009 609.352C261.433 610.024 260.629 610.36 259.597 610.36ZM297.046 588.184C296.518 588.184 296.062 588.016 295.678 587.68C295.318 587.32 295.138 586.888 295.138 586.384C295.138 585.88 295.318 585.448 295.678 585.088C296.062 584.728 296.518 584.548 297.046 584.548C297.574 584.548 298.03 584.74 298.414 585.124C298.822 585.484 299.026 585.904 299.026 586.384C299.026 586.864 298.822 587.284 298.414 587.644C298.03 588.004 297.574 588.184 297.046 588.184ZM297.046 610.36C296.638 610.36 296.314 610.24 296.074 610C295.858 609.736 295.75 609.376 295.75 608.92V593.44C295.75 592.984 295.858 592.636 296.074 592.396C296.314 592.132 296.638 592 297.046 592C297.478 592 297.802 592.132 298.018 592.396C298.258 592.636 298.378 592.984 298.378 593.44V608.92C298.378 609.376 298.258 609.736 298.018 610C297.802 610.24 297.478 610.36 297.046 610.36ZM314.074 610.36C313.666 610.36 313.342 610.24 313.102 610C312.886 609.736 312.778 609.376 312.778 608.92V593.44C312.778 592.984 312.886 592.636 313.102 592.396C313.318 592.132 313.642 592 314.074 592C314.482 592 314.794 592.132 315.01 592.396C315.25 592.636 315.37 592.984 315.37 593.44V595.564C316.258 594.388 317.326 593.5 318.574 592.9C319.846 592.3 321.238 592 322.75 592C325.03 592 326.782 592.636 328.006 593.908C329.254 595.18 329.878 597.004 329.878 599.38V608.92C329.878 609.376 329.758 609.736 329.518 610C329.278 610.24 328.954 610.36 328.546 610.36C328.114 610.36 327.79 610.24 327.574 610C327.358 609.736 327.25 609.376 327.25 608.92V599.38C327.25 595.972 325.642 594.268 322.426 594.268C320.314 594.268 318.61 594.892 317.314 596.14C316.042 597.388 315.406 599.044 315.406 601.108V608.92C315.406 609.352 315.286 609.7 315.046 609.964C314.83 610.228 314.506 610.36 314.074 610.36ZM352.21 610.36C349.09 610.36 346.678 609.556 344.974 607.948C343.27 606.34 342.418 604.06 342.418 601.108C342.418 598.276 343.282 596.056 345.01 594.448C346.738 592.816 349.102 592 352.102 592C353.95 592 355.594 592.3 357.034 592.9C358.474 593.476 359.59 594.304 360.382 595.384C361.198 596.44 361.606 597.652 361.606 599.02C361.606 600.028 361.318 600.808 360.742 601.36C360.19 601.912 359.422 602.188 358.438 602.188H345.118C345.118 604.036 345.742 605.488 346.99 606.544C348.238 607.576 349.978 608.092 352.21 608.092C353.578 608.092 354.754 607.948 355.738 607.66C356.722 607.348 357.646 606.856 358.51 606.184C358.966 605.8 359.338 605.608 359.626 605.608C359.842 605.608 360.046 605.704 360.238 605.896C360.574 606.184 360.742 606.484 360.742 606.796C360.742 607.036 360.598 607.3 360.31 607.588C359.326 608.524 358.174 609.22 356.854 609.676C355.534 610.132 353.986 610.36 352.21 610.36ZM357.646 600.064C358.078 600.064 358.402 599.98 358.618 599.812C358.834 599.62 358.942 599.284 358.942 598.804C358.942 597.94 358.654 597.16 358.078 596.464C357.502 595.768 356.686 595.228 355.63 594.844C354.598 594.46 353.422 594.268 352.102 594.268C349.966 594.268 348.274 594.796 347.026 595.852C345.802 596.884 345.19 598.288 345.19 600.064H357.646Z" fill="#1E0B0B"/>
</svg>
