<svg width="612" height="1255" viewBox="0 0 612 1255" fill="none" xmlns="http://www.w3.org/2000/svg">
<rect width="612" height="792" fill="#5A1A1A"/>
<path d="M174.749 542.3C174.749 540.932 175.145 539.84 175.937 539.024C176.753 538.208 177.929 537.8 179.465 537.8H186.197C192.725 537.8 195.989 540.512 195.989 545.936C195.989 548.552 195.197 550.532 193.613 551.876C192.029 553.22 189.641 553.892 186.449 553.892L193.433 561.128C193.649 561.344 193.757 561.62 193.757 561.956C193.757 562.388 193.577 562.736 193.217 563C192.929 563.216 192.629 563.324 192.317 563.324C191.837 563.324 191.381 563.084 190.949 562.604L182.669 553.892H177.809V561.812C177.809 562.292 177.665 562.676 177.377 562.964C177.113 563.228 176.741 563.36 176.261 563.36C175.781 563.36 175.409 563.228 175.145 562.964C174.881 562.676 174.749 562.292 174.749 561.812V542.3ZM186.377 551.408C188.585 551.408 190.217 551 191.273 550.184C192.353 549.344 192.893 547.928 192.893 545.936C192.893 543.92 192.353 542.48 191.273 541.616C190.193 540.728 188.561 540.284 186.377 540.284H179.645C179.093 540.284 178.649 540.464 178.313 540.824C177.977 541.184 177.809 541.676 177.809 542.3V551.408H186.377ZM216.883 563.36C213.763 563.36 211.351 562.556 209.647 560.948C207.943 559.34 207.091 557.06 207.091 554.108C207.091 551.276 207.955 549.056 209.683 547.448C211.411 545.816 213.775 545 216.775 545C218.623 545 220.267 545.3 221.707 545.9C223.147 546.476 224.263 547.304 225.055 548.384C225.871 549.44 226.279 550.652 226.279 552.02C226.279 553.028 225.991 553.808 225.415 554.36C224.863 554.912 224.095 555.188 223.111 555.188H209.791C209.791 557.036 210.415 558.488 211.663 559.544C212.911 560.576 214.651 561.092 216.883 561.092C218.251 561.092 219.427 560.948 220.411 560.66C221.395 560.348 222.319 559.856 223.183 559.184C223.639 558.8 224.011 558.608 224.299 558.608C224.515 558.608 224.719 558.704 224.911 558.896C225.247 559.184 225.415 559.484 225.415 559.796C225.415 560.036 225.271 560.3 224.983 560.588C223.999 561.524 222.847 562.22 221.527 562.676C220.207 563.132 218.659 563.36 216.883 563.36ZM222.319 553.064C222.751 553.064 223.075 552.98 223.291 552.812C223.507 552.62 223.615 552.284 223.615 551.804C223.615 550.94 223.327 550.16 222.751 549.464C222.175 548.768 221.359 548.228 220.303 547.844C219.271 547.46 218.095 547.268 216.775 547.268C214.639 547.268 212.947 547.796 211.699 548.852C210.475 549.884 209.863 551.288 209.863 553.064H222.319ZM246.999 563.36C244.023 563.36 241.671 562.556 239.943 560.948C238.239 559.316 237.387 557.096 237.387 554.288C237.387 552.512 237.759 550.928 238.503 549.536C239.271 548.12 240.375 547.016 241.815 546.224C243.279 545.408 245.031 545 247.071 545C248.799 545 250.263 545.324 251.463 545.972C252.687 546.62 253.767 547.52 254.703 548.672L254.739 537.116C254.739 536.66 254.847 536.312 255.063 536.072C255.303 535.808 255.639 535.676 256.071 535.676C256.479 535.676 256.791 535.808 257.007 536.072C257.247 536.312 257.367 536.66 257.367 537.116V561.92C257.367 562.376 257.247 562.736 257.007 563C256.791 563.24 256.479 563.36 256.071 563.36C255.663 563.36 255.339 563.24 255.099 563C254.859 562.736 254.739 562.376 254.739 561.92V559.616C253.899 560.84 252.819 561.776 251.499 562.424C250.203 563.048 248.703 563.36 246.999 563.36ZM247.215 561.092C249.543 561.092 251.379 560.48 252.723 559.256C254.067 558.008 254.739 556.316 254.739 554.18C254.739 552.764 254.391 551.54 253.695 550.508C253.023 549.452 252.111 548.648 250.959 548.096C249.831 547.544 248.595 547.268 247.251 547.268C244.995 547.268 243.231 547.916 241.959 549.212C240.687 550.484 240.051 552.176 240.051 554.288C240.051 556.544 240.675 558.248 241.923 559.4C243.171 560.528 244.935 561.092 247.215 561.092ZM299.904 563.36C297.6 563.36 295.476 562.976 293.532 562.208C291.612 561.416 290.112 560.336 289.032 558.968C288.84 558.728 288.744 558.476 288.744 558.212C288.744 557.876 288.924 557.552 289.284 557.24C289.476 557.096 289.68 557.024 289.896 557.024C290.328 557.024 290.712 557.228 291.048 557.636C292.032 558.716 293.268 559.556 294.756 560.156C296.268 560.732 297.984 561.02 299.904 561.02C302.016 561.02 303.648 560.636 304.8 559.868C305.952 559.076 306.528 557.96 306.528 556.52C306.528 555.272 305.964 554.264 304.836 553.496C303.732 552.728 301.848 552.044 299.184 551.444C295.704 550.676 293.196 549.716 291.66 548.564C290.148 547.388 289.392 545.84 289.392 543.92C289.392 541.928 290.232 540.356 291.912 539.204C293.616 538.028 295.908 537.44 298.788 537.44C300.972 537.44 302.94 537.824 304.692 538.592C306.468 539.36 307.728 540.392 308.472 541.688C308.616 541.928 308.688 542.156 308.688 542.372C308.688 542.756 308.484 543.092 308.076 543.38C307.908 543.476 307.716 543.524 307.5 543.524C306.972 543.524 306.564 543.32 306.276 542.912C305.58 541.904 304.596 541.136 303.324 540.608C302.052 540.056 300.54 539.78 298.788 539.78C294.348 539.78 292.128 541.16 292.128 543.92C292.128 544.76 292.356 545.468 292.812 546.044C293.268 546.596 294 547.1 295.008 547.556C296.04 547.988 297.468 548.42 299.292 548.852C302.844 549.692 305.4 550.712 306.96 551.912C308.52 553.088 309.3 554.624 309.3 556.52C309.3 558.632 308.448 560.3 306.744 561.524C305.064 562.748 302.784 563.36 299.904 563.36ZM327.552 563.36C326.64 563.36 325.848 563.072 325.176 562.496C324.504 561.896 324.072 561.104 323.88 560.12L321.144 546.332C321.072 545.948 321.156 545.636 321.396 545.396C321.636 545.132 321.96 545 322.368 545C322.848 545 323.196 545.084 323.412 545.252C323.652 545.396 323.808 545.672 323.88 546.08L326.472 559.832C326.616 560.672 326.976 561.092 327.552 561.092C327.888 561.092 328.14 560.996 328.308 560.804C328.476 560.612 328.596 560.288 328.668 559.832L330.612 547.7C330.732 546.908 331.068 546.26 331.62 545.756C332.172 545.252 332.82 545 333.564 545C334.308 545 334.956 545.252 335.508 545.756C336.084 546.26 336.432 546.908 336.552 547.7L338.46 559.832C338.532 560.288 338.652 560.612 338.82 560.804C339.012 560.996 339.276 561.092 339.612 561.092C340.188 561.092 340.548 560.672 340.692 559.832L343.248 546.08C343.32 545.672 343.464 545.396 343.68 545.252C343.92 545.084 344.28 545 344.76 545C345.216 545 345.552 545.132 345.768 545.396C346.008 545.66 346.092 545.972 346.02 546.332L343.248 560.12C343.032 561.128 342.588 561.92 341.916 562.496C341.244 563.072 340.476 563.36 339.612 563.36C337.668 563.36 336.516 562.256 336.156 560.048L334.248 548.204C334.128 547.58 333.9 547.268 333.564 547.268C333.204 547.268 332.976 547.58 332.88 548.204L330.972 560.048C330.612 562.256 329.472 563.36 327.552 563.36ZM366.466 563.36C363.346 563.36 360.934 562.556 359.23 560.948C357.526 559.34 356.674 557.06 356.674 554.108C356.674 551.276 357.538 549.056 359.266 547.448C360.994 545.816 363.358 545 366.358 545C368.206 545 369.85 545.3 371.29 545.9C372.73 546.476 373.846 547.304 374.638 548.384C375.454 549.44 375.862 550.652 375.862 552.02C375.862 553.028 375.574 553.808 374.998 554.36C374.446 554.912 373.678 555.188 372.694 555.188H359.374C359.374 557.036 359.998 558.488 361.246 559.544C362.494 560.576 364.234 561.092 366.466 561.092C367.834 561.092 369.01 560.948 369.994 560.66C370.978 560.348 371.902 559.856 372.766 559.184C373.222 558.8 373.594 558.608 373.882 558.608C374.098 558.608 374.302 558.704 374.494 558.896C374.83 559.184 374.998 559.484 374.998 559.796C374.998 560.036 374.854 560.3 374.566 560.588C373.582 561.524 372.43 562.22 371.11 562.676C369.79 563.132 368.242 563.36 366.466 563.36ZM371.902 553.064C372.334 553.064 372.658 552.98 372.874 552.812C373.09 552.62 373.198 552.284 373.198 551.804C373.198 550.94 372.91 550.16 372.334 549.464C371.758 548.768 370.942 548.228 369.886 547.844C368.854 547.46 367.678 547.268 366.358 547.268C364.222 547.268 362.53 547.796 361.282 548.852C360.058 549.884 359.446 551.288 359.446 553.064H371.902ZM397.395 563.36C394.275 563.36 391.863 562.556 390.159 560.948C388.455 559.34 387.603 557.06 387.603 554.108C387.603 551.276 388.467 549.056 390.195 547.448C391.923 545.816 394.287 545 397.287 545C399.135 545 400.779 545.3 402.219 545.9C403.659 546.476 404.775 547.304 405.567 548.384C406.383 549.44 406.791 550.652 406.791 552.02C406.791 553.028 406.503 553.808 405.927 554.36C405.375 554.912 404.607 555.188 403.623 555.188H390.303C390.303 557.036 390.927 558.488 392.175 559.544C393.423 560.576 395.163 561.092 397.395 561.092C398.763 561.092 399.939 560.948 400.923 560.66C401.907 560.348 402.831 559.856 403.695 559.184C404.151 558.8 404.523 558.608 404.811 558.608C405.027 558.608 405.231 558.704 405.423 558.896C405.759 559.184 405.927 559.484 405.927 559.796C405.927 560.036 405.783 560.3 405.495 560.588C404.511 561.524 403.359 562.22 402.039 562.676C400.719 563.132 399.171 563.36 397.395 563.36ZM402.831 553.064C403.263 553.064 403.587 552.98 403.803 552.812C404.019 552.62 404.127 552.284 404.127 551.804C404.127 550.94 403.839 550.16 403.263 549.464C402.687 548.768 401.871 548.228 400.815 547.844C399.783 547.46 398.607 547.268 397.287 547.268C395.151 547.268 393.459 547.796 392.211 548.852C390.987 549.884 390.375 551.288 390.375 553.064H402.831ZM430.614 559.436C430.878 559.652 431.01 559.904 431.01 560.192C431.01 560.432 430.902 560.72 430.686 561.056C430.182 561.752 429.486 562.316 428.598 562.748C427.71 563.156 426.798 563.36 425.862 563.36C424.278 563.36 423.03 562.892 422.118 561.956C421.206 561.02 420.75 559.736 420.75 558.104V547.556H418.806C417.846 547.556 417.366 547.184 417.366 546.44C417.366 546.104 417.486 545.84 417.726 545.648C417.99 545.456 418.35 545.36 418.806 545.36H420.75V539.204C420.75 538.748 420.858 538.4 421.074 538.16C421.314 537.896 421.65 537.764 422.082 537.764C422.49 537.764 422.802 537.896 423.018 538.16C423.258 538.4 423.378 538.748 423.378 539.204V545.36H428.274C428.706 545.36 429.042 545.456 429.282 545.648C429.546 545.816 429.678 546.08 429.678 546.44C429.678 547.184 429.21 547.556 428.274 547.556H423.378V558.32C423.378 560.168 424.242 561.092 425.97 561.092C426.522 561.092 427.026 560.984 427.482 560.768C427.938 560.552 428.394 560.204 428.85 559.724C429.21 559.34 429.558 559.148 429.894 559.148C430.11 559.148 430.35 559.244 430.614 559.436ZM166.854 610.36C164.358 610.36 162.162 609.832 160.266 608.776C158.394 607.696 156.942 606.184 155.91 604.24C154.878 602.272 154.362 600.004 154.362 597.436C154.362 594.844 154.878 592.564 155.91 590.596C156.942 588.628 158.394 587.116 160.266 586.06C162.162 584.98 164.346 584.44 166.818 584.44C168.882 584.44 170.778 584.788 172.506 585.484C174.258 586.18 175.626 587.152 176.61 588.4C176.802 588.616 176.898 588.88 176.898 589.192C176.898 589.576 176.73 589.888 176.394 590.128C176.178 590.272 175.938 590.344 175.674 590.344C175.218 590.344 174.834 590.164 174.522 589.804C173.754 588.82 172.71 588.064 171.39 587.536C170.07 587.008 168.546 586.744 166.818 586.744C164.826 586.744 163.098 587.176 161.634 588.04C160.17 588.904 159.042 590.14 158.25 591.748C157.482 593.356 157.098 595.252 157.098 597.436C157.098 599.596 157.482 601.48 158.25 603.088C159.042 604.672 160.17 605.896 161.634 606.76C163.122 607.624 164.862 608.056 166.854 608.056C168.702 608.056 170.31 607.792 171.678 607.264C173.07 606.712 174.162 605.956 174.954 604.996C175.314 604.612 175.698 604.42 176.106 604.42C176.394 604.42 176.634 604.504 176.826 604.672C177.162 604.96 177.33 605.272 177.33 605.608C177.33 605.896 177.222 606.172 177.006 606.436C176.022 607.636 174.618 608.596 172.794 609.316C170.994 610.012 169.014 610.36 166.854 610.36ZM191.769 610.36C191.361 610.36 191.037 610.24 190.797 610C190.581 609.736 190.473 609.376 190.473 608.92V584.116C190.473 583.66 190.581 583.312 190.797 583.072C191.037 582.808 191.361 582.676 191.769 582.676C192.177 582.676 192.501 582.808 192.741 583.072C192.981 583.312 193.101 583.66 193.101 584.116V595.564C193.989 594.388 195.057 593.5 196.305 592.9C197.577 592.3 198.957 592 200.445 592C202.725 592 204.477 592.636 205.701 593.908C206.949 595.18 207.573 597.004 207.573 599.38V608.92C207.573 609.376 207.453 609.736 207.213 610C206.973 610.24 206.649 610.36 206.241 610.36C205.809 610.36 205.485 610.24 205.269 610C205.053 609.736 204.945 609.376 204.945 608.92V599.38C204.945 595.972 203.337 594.268 200.121 594.268C198.009 594.268 196.305 594.892 195.009 596.14C193.737 597.388 193.101 599.044 193.101 601.108V608.92C193.101 609.352 192.981 609.7 192.741 609.964C192.525 610.228 192.201 610.36 191.769 610.36ZM229.904 610.36C226.784 610.36 224.372 609.556 222.668 607.948C220.964 606.34 220.112 604.06 220.112 601.108C220.112 598.276 220.976 596.056 222.704 594.448C224.432 592.816 226.796 592 229.796 592C231.644 592 233.288 592.3 234.728 592.9C236.168 593.476 237.284 594.304 238.076 595.384C238.892 596.44 239.3 597.652 239.3 599.02C239.3 600.028 239.012 600.808 238.436 601.36C237.884 601.912 237.116 602.188 236.132 602.188H222.812C222.812 604.036 223.436 605.488 224.684 606.544C225.932 607.576 227.672 608.092 229.904 608.092C231.272 608.092 232.448 607.948 233.432 607.66C234.416 607.348 235.34 606.856 236.204 606.184C236.66 605.8 237.032 605.608 237.32 605.608C237.536 605.608 237.74 605.704 237.932 605.896C238.268 606.184 238.436 606.484 238.436 606.796C238.436 607.036 238.292 607.3 238.004 607.588C237.02 608.524 235.868 609.22 234.548 609.676C233.228 610.132 231.68 610.36 229.904 610.36ZM235.34 600.064C235.772 600.064 236.096 599.98 236.312 599.812C236.528 599.62 236.636 599.284 236.636 598.804C236.636 597.94 236.348 597.16 235.772 596.464C235.196 595.768 234.38 595.228 233.324 594.844C232.292 594.46 231.116 594.268 229.796 594.268C227.66 594.268 225.968 594.796 224.72 595.852C223.496 596.884 222.884 598.288 222.884 600.064H235.34ZM253.345 610.36C252.937 610.36 252.613 610.24 252.373 610C252.157 609.736 252.049 609.376 252.049 608.92V593.44C252.049 592.984 252.157 592.636 252.373 592.396C252.589 592.132 252.913 592 253.345 592C253.753 592 254.065 592.132 254.281 592.396C254.521 592.636 254.641 592.984 254.641 593.44V595.6C256.273 593.44 258.529 592.36 261.409 592.36H262.309C262.765 592.36 263.125 592.468 263.389 592.684C263.653 592.876 263.785 593.152 263.785 593.512C263.785 593.872 263.653 594.148 263.389 594.34C263.125 594.532 262.765 594.628 262.309 594.628H261.301C259.261 594.628 257.641 595.216 256.441 596.392C255.265 597.544 254.677 599.116 254.677 601.108V608.92C254.677 609.352 254.557 609.7 254.317 609.964C254.101 610.228 253.777 610.36 253.345 610.36ZM277.525 610.36C277.117 610.36 276.793 610.24 276.553 610C276.337 609.736 276.229 609.376 276.229 608.92V593.44C276.229 592.984 276.337 592.636 276.553 592.396C276.769 592.132 277.093 592 277.525 592C277.933 592 278.245 592.132 278.461 592.396C278.701 592.636 278.821 592.984 278.821 593.44V595.6C280.453 593.44 282.709 592.36 285.589 592.36H286.489C286.945 592.36 287.305 592.468 287.569 592.684C287.833 592.876 287.965 593.152 287.965 593.512C287.965 593.872 287.833 594.148 287.569 594.34C287.305 594.532 286.945 594.628 286.489 594.628H285.481C283.441 594.628 281.821 595.216 280.621 596.392C279.445 597.544 278.857 599.116 278.857 601.108V608.92C278.857 609.352 278.737 609.7 278.497 609.964C278.281 610.228 277.957 610.36 277.525 610.36ZM308.436 619C306.66 619 305.076 618.736 303.684 618.208C302.292 617.68 301.272 616.96 300.624 616.048C300.456 615.808 300.372 615.568 300.372 615.328C300.372 614.944 300.564 614.608 300.948 614.32C301.092 614.2 301.308 614.14 301.596 614.14C302.004 614.14 302.388 614.332 302.748 614.716C303.276 615.34 304.044 615.832 305.052 616.192C306.084 616.576 307.176 616.768 308.328 616.768C310.488 616.768 312.192 616.12 313.44 614.824C314.712 613.528 315.348 611.776 315.348 609.568V607.12C314.604 608.104 313.656 608.86 312.504 609.388C311.352 609.892 310.08 610.144 308.688 610.144C305.76 610.144 303.468 609.316 301.812 607.66C300.18 605.98 299.364 603.652 299.364 600.676V593.332C299.364 592.972 299.496 592.672 299.76 592.432C300.024 592.168 300.348 592.036 300.732 592.036C301.116 592.036 301.428 592.168 301.668 592.432C301.932 592.672 302.064 592.972 302.064 593.332V600.676C302.064 602.98 302.64 604.78 303.792 606.076C304.968 607.348 306.6 607.984 308.688 607.984C310.752 607.984 312.348 607.372 313.476 606.148C314.604 604.924 315.168 603.184 315.168 600.928V593.692C315.168 593.164 315.288 592.756 315.528 592.468C315.792 592.156 316.152 592 316.608 592C317.04 592 317.376 592.156 317.616 592.468C317.88 592.756 318.012 593.164 318.012 593.692V609.388C318.012 611.284 317.604 612.952 316.788 614.392C315.996 615.856 314.88 616.984 313.44 617.776C312 618.592 310.332 619 308.436 619ZM357.056 610.36C356.024 610.36 355.196 610.024 354.572 609.352C353.948 608.68 353.504 607.636 353.24 606.22L349.316 586.024C349.268 585.784 349.244 585.616 349.244 585.52C349.244 584.8 349.652 584.44 350.468 584.44C350.972 584.44 351.332 584.548 351.548 584.764C351.764 584.98 351.908 585.304 351.98 585.736L355.796 606.292C355.916 606.964 356.072 607.432 356.264 607.696C356.456 607.936 356.732 608.056 357.092 608.056C357.476 608.056 357.764 607.924 357.956 607.66C358.148 607.372 358.292 606.928 358.388 606.328L361.232 587.788C361.4 586.684 361.748 585.856 362.276 585.304C362.828 584.728 363.524 584.44 364.364 584.44C366.092 584.44 367.124 585.556 367.46 587.788L370.304 606.328C370.4 606.952 370.544 607.396 370.736 607.66C370.928 607.924 371.216 608.056 371.6 608.056C371.936 608.056 372.2 607.924 372.392 607.66C372.608 607.396 372.776 606.94 372.896 606.292L376.712 585.736C376.784 585.28 376.928 584.956 377.144 584.764C377.384 584.548 377.744 584.44 378.224 584.44C379.04 584.44 379.448 584.8 379.448 585.52C379.448 585.616 379.424 585.784 379.376 586.024L375.452 606.22C375.188 607.564 374.756 608.596 374.156 609.316C373.58 610.012 372.74 610.36 371.636 610.36C370.604 610.36 369.788 610.024 369.188 609.352C368.612 608.68 368.216 607.648 368 606.256L365.192 588.076C365.12 587.596 365.012 587.26 364.868 587.068C364.748 586.852 364.58 586.744 364.364 586.744C364.124 586.744 363.932 586.852 363.788 587.068C363.668 587.26 363.572 587.596 363.5 588.076L360.692 606.256C360.476 607.648 360.068 608.68 359.468 609.352C358.892 610.024 358.088 610.36 357.056 610.36ZM394.505 588.184C393.977 588.184 393.521 588.016 393.137 587.68C392.777 587.32 392.597 586.888 392.597 586.384C392.597 585.88 392.777 585.448 393.137 585.088C393.521 584.728 393.977 584.548 394.505 584.548C395.033 584.548 395.489 584.74 395.873 585.124C396.281 585.484 396.485 585.904 396.485 586.384C396.485 586.864 396.281 587.284 395.873 587.644C395.489 588.004 395.033 588.184 394.505 588.184ZM394.505 610.36C394.097 610.36 393.773 610.24 393.533 610C393.317 609.736 393.209 609.376 393.209 608.92V593.44C393.209 592.984 393.317 592.636 393.533 592.396C393.773 592.132 394.097 592 394.505 592C394.937 592 395.261 592.132 395.477 592.396C395.717 592.636 395.837 592.984 395.837 593.44V608.92C395.837 609.376 395.717 609.736 395.477 610C395.261 610.24 394.937 610.36 394.505 610.36ZM411.533 610.36C411.125 610.36 410.801 610.24 410.561 610C410.345 609.736 410.237 609.376 410.237 608.92V593.44C410.237 592.984 410.345 592.636 410.561 592.396C410.777 592.132 411.101 592 411.533 592C411.941 592 412.253 592.132 412.469 592.396C412.709 592.636 412.829 592.984 412.829 593.44V595.564C413.717 594.388 414.785 593.5 416.033 592.9C417.305 592.3 418.697 592 420.209 592C422.489 592 424.241 592.636 425.465 593.908C426.713 595.18 427.337 597.004 427.337 599.38V608.92C427.337 609.376 427.217 609.736 426.977 610C426.737 610.24 426.413 610.36 426.005 610.36C425.573 610.36 425.249 610.24 425.033 610C424.817 609.736 424.709 609.376 424.709 608.92V599.38C424.709 595.972 423.101 594.268 419.885 594.268C417.773 594.268 416.069 594.892 414.773 596.14C413.501 597.388 412.865 599.044 412.865 601.108V608.92C412.865 609.352 412.745 609.7 412.505 609.964C412.289 610.228 411.965 610.36 411.533 610.36ZM449.669 610.36C446.549 610.36 444.137 609.556 442.433 607.948C440.729 606.34 439.877 604.06 439.877 601.108C439.877 598.276 440.741 596.056 442.469 594.448C444.197 592.816 446.561 592 449.561 592C451.409 592 453.053 592.3 454.493 592.9C455.933 593.476 457.049 594.304 457.841 595.384C458.657 596.44 459.065 597.652 459.065 599.02C459.065 600.028 458.777 600.808 458.201 601.36C457.649 601.912 456.881 602.188 455.897 602.188H442.577C442.577 604.036 443.201 605.488 444.449 606.544C445.697 607.576 447.437 608.092 449.669 608.092C451.037 608.092 452.213 607.948 453.197 607.66C454.181 607.348 455.105 606.856 455.969 606.184C456.425 605.8 456.797 605.608 457.085 605.608C457.301 605.608 457.505 605.704 457.697 605.896C458.033 606.184 458.201 606.484 458.201 606.796C458.201 607.036 458.057 607.3 457.769 607.588C456.785 608.524 455.633 609.22 454.313 609.676C452.993 610.132 451.445 610.36 449.669 610.36ZM455.105 600.064C455.537 600.064 455.861 599.98 456.077 599.812C456.293 599.62 456.401 599.284 456.401 598.804C456.401 597.94 456.113 597.16 455.537 596.464C454.961 595.768 454.145 595.228 453.089 594.844C452.057 594.46 450.881 594.268 449.561 594.268C447.425 594.268 445.733 594.796 444.485 595.852C443.261 596.884 442.649 598.288 442.649 600.064H455.105Z" fill="#EAD4D4"/>
<path d="M72.7815 725.12C72.5095 724.96 72.3735 724.744 72.3735 724.472C72.3735 724.28 72.4375 724.072 72.5655 723.848L80.2455 709.688H70.9815C70.6935 709.688 70.4615 709.632 70.2855 709.52C70.1255 709.392 70.0455 709.208 70.0455 708.968C70.0455 708.456 70.3575 708.2 70.9815 708.2H81.2055C81.5095 708.2 81.7415 708.28 81.9015 708.44C82.0775 708.6 82.1655 708.816 82.1655 709.088C82.1655 709.408 82.0775 709.728 81.9015 710.048L74.0295 724.76C73.8535 725.08 73.5975 725.24 73.2615 725.24C73.0695 725.24 72.9095 725.2 72.7815 725.12ZM96.5645 725.24C95.2845 725.24 94.1085 725 93.0365 724.52C91.9645 724.04 91.0605 723.352 90.3245 722.456C90.1645 722.248 90.0845 722.048 90.0845 721.856C90.0845 721.6 90.2045 721.392 90.4445 721.232C90.5885 721.136 90.7565 721.088 90.9485 721.088C91.2685 721.088 91.5085 721.208 91.6685 721.448C92.2125 722.2 92.9085 722.768 93.7565 723.152C94.6205 723.52 95.5485 723.704 96.5405 723.704C98.0765 723.704 99.2685 723.296 100.117 722.48C100.981 721.664 101.413 720.504 101.413 719C101.413 717.64 100.997 716.592 100.165 715.856C99.3325 715.104 98.2285 714.728 96.8525 714.728C96.0525 714.728 95.3005 714.872 94.5965 715.16C93.9085 715.448 93.3485 715.84 92.9165 716.336C92.5165 716.784 92.1405 717.008 91.7885 717.008C91.4685 717.008 91.2125 716.92 91.0205 716.744C90.8285 716.552 90.7565 716.312 90.8045 716.024L91.7405 709.76C91.8205 709.28 92.0285 708.904 92.3645 708.632C92.7165 708.344 93.1805 708.2 93.7565 708.2H101.509C102.133 708.2 102.445 708.456 102.445 708.968C102.445 709.208 102.357 709.392 102.181 709.52C102.021 709.632 101.797 709.688 101.509 709.688H94.2125C93.9245 709.688 93.7165 709.752 93.5885 709.88C93.4605 710.008 93.3725 710.216 93.3245 710.504L92.7005 714.704C93.3085 714.208 93.9885 713.832 94.7405 713.576C95.5085 713.304 96.3005 713.168 97.1165 713.168C98.2845 713.168 99.3325 713.4 100.261 713.864C101.189 714.328 101.909 715 102.421 715.88C102.949 716.744 103.213 717.776 103.213 718.976C103.213 720.224 102.949 721.32 102.421 722.264C101.893 723.208 101.125 723.944 100.117 724.472C99.1245 724.984 97.9405 725.24 96.5645 725.24ZM118.343 725.24C116.919 725.24 115.687 724.896 114.647 724.208C113.607 723.52 112.807 722.528 112.247 721.232C111.703 719.936 111.431 718.392 111.431 716.6C111.431 714.808 111.703 713.264 112.247 711.968C112.807 710.672 113.607 709.68 114.647 708.992C115.687 708.304 116.919 707.96 118.343 707.96C119.767 707.96 120.999 708.304 122.039 708.992C123.079 709.68 123.871 710.672 124.415 711.968C124.975 713.264 125.255 714.808 125.255 716.6C125.255 718.392 124.975 719.936 124.415 721.232C123.871 722.528 123.079 723.52 122.039 724.208C120.999 724.896 119.767 725.24 118.343 725.24ZM118.343 723.704C119.975 723.704 121.231 723.088 122.111 721.856C123.007 720.608 123.455 718.856 123.455 716.6C123.455 714.328 123.007 712.576 122.111 711.344C121.231 710.112 119.975 709.496 118.343 709.496C116.711 709.496 115.447 710.112 114.551 711.344C113.671 712.576 113.231 714.328 113.231 716.6C113.231 718.856 113.671 720.608 114.551 721.856C115.447 723.088 116.711 723.704 118.343 723.704ZM134.753 725.24C134.481 725.24 134.265 725.16 134.105 725C133.961 724.824 133.889 724.584 133.889 724.28V713.96C133.889 713.656 133.961 713.424 134.105 713.264C134.265 713.088 134.481 713 134.753 713C135.041 713 135.257 713.088 135.401 713.264C135.561 713.44 135.641 713.672 135.641 713.96V715.328C136.073 714.608 136.625 714.04 137.297 713.624C137.985 713.208 138.705 713 139.457 713C140.209 713 140.873 713.208 141.449 713.624C142.025 714.024 142.449 714.592 142.721 715.328C143.281 714.576 143.897 714 144.569 713.6C145.257 713.2 145.969 713 146.705 713C147.969 713 148.921 713.392 149.561 714.176C150.201 714.944 150.521 716.088 150.521 717.608V724.28C150.521 724.584 150.441 724.824 150.281 725C150.121 725.16 149.905 725.24 149.633 725.24C149.057 725.24 148.769 724.92 148.769 724.28V717.56C148.769 716.536 148.593 715.776 148.241 715.28C147.905 714.768 147.321 714.512 146.489 714.512C145.785 714.512 145.153 714.728 144.593 715.16C144.033 715.576 143.585 716.184 143.249 716.984V724.28C143.249 724.584 143.169 724.824 143.009 725C142.849 725.16 142.633 725.24 142.361 725.24C142.089 725.24 141.873 725.16 141.713 725C141.569 724.824 141.497 724.584 141.497 724.28V717.92C141.497 716.816 141.297 715.976 140.897 715.4C140.513 714.808 139.961 714.512 139.241 714.512C138.553 714.512 137.937 714.704 137.393 715.088C136.849 715.456 136.417 715.968 136.097 716.624C135.793 717.28 135.641 718.024 135.641 718.856V724.28C135.641 724.568 135.561 724.8 135.401 724.976C135.257 725.152 135.041 725.24 134.753 725.24ZM160.845 725.24C160.573 725.24 160.357 725.16 160.197 725C160.053 724.824 159.981 724.584 159.981 724.28V707.744C159.981 707.44 160.053 707.208 160.197 707.048C160.357 706.872 160.573 706.784 160.845 706.784C161.117 706.784 161.333 706.872 161.493 707.048C161.653 707.208 161.733 707.44 161.733 707.744V724.28C161.733 724.568 161.653 724.8 161.493 724.976C161.349 725.152 161.133 725.24 160.845 725.24Z" fill="#EAD4D4"/>
<path d="M438.512 725.24C438.24 725.24 438.024 725.16 437.864 725C437.704 724.824 437.624 724.584 437.624 724.28V710.024L434.624 711.176C434.48 711.24 434.32 711.272 434.144 711.272C433.76 711.272 433.496 711.112 433.352 710.792C433.304 710.664 433.28 710.544 433.28 710.432C433.28 710.048 433.488 709.784 433.904 709.64L438.2 708.032C438.344 707.984 438.48 707.96 438.608 707.96C438.848 707.96 439.048 708.048 439.208 708.224C439.368 708.4 439.448 708.624 439.448 708.896V724.28C439.448 724.584 439.36 724.824 439.184 725C439.024 725.16 438.8 725.24 438.512 725.24ZM454.762 725.24C453.482 725.24 452.29 725 451.186 724.52C450.082 724.04 449.162 723.352 448.426 722.456C448.266 722.248 448.186 722.048 448.186 721.856C448.186 721.6 448.306 721.392 448.546 721.232C448.706 721.12 448.874 721.064 449.05 721.064C449.338 721.064 449.578 721.2 449.77 721.472C450.298 722.176 451.002 722.728 451.882 723.128C452.778 723.512 453.738 723.704 454.762 723.704C456.234 723.704 457.386 723.416 458.218 722.84C459.066 722.248 459.49 721.432 459.49 720.392C459.49 719.272 459.194 718.424 458.602 717.848C458.026 717.256 457.17 716.96 456.034 716.96H453.346C452.706 716.96 452.386 716.712 452.386 716.216C452.386 715.704 452.706 715.448 453.346 715.448H456.034C456.93 715.448 457.658 715.192 458.218 714.68C458.794 714.152 459.082 713.472 459.082 712.64C459.082 711.632 458.714 710.856 457.978 710.312C457.258 709.768 456.218 709.496 454.858 709.496C453.914 709.496 453.042 709.664 452.242 710C451.458 710.336 450.786 710.824 450.226 711.464C450.018 711.704 449.786 711.824 449.53 711.824C449.37 711.824 449.186 711.76 448.978 711.632C448.754 711.488 448.642 711.288 448.642 711.032C448.642 710.808 448.73 710.608 448.906 710.432C449.658 709.632 450.538 709.024 451.546 708.608C452.57 708.176 453.674 707.96 454.858 707.96C456.746 707.96 458.218 708.384 459.274 709.232C460.346 710.08 460.882 711.216 460.882 712.64C460.882 713.36 460.666 714.024 460.234 714.632C459.818 715.224 459.21 715.72 458.41 716.12V716.168C459.386 716.552 460.106 717.096 460.57 717.8C461.05 718.488 461.29 719.352 461.29 720.392C461.29 721.368 461.018 722.224 460.474 722.96C459.93 723.696 459.162 724.264 458.17 724.664C457.194 725.048 456.058 725.24 454.762 725.24ZM471.047 725.12C470.951 725.056 470.871 724.968 470.807 724.856C470.743 724.744 470.711 724.624 470.711 724.496C470.711 724.352 470.775 724.176 470.903 723.968L481.679 708.296C481.855 708.04 482.079 707.912 482.351 707.912C482.511 707.912 482.679 707.96 482.855 708.056C483.127 708.216 483.263 708.424 483.263 708.68C483.263 708.856 483.207 709.024 483.095 709.184L472.295 724.904C472.119 725.16 471.879 725.288 471.575 725.288C471.383 725.288 471.207 725.232 471.047 725.12ZM473.087 715.184C472.415 715.184 471.791 715.024 471.215 714.704C470.655 714.368 470.207 713.92 469.871 713.36C469.535 712.8 469.367 712.192 469.367 711.536C469.367 710.88 469.535 710.272 469.871 709.712C470.207 709.152 470.655 708.712 471.215 708.392C471.791 708.072 472.415 707.912 473.087 707.912C473.775 707.912 474.399 708.072 474.959 708.392C475.535 708.712 475.983 709.152 476.303 709.712C476.639 710.272 476.807 710.88 476.807 711.536C476.807 712.192 476.639 712.8 476.303 713.36C475.983 713.92 475.535 714.368 474.959 714.704C474.399 715.024 473.775 715.184 473.087 715.184ZM473.087 713.672C473.679 713.672 474.175 713.472 474.575 713.072C474.975 712.656 475.175 712.144 475.175 711.536C475.175 710.928 474.975 710.416 474.575 710C474.175 709.584 473.679 709.376 473.087 709.376C472.479 709.376 471.975 709.584 471.575 710C471.175 710.416 470.975 710.928 470.975 711.536C470.975 712.144 471.175 712.656 471.575 713.072C471.975 713.472 472.479 713.672 473.087 713.672ZM481.103 725.24C480.431 725.24 479.807 725.08 479.231 724.76C478.671 724.424 478.223 723.976 477.887 723.416C477.551 722.856 477.383 722.248 477.383 721.592C477.383 720.936 477.551 720.328 477.887 719.768C478.223 719.208 478.671 718.768 479.231 718.448C479.807 718.128 480.431 717.968 481.103 717.968C481.775 717.968 482.391 718.128 482.951 718.448C483.527 718.768 483.975 719.208 484.295 719.768C484.631 720.328 484.799 720.936 484.799 721.592C484.799 722.248 484.631 722.856 484.295 723.416C483.975 723.976 483.527 724.424 482.951 724.76C482.391 725.08 481.775 725.24 481.103 725.24ZM481.103 723.728C481.679 723.728 482.167 723.528 482.567 723.128C482.983 722.712 483.191 722.2 483.191 721.592C483.191 720.984 482.991 720.472 482.591 720.056C482.191 719.64 481.695 719.432 481.103 719.432C480.495 719.432 479.983 719.64 479.567 720.056C479.167 720.472 478.967 720.984 478.967 721.592C478.967 722.2 479.167 722.712 479.567 723.128C479.983 723.528 480.495 723.728 481.103 723.728ZM511.291 725.24C510.523 725.24 509.867 725.008 509.323 724.544C508.795 724.08 508.355 723.36 508.003 722.384L505.027 714.152C504.995 714.024 504.979 713.936 504.979 713.888C504.979 713.712 505.035 713.552 505.147 713.408C505.259 713.248 505.403 713.136 505.579 713.072C505.659 713.04 505.779 713.024 505.939 713.024C506.131 713.024 506.291 713.072 506.419 713.168C506.563 713.264 506.667 713.4 506.731 713.576L509.755 721.904C510.011 722.592 510.251 723.072 510.475 723.344C510.699 723.616 510.971 723.752 511.291 723.752C511.611 723.752 511.883 723.624 512.107 723.368C512.347 723.096 512.587 722.624 512.827 721.952L515.851 713.576C515.995 713.208 516.259 713.024 516.643 713.024C516.931 713.024 517.163 713.112 517.339 713.288C517.531 713.448 517.627 713.648 517.627 713.888C517.627 713.936 517.611 714.024 517.579 714.152L514.555 722.432C514.203 723.408 513.763 724.12 513.235 724.568C512.707 725.016 512.059 725.24 511.291 725.24ZM531.237 725.24C529.845 725.24 528.653 724.96 527.661 724.4C526.669 723.84 525.917 723.096 525.405 722.168C524.909 721.224 524.661 720.208 524.661 719.12C524.661 718.032 524.909 717.024 525.405 716.096C525.917 715.152 526.669 714.4 527.661 713.84C528.653 713.28 529.845 713 531.237 713C532.629 713 533.813 713.28 534.789 713.84C535.781 714.4 536.525 715.152 537.021 716.096C537.533 717.024 537.789 718.032 537.789 719.12C537.789 720.208 537.533 721.224 537.021 722.168C536.525 723.096 535.781 723.84 534.789 724.4C533.813 724.96 532.629 725.24 531.237 725.24ZM531.237 723.728C532.677 723.728 533.829 723.32 534.693 722.504C535.573 721.688 536.013 720.56 536.013 719.12C536.013 717.68 535.573 716.552 534.693 715.736C533.829 714.92 532.677 714.512 531.237 714.512C529.781 714.512 528.613 714.92 527.733 715.736C526.869 716.552 526.437 717.68 526.437 719.12C526.437 720.56 526.869 721.688 527.733 722.504C528.613 723.32 529.781 723.728 531.237 723.728ZM547.671 725.24C547.399 725.24 547.183 725.16 547.023 725C546.879 724.824 546.807 724.584 546.807 724.28V707.744C546.807 707.44 546.879 707.208 547.023 707.048C547.183 706.872 547.399 706.784 547.671 706.784C547.943 706.784 548.159 706.872 548.319 707.048C548.479 707.208 548.559 707.44 548.559 707.744V724.28C548.559 724.568 548.479 724.8 548.319 724.976C548.175 725.152 547.959 725.24 547.671 725.24ZM559.092 724.976C558.708 724.976 558.38 724.848 558.108 724.592C557.836 724.32 557.7 724.008 557.7 723.656C557.7 723.288 557.836 722.968 558.108 722.696C558.38 722.424 558.708 722.288 559.092 722.288C559.46 722.288 559.78 722.424 560.052 722.696C560.324 722.968 560.46 723.288 560.46 723.656C560.46 724.008 560.324 724.32 560.052 724.592C559.78 724.848 559.46 724.976 559.092 724.976Z" fill="#EAD4D4"/>
<rect x="83.5" y="74.5" width="446" height="570" stroke="#8C3434" stroke-width="7"/>
<path d="M107.882 391.826C99.4783 391.826 91.7876 390.558 84.8106 388.02C77.6749 385.641 72.0457 381.439 67.9229 375.412C63.8001 369.386 61.7387 361.06 61.7387 350.434C61.7387 340.919 64.5136 331.8 70.0636 323.077C75.455 314.355 82.5113 306.266 91.2326 298.813C99.954 291.2 109.072 284.619 118.586 279.068C125.246 275.262 132.144 271.773 139.279 268.601C146.415 265.429 153.63 262.733 160.924 260.513C151.886 252.425 145.067 242.988 140.469 232.204C136.029 221.42 133.809 210.319 133.809 198.9C133.809 188.433 135.632 178.204 139.279 168.213C143.085 158.221 148.714 149.102 156.167 140.856C163.62 132.45 172.817 125.631 183.758 120.397C192.955 116.115 201.914 113.102 210.636 111.358C219.516 109.613 228.316 108.741 237.037 108.741C247.186 108.741 257.255 109.772 267.245 111.834C277.393 113.737 287.621 115.957 297.928 118.494C308.394 120.873 319.018 122.697 329.801 123.966L333.844 124.442C339.87 119.049 345.737 115.005 351.445 112.309C357.313 109.455 362.942 108.027 368.333 108.027C370.553 108.027 372.694 108.265 374.755 108.741L375.707 108.979L376.182 109.455C377.451 110.089 378.085 111.12 378.085 112.547C378.085 114.292 377.134 116.274 375.231 118.494C373.487 120.715 371.425 122.697 369.047 124.442C366.668 126.186 364.527 127.217 362.625 127.534C355.648 128.803 348.274 129.279 340.504 128.961C334.161 135.939 327.898 144.265 321.714 153.94C315.529 163.455 309.9 172.97 304.826 182.486C312.754 187.244 318.701 193.112 322.665 200.09C326.788 206.909 328.849 214.046 328.849 221.499C328.849 231.649 325.044 241.64 317.432 251.473C309.979 261.306 298.483 269.156 282.943 275.024C288.81 281.843 291.744 289.694 291.744 298.575C291.744 306.346 289.92 313.007 286.273 318.557C282.785 324.267 278.028 328.945 272.002 332.593C265.976 336.399 259.158 339.174 251.547 340.919C244.094 342.822 236.403 343.773 228.475 343.773C225.145 343.773 221.735 343.615 218.247 343.297C214.917 342.98 211.666 342.504 208.495 341.87C196.602 354.24 184.075 364.707 170.914 373.271C157.753 381.994 144.195 387.465 130.241 389.685C126.435 390.32 122.629 390.796 118.824 391.113C115.177 391.589 111.53 391.826 107.882 391.826ZM344.072 125.155C349.622 125.155 355.172 124.759 360.722 123.966C366.43 123.173 370.791 121.666 373.804 119.446C374.597 118.97 375.31 118.256 375.944 117.305C376.579 116.353 376.896 115.402 376.896 114.45C376.896 113.182 376.182 112.23 374.755 111.596C373.169 111.12 371.505 110.882 369.76 110.882C365.796 110.882 361.594 112.151 357.154 114.688C352.873 117.226 348.512 120.715 344.072 125.155ZM165.681 259.086C180.428 254.804 195.413 252.663 210.636 252.663C225.383 252.663 237.91 253.931 248.217 256.469C252.815 248.063 257.017 240.213 260.823 232.918C264.787 225.623 268.276 219.2 271.288 213.649C277.473 201.755 283.657 190.812 289.841 180.821C281.754 177.49 272.081 175.825 260.823 175.825C248.296 175.825 237.275 178.363 227.761 183.437C218.406 188.354 211.666 194.301 207.543 201.279C204.848 205.878 203.5 210.636 203.5 215.552C203.5 220.627 205.165 225.702 208.495 230.777C211.825 235.852 217.216 240.292 224.669 244.099C225.303 244.574 225.62 245.05 225.62 245.526C225.62 245.843 225.303 246.16 224.669 246.477C224.193 246.636 223.559 246.557 222.766 246.24C214.679 242.116 208.733 237.358 204.927 231.966C201.28 226.574 199.456 221.024 199.456 215.314C199.456 209.764 201.042 204.451 204.214 199.376C208.812 191.605 216.106 185.103 226.096 179.869C236.245 174.477 247.82 171.781 260.823 171.781C266.849 171.781 272.478 172.257 277.711 173.208C282.943 174.001 287.78 175.191 292.22 176.777C298.721 166.468 305.143 157.27 311.486 149.182C317.829 140.935 324.013 133.878 330.039 128.01L329.087 127.772C314.499 124.124 300.624 121.19 287.463 118.97C274.301 116.591 261.219 115.402 248.217 115.402C239.495 115.402 230.536 116.353 221.339 118.256C212.301 120.16 202.866 123.411 193.034 128.01C182.093 133.085 172.817 139.825 165.205 148.23C157.753 156.477 152.044 165.596 148.08 175.587C144.274 185.578 142.371 195.649 142.371 205.799C142.371 215.79 144.274 225.464 148.08 234.821C152.044 244.019 157.911 252.107 165.681 259.086ZM279.138 270.98C292.775 265.429 302.844 258.055 309.345 248.856C316.005 239.658 319.335 230.38 319.335 221.024C319.335 214.68 317.829 208.653 314.816 202.944C311.962 197.076 307.68 192.001 301.972 187.719C297.532 196.125 293.647 203.896 290.317 211.032C286.987 218.169 284.45 223.799 282.706 227.922C277.948 238.865 272.319 250.363 265.818 262.416C268.514 263.526 270.971 264.874 273.191 266.46C275.411 267.887 277.393 269.394 279.138 270.98ZM231.805 279.782H234.421C236.482 276.451 238.465 273.121 240.367 269.79C242.429 266.46 244.332 263.209 246.076 260.037C236.403 257.658 224.59 256.469 210.636 256.469C203.817 256.469 196.999 257.024 190.18 258.134C183.52 259.244 176.86 260.751 170.2 262.654C177.495 268.046 186.216 272.249 196.364 275.262C206.671 278.275 218.485 279.782 231.805 279.782ZM112.164 388.258C119.617 388.258 127.387 386.989 135.474 384.452C145.305 381.28 155.136 375.491 164.968 367.086C174.957 358.839 184.63 349.086 193.986 337.826C186.692 334.813 180.349 330.927 174.957 326.17C169.566 321.412 166.87 315.703 166.87 309.042V308.566C166.87 307.456 167.425 306.901 168.535 306.901C169.487 306.901 170.042 307.456 170.2 308.566C170.993 314.91 173.768 320.302 178.525 324.742C183.282 329.183 189.149 332.672 196.126 335.209C202.628 327.28 208.891 318.874 214.917 309.993C220.943 301.112 226.651 292.31 232.043 283.588H231.805C217.692 283.588 205.086 281.923 193.986 278.592C182.886 275.103 173.372 270.266 165.443 264.081C157.673 266.619 149.903 269.711 142.133 273.359C134.522 276.848 127.149 280.654 120.013 284.777C102.253 295.244 89.4091 306.346 81.4806 318.081C73.3935 329.817 69.35 340.76 69.35 350.91C69.35 361.535 73.235 370.417 81.0049 377.553C88.7748 384.69 99.1611 388.258 112.164 388.258ZM257.017 277.403C260.189 276.768 263.201 276.134 266.056 275.5C269.069 274.707 271.843 273.834 274.381 272.883C271.368 270.187 267.879 267.887 263.915 265.984C262.805 267.887 261.695 269.79 260.585 271.694C259.475 273.597 258.286 275.5 257.017 277.403ZM225.62 339.967C233.232 339.967 240.605 339.095 247.741 337.35C255.035 335.764 261.616 333.227 267.483 329.738C273.35 326.407 278.028 322.126 281.516 316.892C285.005 311.658 286.749 305.553 286.749 298.575C286.749 294.61 286.035 290.804 284.608 287.156C283.34 283.35 281.278 279.861 278.424 276.689C271.288 278.909 263.281 280.654 254.401 281.923C248.058 292.072 241.24 301.984 233.945 311.658C226.81 321.333 219.278 330.452 211.349 339.015C213.728 339.333 216.106 339.571 218.485 339.729C220.863 339.888 223.242 339.967 225.62 339.967ZM340.69 275.381V275.262C339.105 276.055 337.361 277.958 335.458 280.971C333.555 283.905 332.445 286.442 332.128 288.583C337.836 282.716 340.69 278.315 340.69 275.381ZM315.359 300.24C318.372 300.24 323.248 297.068 329.987 290.724V290.13C329.987 287.672 331.176 284.658 333.555 281.09C336.013 277.442 338.233 275.103 340.215 274.072C339.977 273.834 339.66 273.716 339.263 273.716C336.33 273.716 331.454 277.086 324.635 283.826C317.896 290.566 314.526 295.799 314.526 299.526C314.526 300.002 314.804 300.24 315.359 300.24ZM311.672 298.575C311.672 292.628 315.081 286.72 321.9 280.852C328.798 274.905 334.506 271.931 339.025 271.931C341.245 271.931 342.355 272.923 342.355 274.905C342.355 280.535 339.343 286.165 333.317 291.795C333.793 291.954 334.268 292.033 334.744 292.033C336.964 292.033 340.175 290.645 344.377 287.87L344.972 289.059C339.898 292.469 336.052 294.174 333.436 294.174C332.405 294.174 331.652 293.976 331.176 293.579C328.084 296.117 324.833 298.178 321.424 299.764C318.015 301.35 315.518 302.143 313.932 302.143C312.425 302.143 311.672 300.954 311.672 298.575ZM340.737 289.535C340.341 289.773 339.865 290.09 339.31 290.487L338.953 289.059C347.913 283.35 355.207 278.909 360.836 275.738L364.047 273.834C365.236 272.883 366.544 271.773 367.972 270.504C370.984 268.125 372.57 266.975 372.729 267.055C373.125 267.055 373.323 267.253 373.323 267.649C373.323 267.967 373.006 268.561 372.372 269.434C371.738 270.227 370.826 271.178 369.637 272.288C368.527 273.398 367.853 274.112 367.615 274.429C366.426 275.619 364.443 279.425 361.668 285.848C358.973 292.191 357.506 295.601 357.268 296.077C357.268 296.394 357.347 296.553 357.506 296.553C357.744 296.553 357.902 296.513 357.982 296.434L371.302 287.989L371.42 289.535C370.469 290.09 368.883 291.081 366.663 292.509C364.443 293.936 362.858 294.927 361.906 295.482C361.034 296.037 359.726 296.87 357.982 297.98C356.237 299.011 354.89 299.764 353.938 300.24C352.987 300.716 351.877 301.271 350.608 301.905C347.358 302.857 345.296 303.332 344.424 303.332C344.345 303.332 344.305 303.332 344.305 303.332C342.164 303.332 340.42 302.698 339.072 301.429C337.724 300.161 337.051 298.694 337.051 297.028C337.051 295.363 337.605 293.936 338.715 292.746C339.905 291.557 341.292 290.962 342.878 290.962C344.464 290.962 345.256 291.597 345.256 292.865C345.256 293.579 344.979 294.253 344.424 294.887C343.948 295.522 343.314 295.839 342.521 295.839C341.808 295.839 341.372 295.482 341.213 294.769C341.134 294.055 340.935 293.698 340.618 293.698C340.063 293.698 339.588 293.976 339.191 294.531C338.874 295.086 338.715 295.879 338.715 296.91C338.715 297.94 339.191 298.971 340.143 300.002C341.094 300.954 342.442 301.429 344.186 301.429C345.93 301.429 347.556 300.795 349.062 299.526C350.648 298.258 351.718 297.147 352.273 296.196C352.828 295.244 354.017 292.588 355.841 288.227C357.665 283.786 359.567 280.297 361.549 277.76L361.787 277.284C361.787 277.205 361.668 277.165 361.431 277.165C360.796 277.165 355.524 280.257 345.613 286.442L340.737 289.535ZM393.638 271.575C393.638 271.337 393.479 271.218 393.162 271.218C391.021 271.218 387.691 273.081 383.172 276.808C378.653 280.535 374.728 284.619 371.398 289.059C375.363 287.791 380.04 284.936 385.432 280.495C390.902 276.055 393.638 273.081 393.638 271.575ZM366.165 299.645C366.165 300.676 366.562 301.191 367.355 301.191C368.306 301.191 370.447 300.557 373.777 299.288C377.107 297.94 379.842 296.632 381.983 295.363L393.638 287.989L393.757 289.535C385.432 295.086 379.208 298.614 375.085 300.121C371.041 301.628 368.346 302.381 366.998 302.381C364.778 302.381 363.668 300.993 363.668 298.218C363.668 294.491 365.016 290.764 367.712 287.037C370.407 283.31 373.539 280.257 377.107 277.879C380.754 275.5 384.242 273.557 387.572 272.05C390.982 270.544 393.558 269.79 395.303 269.79C397.047 269.79 397.919 270.385 397.919 271.575C397.919 274.508 394.43 278.077 387.453 282.279C380.556 286.482 374.808 289.257 370.209 290.606C367.513 294.491 366.165 297.504 366.165 299.645ZM394.919 291.319C394.919 291.002 394.84 290.843 394.681 290.843C393.571 290.843 392.58 291.755 391.708 293.579C390.915 295.403 390.519 296.949 390.519 298.218C390.519 299.407 390.638 300.2 390.875 300.597C393.571 295.68 394.919 292.588 394.919 291.319ZM453.788 220.905C453.788 220.746 453.669 220.667 453.431 220.667C450.656 220.667 434.601 238.508 405.266 274.191C413.273 268.403 423.343 259.085 435.473 246.24C447.683 233.314 453.788 224.869 453.788 220.905ZM357.219 338.183C357.219 338.421 357.378 338.54 357.695 338.54C361.659 338.54 366.852 334.654 373.274 326.883C379.617 319.112 385.207 310.866 390.043 302.143C389.25 301.826 388.854 300.676 388.854 298.694C388.854 296.632 389.686 294.213 391.351 291.438C368.596 319.905 357.219 335.487 357.219 338.183ZM455.691 217.931C456.404 217.931 456.761 218.248 456.761 218.883C456.761 222.134 454.541 226.733 450.101 232.68C445.661 238.627 440.23 244.654 433.808 250.759C419.933 264.24 408.873 273.953 400.627 279.901L393.016 289.416C393.65 288.94 394.205 288.702 394.681 288.702C395.95 288.702 396.584 289.614 396.584 291.438C396.584 293.262 395.751 296.077 394.086 299.883C397.02 298.456 400.152 296.711 403.482 294.65L413.828 287.989L413.947 289.535C404.592 295.72 397.694 299.685 393.254 301.429C389.052 310.31 383.185 318.993 375.653 327.478C368.121 336.042 361.58 340.324 356.03 340.324C355.158 340.324 354.721 339.808 354.721 338.778C354.721 335.844 362.214 324.425 377.199 304.522C392.184 284.619 408.041 265.231 424.77 246.359C441.499 227.407 451.806 217.931 455.691 217.931ZM433.95 260.751C433.95 261.94 434.624 262.535 435.972 262.535C437.32 262.535 438.549 261.94 439.659 260.751C440.769 259.482 441.324 258.53 441.324 257.896C441.324 257.262 441.086 256.707 440.61 256.231C440.214 255.755 439.579 255.517 438.707 255.517C437.914 255.517 436.923 256.072 435.734 257.182C434.545 258.293 433.95 259.482 433.95 260.751ZM405.883 300.121C405.883 300.438 406.081 300.597 406.478 300.597C407.905 300.597 415.001 296.394 427.766 287.989L427.885 289.535L423.009 292.746C419.758 294.887 416.19 297.028 412.305 299.169C408.42 301.231 405.844 302.262 404.575 302.262C403.624 302.262 403.148 301.509 403.148 300.002C403.148 298.416 405.526 294.412 410.284 287.989C415.12 281.487 420.234 275.5 425.625 270.028C426.18 269.394 426.775 269.077 427.409 269.077L430.144 269.315C430.779 269.394 431.096 269.592 431.096 269.909C431.096 270.147 430.858 270.583 430.382 271.218C427.211 274.39 422.533 279.504 416.349 286.561C410.244 293.619 406.755 298.139 405.883 300.121ZM422.942 290.487L422.585 289.059L426.51 286.561C432.456 282.597 436.183 279.821 437.689 278.235C439.196 276.57 440.107 275.539 440.424 275.143C442.486 272.526 443.635 271.059 443.873 270.742C444.825 271.059 445.3 272.011 445.3 273.597C443.715 275.896 441.574 278.672 438.878 281.923C436.183 285.094 433.963 287.751 432.218 289.892C430.474 291.954 429.602 293.143 429.602 293.46C429.602 293.777 429.642 293.936 429.721 293.936C429.88 293.936 430.474 293.539 431.505 292.746C432.615 291.874 435.548 289.773 440.305 286.442C449.899 279.782 456.004 275.579 458.62 273.834C461.237 272.011 462.902 271.099 463.615 271.099C464.408 271.099 464.805 271.892 464.805 273.478C464.805 274.984 463.615 277.284 461.237 280.376C458.858 283.469 456.242 286.324 453.387 288.94C445.776 295.918 441.97 299.764 441.97 300.478C441.97 300.557 442.129 300.597 442.446 300.597C443.398 300.597 448.749 297.465 458.501 291.2L463.377 287.989L463.496 289.535C450.731 298.02 442.962 302.262 440.187 302.262C439.711 302.262 439.473 302.024 439.473 301.548C439.473 298.614 441.297 295.165 444.944 291.2C448.67 287.156 452.357 283.548 456.004 280.376C459.651 277.125 461.475 274.984 461.475 273.953C461.475 273.795 461.395 273.716 461.237 273.716C458.937 274.826 453.586 278.354 445.182 284.301C436.857 290.169 431.981 293.619 430.553 294.65C426.827 297.425 424.845 298.892 424.607 299.05C424.449 299.13 424.052 299.526 423.418 300.24C421.991 301.747 420.682 302.5 419.493 302.5C417.59 302.341 416.599 302.222 416.52 302.143C416.441 302.064 416.401 301.984 416.401 301.905C416.401 301.826 417.075 301.073 418.423 299.645C419.691 298.297 420.96 296.949 422.229 295.601C426.431 290.923 429.325 287.592 430.91 285.61L422.942 290.487ZM485.751 271.575C485.751 271.337 485.592 271.218 485.275 271.218C483.134 271.218 479.804 273.081 475.285 276.808C470.766 280.535 466.841 284.619 463.511 289.059C467.476 287.791 472.153 284.936 477.545 280.495C483.015 276.055 485.751 273.081 485.751 271.575ZM458.279 299.645C458.279 300.676 458.675 301.191 459.468 301.191C460.419 301.191 462.56 300.557 465.89 299.288C469.22 297.94 471.955 296.632 474.096 295.363L485.751 287.989L485.87 289.535C477.545 295.086 471.321 298.614 467.198 300.121C463.155 301.628 460.459 302.381 459.111 302.381C456.891 302.381 455.781 300.993 455.781 298.218C455.781 294.491 457.129 290.764 459.825 287.037C462.52 283.31 465.652 280.257 469.22 277.879C472.867 275.5 476.356 273.557 479.685 272.05C483.095 270.544 485.671 269.79 487.416 269.79C489.16 269.79 490.032 270.385 490.032 271.575C490.032 274.508 486.544 278.077 479.567 282.279C472.669 286.482 466.921 289.257 462.322 290.606C459.626 294.491 458.279 297.504 458.279 299.645ZM280.621 508.074L363.315 364.033C363.315 363.478 363.038 363.201 362.483 363.201C309.388 412.047 273.221 447.756 253.981 470.329C251.391 473.289 244.917 479.858 234.557 490.034C224.382 500.21 218.184 506.131 215.964 507.796C213.929 509.461 210.23 510.756 204.864 511.682C203.754 511.682 203.199 511.034 203.199 509.739C203.199 508.444 210.507 499.008 225.122 481.43C239.922 463.668 256.109 444.056 273.684 422.593C291.259 400.945 307.354 377.91 321.968 353.487C336.768 329.064 344.168 310.192 344.168 296.87C344.168 289.099 340.19 285.213 332.236 285.213C318.731 285.213 303.283 290.671 285.894 301.588C268.689 312.505 253.149 325.271 239.274 339.888C225.584 354.504 213.929 369.399 204.309 384.571C194.69 399.558 189.88 411.214 189.88 419.54C189.88 424.721 192.932 427.311 199.037 427.311C205.142 427.311 212.172 425.276 220.127 421.205C228.267 417.135 235.944 412.14 243.159 406.219C257.774 394.192 269.706 383.276 278.956 373.469L284.506 367.364C285.246 366.809 285.894 366.531 286.449 366.531C287.004 366.531 287.281 367.086 287.281 368.196C264.156 394.285 241.587 412.972 219.572 424.258C210.692 428.699 202.829 430.919 195.985 430.919C187.66 430.919 183.497 426.294 183.497 417.042C183.497 409.642 186.087 400.298 191.267 389.011C196.632 377.725 204.125 366.069 213.744 354.042C223.549 341.83 234.372 330.452 246.212 319.905C258.237 309.174 271.741 300.385 286.726 293.539C301.896 286.508 316.696 282.993 331.126 282.993C343.89 282.993 350.273 289.284 350.273 301.865C350.273 310.747 347.22 322.126 341.115 336.002C335.01 349.879 327.611 363.571 318.916 377.077C301.711 403.905 285.709 426.479 270.909 444.796L261.751 455.897L386.625 334.337C391.62 329.712 394.395 327.399 394.95 327.399C396.245 327.399 396.892 328.231 396.892 329.896C396.892 331.377 395.135 333.967 391.62 337.667C361.28 385.774 335.195 429.531 313.366 468.941L312.533 471.994C326.408 455.527 347.313 433.694 375.248 406.496C403.182 379.298 426.769 357.188 446.009 340.165C465.249 323.143 484.119 308.526 502.619 296.315C521.118 284.103 535.086 277.997 544.521 277.997C547.296 277.997 548.683 279.478 548.683 282.438C548.683 283.178 548.035 283.919 546.741 284.658C545.631 285.398 541.93 288.082 535.641 292.707C517.326 305.658 508.076 312.041 507.891 311.857C507.336 311.857 507.059 311.672 507.059 311.302L507.614 309.636C507.614 308.897 507.151 308.526 506.226 308.526C499.011 308.526 484.859 316.76 463.769 333.227C442.864 349.694 420.757 369.122 397.447 391.509C374.322 413.897 352.031 436.377 330.571 458.95C309.296 481.523 294.126 498.915 285.061 511.127C283.396 513.162 281.916 514.18 280.621 514.18C279.326 514.18 278.679 513.717 278.679 512.792C278.679 512.052 279.326 510.479 280.621 508.074ZM346.206 449.474C346.206 450.664 346.879 451.258 348.227 451.258C349.575 451.258 350.804 450.664 351.914 449.474C353.024 448.206 353.579 447.254 353.579 446.62C353.579 445.985 353.341 445.43 352.865 444.954C352.469 444.479 351.835 444.241 350.963 444.241C350.17 444.241 349.179 444.796 347.989 445.906C346.8 447.016 346.206 448.206 346.206 449.474ZM318.139 488.845C318.139 489.162 318.337 489.32 318.733 489.32C320.16 489.32 327.256 485.118 340.021 476.712L340.14 478.259L335.264 481.47C332.014 483.611 328.446 485.752 324.561 487.893C320.676 489.955 318.099 490.986 316.83 490.986C315.879 490.986 315.403 490.232 315.403 488.726C315.403 487.14 317.782 483.135 322.539 476.712C327.375 470.21 332.489 464.223 337.881 458.752C338.436 458.118 339.03 457.8 339.665 457.8L342.4 458.038C343.034 458.117 343.351 458.316 343.351 458.633C343.351 458.871 343.113 459.307 342.638 459.941C339.466 463.113 334.788 468.228 328.604 475.285C322.499 482.342 319.011 486.862 318.139 488.845ZM338.765 479.21L338.408 477.783L342.332 475.285C348.279 471.32 352.005 468.545 353.512 466.959C355.018 465.294 355.93 464.263 356.247 463.866C358.308 461.25 359.458 459.783 359.696 459.466C360.647 459.783 361.123 460.734 361.123 462.32C359.537 464.62 357.397 467.395 354.701 470.646C352.005 473.818 349.785 476.474 348.041 478.615C346.297 480.677 345.425 481.867 345.425 482.184C345.425 482.501 345.464 482.66 345.543 482.66C345.702 482.66 346.297 482.263 347.327 481.47C348.437 480.598 351.371 478.496 356.128 475.166C365.721 468.505 371.826 464.303 374.443 462.558C377.059 460.734 378.724 459.822 379.438 459.822C380.231 459.822 380.627 460.615 380.627 462.201C380.627 463.708 379.438 466.007 377.059 469.1C374.681 472.192 372.064 475.047 369.21 477.664C361.599 484.642 357.793 488.488 357.793 489.201C357.793 489.281 357.952 489.32 358.269 489.32C359.22 489.32 364.572 486.188 374.324 479.924L379.2 476.712L379.319 478.259C366.554 486.743 358.784 490.986 356.009 490.986C355.533 490.986 355.296 490.748 355.296 490.272C355.296 487.338 357.119 483.889 360.766 479.924C364.493 475.88 368.179 472.272 371.826 469.1C375.474 465.849 377.297 463.708 377.297 462.677C377.297 462.518 377.218 462.439 377.059 462.439C374.76 463.549 369.408 467.078 361.004 473.025C352.679 478.893 347.803 482.342 346.376 483.373C342.65 486.148 340.667 487.615 340.43 487.774C340.271 487.853 339.875 488.25 339.24 488.964C337.813 490.47 336.505 491.223 335.316 491.223C333.413 491.065 332.422 490.946 332.343 490.867C332.263 490.787 332.224 490.708 332.224 490.629C332.224 490.549 332.898 489.796 334.245 488.369C335.514 487.021 336.783 485.673 338.051 484.325C342.253 479.646 345.147 476.316 346.733 474.333L338.765 479.21ZM401.573 460.298C401.573 460.06 401.415 459.941 401.098 459.941C398.957 459.941 395.627 461.805 391.108 465.532C386.588 469.259 382.664 473.342 379.334 477.783C383.298 476.514 387.976 473.659 393.367 469.219C398.838 464.778 401.573 461.805 401.573 460.298ZM374.101 488.369C374.101 489.4 374.497 489.915 375.29 489.915C376.242 489.915 378.382 489.281 381.712 488.012C385.042 486.664 387.778 485.356 389.918 484.087L401.573 476.712L401.692 478.259C393.367 483.809 387.143 487.338 383.021 488.845C378.977 490.351 376.281 491.104 374.934 491.104C372.714 491.104 371.604 489.717 371.604 486.941C371.604 483.215 372.951 479.488 375.647 475.761C378.343 472.034 381.475 468.981 385.042 466.602C388.69 464.223 392.178 462.281 395.508 460.774C398.917 459.267 401.494 458.514 403.238 458.514C404.983 458.514 405.855 459.109 405.855 460.298C405.855 463.232 402.366 466.8 395.389 471.003C388.491 475.206 382.743 477.981 378.145 479.329C375.449 483.215 374.101 486.228 374.101 488.369Z" fill="white"/>
<path d="M9.85753 830.248C-0.142468 821.448 -0.642468 800.582 0.357532 791.248H610.858C613.191 788.415 603.858 810.748 603.858 810.748C603.858 810.748 603.858 845.248 533.358 830.248C462.858 815.248 533.358 935.748 520.358 960.748C507.358 985.748 457.83 987.227 467.858 935.748C477.885 884.27 491.751 811.705 442.858 820.248C393.964 828.792 440.715 1147.5 434.358 1207.25C428 1267 371.715 1274.5 364.858 1207.25C358 1140 407.233 842.146 381.358 820.248C355.483 798.351 335.215 801.248 327.358 810.748C319.5 820.248 331.004 836.022 302.358 845.248C249.855 862.158 293.842 936.066 275.858 960.748C240.859 1008.78 249.479 912.693 249.358 845.248C249.29 807.665 215.858 810.748 206.358 810.748C196.858 810.748 201.328 816.409 176.858 845.248C155.011 870.996 136.621 815.98 119.858 810.748C103.094 805.517 105.908 838.038 87.8575 871.748C69.8074 905.459 129.189 1086.62 80.8575 1098.75C5.17213 1117.74 59.4908 933.554 54.3575 871.748C49.2243 809.943 22.3575 841.248 9.85753 830.248Z" fill="#5A1A1A"/>
</svg>
